%TF.GenerationSoftware,KiCad,Pcbnew,6.0.5-a6ca702e91~116~ubuntu20.04.1*%
%TF.CreationDate,2022-05-20T12:06:46-05:00*%
%TF.ProjectId,Easyrun,45617379-7275-46e2-9e6b-696361645f70,rev?*%
%TF.SameCoordinates,Original*%
%TF.FileFunction,Legend,Bot*%
%TF.FilePolarity,Positive*%
%FSLAX46Y46*%
G04 Gerber Fmt 4.6, Leading zero omitted, Abs format (unit mm)*
G04 Created by KiCad (PCBNEW 6.0.5-a6ca702e91~116~ubuntu20.04.1) date 2022-05-20 12:06:46*
%MOMM*%
%LPD*%
G01*
G04 APERTURE LIST*
%ADD10C,0.150000*%
%ADD11C,0.120000*%
G04 APERTURE END LIST*
D10*
%TO.C,BT1*%
X188991514Y-68832371D02*
X188848657Y-68879990D01*
X188801038Y-68927609D01*
X188753419Y-69022847D01*
X188753419Y-69165704D01*
X188801038Y-69260942D01*
X188848657Y-69308561D01*
X188943895Y-69356180D01*
X189324847Y-69356180D01*
X189324847Y-68356180D01*
X188991514Y-68356180D01*
X188896276Y-68403800D01*
X188848657Y-68451419D01*
X188801038Y-68546657D01*
X188801038Y-68641895D01*
X188848657Y-68737133D01*
X188896276Y-68784752D01*
X188991514Y-68832371D01*
X189324847Y-68832371D01*
X188467704Y-68356180D02*
X187896276Y-68356180D01*
X188181990Y-69356180D02*
X188181990Y-68356180D01*
X187039133Y-69356180D02*
X187610561Y-69356180D01*
X187324847Y-69356180D02*
X187324847Y-68356180D01*
X187420085Y-68499038D01*
X187515323Y-68594276D01*
X187610561Y-68641895D01*
%TO.C,CB5*%
X142385142Y-120943133D02*
X142432761Y-120895514D01*
X142480380Y-120752657D01*
X142480380Y-120657419D01*
X142432761Y-120514561D01*
X142337523Y-120419323D01*
X142242285Y-120371704D01*
X142051809Y-120324085D01*
X141908952Y-120324085D01*
X141718476Y-120371704D01*
X141623238Y-120419323D01*
X141528000Y-120514561D01*
X141480380Y-120657419D01*
X141480380Y-120752657D01*
X141528000Y-120895514D01*
X141575619Y-120943133D01*
X141956571Y-121705038D02*
X142004190Y-121847895D01*
X142051809Y-121895514D01*
X142147047Y-121943133D01*
X142289904Y-121943133D01*
X142385142Y-121895514D01*
X142432761Y-121847895D01*
X142480380Y-121752657D01*
X142480380Y-121371704D01*
X141480380Y-121371704D01*
X141480380Y-121705038D01*
X141528000Y-121800276D01*
X141575619Y-121847895D01*
X141670857Y-121895514D01*
X141766095Y-121895514D01*
X141861333Y-121847895D01*
X141908952Y-121800276D01*
X141956571Y-121705038D01*
X141956571Y-121371704D01*
X141480380Y-122847895D02*
X141480380Y-122371704D01*
X141956571Y-122324085D01*
X141908952Y-122371704D01*
X141861333Y-122466942D01*
X141861333Y-122705038D01*
X141908952Y-122800276D01*
X141956571Y-122847895D01*
X142051809Y-122895514D01*
X142289904Y-122895514D01*
X142385142Y-122847895D01*
X142432761Y-122800276D01*
X142480380Y-122705038D01*
X142480380Y-122466942D01*
X142432761Y-122371704D01*
X142385142Y-122324085D01*
%TO.C,C_b1*%
X121137542Y-133563800D02*
X121185161Y-133516180D01*
X121232780Y-133373323D01*
X121232780Y-133278085D01*
X121185161Y-133135228D01*
X121089923Y-133039990D01*
X120994685Y-132992371D01*
X120804209Y-132944752D01*
X120661352Y-132944752D01*
X120470876Y-132992371D01*
X120375638Y-133039990D01*
X120280400Y-133135228D01*
X120232780Y-133278085D01*
X120232780Y-133373323D01*
X120280400Y-133516180D01*
X120328019Y-133563800D01*
X121328019Y-133754276D02*
X121328019Y-134516180D01*
X121232780Y-134754276D02*
X120232780Y-134754276D01*
X120613733Y-134754276D02*
X120566114Y-134849514D01*
X120566114Y-135039990D01*
X120613733Y-135135228D01*
X120661352Y-135182847D01*
X120756590Y-135230466D01*
X121042304Y-135230466D01*
X121137542Y-135182847D01*
X121185161Y-135135228D01*
X121232780Y-135039990D01*
X121232780Y-134849514D01*
X121185161Y-134754276D01*
X121232780Y-136182847D02*
X121232780Y-135611419D01*
X121232780Y-135897133D02*
X120232780Y-135897133D01*
X120375638Y-135801895D01*
X120470876Y-135706657D01*
X120518495Y-135611419D01*
%TO.C,BRst1*%
X154462438Y-93728571D02*
X154319580Y-93776190D01*
X154271961Y-93823809D01*
X154224342Y-93919047D01*
X154224342Y-94061904D01*
X154271961Y-94157142D01*
X154319580Y-94204761D01*
X154414819Y-94252380D01*
X154795771Y-94252380D01*
X154795771Y-93252380D01*
X154462438Y-93252380D01*
X154367200Y-93300000D01*
X154319580Y-93347619D01*
X154271961Y-93442857D01*
X154271961Y-93538095D01*
X154319580Y-93633333D01*
X154367200Y-93680952D01*
X154462438Y-93728571D01*
X154795771Y-93728571D01*
X153224342Y-94252380D02*
X153557676Y-93776190D01*
X153795771Y-94252380D02*
X153795771Y-93252380D01*
X153414819Y-93252380D01*
X153319580Y-93300000D01*
X153271961Y-93347619D01*
X153224342Y-93442857D01*
X153224342Y-93585714D01*
X153271961Y-93680952D01*
X153319580Y-93728571D01*
X153414819Y-93776190D01*
X153795771Y-93776190D01*
X152843390Y-94204761D02*
X152748152Y-94252380D01*
X152557676Y-94252380D01*
X152462438Y-94204761D01*
X152414819Y-94109523D01*
X152414819Y-94061904D01*
X152462438Y-93966666D01*
X152557676Y-93919047D01*
X152700533Y-93919047D01*
X152795771Y-93871428D01*
X152843390Y-93776190D01*
X152843390Y-93728571D01*
X152795771Y-93633333D01*
X152700533Y-93585714D01*
X152557676Y-93585714D01*
X152462438Y-93633333D01*
X152129104Y-93585714D02*
X151748152Y-93585714D01*
X151986247Y-93252380D02*
X151986247Y-94109523D01*
X151938628Y-94204761D01*
X151843390Y-94252380D01*
X151748152Y-94252380D01*
X150891009Y-94252380D02*
X151462438Y-94252380D01*
X151176723Y-94252380D02*
X151176723Y-93252380D01*
X151271961Y-93395238D01*
X151367200Y-93490476D01*
X151462438Y-93538095D01*
%TO.C,BProg1*%
X166719047Y-93528571D02*
X166576190Y-93576190D01*
X166528571Y-93623809D01*
X166480952Y-93719047D01*
X166480952Y-93861904D01*
X166528571Y-93957142D01*
X166576190Y-94004761D01*
X166671428Y-94052380D01*
X167052380Y-94052380D01*
X167052380Y-93052380D01*
X166719047Y-93052380D01*
X166623809Y-93100000D01*
X166576190Y-93147619D01*
X166528571Y-93242857D01*
X166528571Y-93338095D01*
X166576190Y-93433333D01*
X166623809Y-93480952D01*
X166719047Y-93528571D01*
X167052380Y-93528571D01*
X166052380Y-94052380D02*
X166052380Y-93052380D01*
X165671428Y-93052380D01*
X165576190Y-93100000D01*
X165528571Y-93147619D01*
X165480952Y-93242857D01*
X165480952Y-93385714D01*
X165528571Y-93480952D01*
X165576190Y-93528571D01*
X165671428Y-93576190D01*
X166052380Y-93576190D01*
X165052380Y-94052380D02*
X165052380Y-93385714D01*
X165052380Y-93576190D02*
X165004761Y-93480952D01*
X164957142Y-93433333D01*
X164861904Y-93385714D01*
X164766666Y-93385714D01*
X164290476Y-94052380D02*
X164385714Y-94004761D01*
X164433333Y-93957142D01*
X164480952Y-93861904D01*
X164480952Y-93576190D01*
X164433333Y-93480952D01*
X164385714Y-93433333D01*
X164290476Y-93385714D01*
X164147619Y-93385714D01*
X164052380Y-93433333D01*
X164004761Y-93480952D01*
X163957142Y-93576190D01*
X163957142Y-93861904D01*
X164004761Y-93957142D01*
X164052380Y-94004761D01*
X164147619Y-94052380D01*
X164290476Y-94052380D01*
X163100000Y-93385714D02*
X163100000Y-94195238D01*
X163147619Y-94290476D01*
X163195238Y-94338095D01*
X163290476Y-94385714D01*
X163433333Y-94385714D01*
X163528571Y-94338095D01*
X163100000Y-94004761D02*
X163195238Y-94052380D01*
X163385714Y-94052380D01*
X163480952Y-94004761D01*
X163528571Y-93957142D01*
X163576190Y-93861904D01*
X163576190Y-93576190D01*
X163528571Y-93480952D01*
X163480952Y-93433333D01*
X163385714Y-93385714D01*
X163195238Y-93385714D01*
X163100000Y-93433333D01*
X162100000Y-94052380D02*
X162671428Y-94052380D01*
X162385714Y-94052380D02*
X162385714Y-93052380D01*
X162480952Y-93195238D01*
X162576190Y-93290476D01*
X162671428Y-93338095D01*
%TO.C,SWRec1*%
X169726476Y-133212761D02*
X169583619Y-133260380D01*
X169345523Y-133260380D01*
X169250285Y-133212761D01*
X169202666Y-133165142D01*
X169155047Y-133069904D01*
X169155047Y-132974666D01*
X169202666Y-132879428D01*
X169250285Y-132831809D01*
X169345523Y-132784190D01*
X169536000Y-132736571D01*
X169631238Y-132688952D01*
X169678857Y-132641333D01*
X169726476Y-132546095D01*
X169726476Y-132450857D01*
X169678857Y-132355619D01*
X169631238Y-132308000D01*
X169536000Y-132260380D01*
X169297904Y-132260380D01*
X169155047Y-132308000D01*
X168821714Y-132260380D02*
X168583619Y-133260380D01*
X168393142Y-132546095D01*
X168202666Y-133260380D01*
X167964571Y-132260380D01*
X167012190Y-133260380D02*
X167345523Y-132784190D01*
X167583619Y-133260380D02*
X167583619Y-132260380D01*
X167202666Y-132260380D01*
X167107428Y-132308000D01*
X167059809Y-132355619D01*
X167012190Y-132450857D01*
X167012190Y-132593714D01*
X167059809Y-132688952D01*
X167107428Y-132736571D01*
X167202666Y-132784190D01*
X167583619Y-132784190D01*
X166202666Y-133212761D02*
X166297904Y-133260380D01*
X166488380Y-133260380D01*
X166583619Y-133212761D01*
X166631238Y-133117523D01*
X166631238Y-132736571D01*
X166583619Y-132641333D01*
X166488380Y-132593714D01*
X166297904Y-132593714D01*
X166202666Y-132641333D01*
X166155047Y-132736571D01*
X166155047Y-132831809D01*
X166631238Y-132927047D01*
X165297904Y-133212761D02*
X165393142Y-133260380D01*
X165583619Y-133260380D01*
X165678857Y-133212761D01*
X165726476Y-133165142D01*
X165774095Y-133069904D01*
X165774095Y-132784190D01*
X165726476Y-132688952D01*
X165678857Y-132641333D01*
X165583619Y-132593714D01*
X165393142Y-132593714D01*
X165297904Y-132641333D01*
X164345523Y-133260380D02*
X164916952Y-133260380D01*
X164631238Y-133260380D02*
X164631238Y-132260380D01*
X164726476Y-132403238D01*
X164821714Y-132498476D01*
X164916952Y-132546095D01*
%TO.C,CB3*%
X126383142Y-118453933D02*
X126430761Y-118406314D01*
X126478380Y-118263457D01*
X126478380Y-118168219D01*
X126430761Y-118025361D01*
X126335523Y-117930123D01*
X126240285Y-117882504D01*
X126049809Y-117834885D01*
X125906952Y-117834885D01*
X125716476Y-117882504D01*
X125621238Y-117930123D01*
X125526000Y-118025361D01*
X125478380Y-118168219D01*
X125478380Y-118263457D01*
X125526000Y-118406314D01*
X125573619Y-118453933D01*
X125954571Y-119215838D02*
X126002190Y-119358695D01*
X126049809Y-119406314D01*
X126145047Y-119453933D01*
X126287904Y-119453933D01*
X126383142Y-119406314D01*
X126430761Y-119358695D01*
X126478380Y-119263457D01*
X126478380Y-118882504D01*
X125478380Y-118882504D01*
X125478380Y-119215838D01*
X125526000Y-119311076D01*
X125573619Y-119358695D01*
X125668857Y-119406314D01*
X125764095Y-119406314D01*
X125859333Y-119358695D01*
X125906952Y-119311076D01*
X125954571Y-119215838D01*
X125954571Y-118882504D01*
X125478380Y-119787266D02*
X125478380Y-120406314D01*
X125859333Y-120072980D01*
X125859333Y-120215838D01*
X125906952Y-120311076D01*
X125954571Y-120358695D01*
X126049809Y-120406314D01*
X126287904Y-120406314D01*
X126383142Y-120358695D01*
X126430761Y-120311076D01*
X126478380Y-120215838D01*
X126478380Y-119930123D01*
X126430761Y-119834885D01*
X126383142Y-119787266D01*
D11*
%TO.C,BT1*%
X190407800Y-67005200D02*
X113953800Y-67005200D01*
X113953800Y-67005200D02*
X113953800Y-86918800D01*
X113953800Y-86918800D02*
X190407800Y-86918800D01*
X190407800Y-86918800D02*
X190407800Y-67005200D01*
%TO.C,CB5*%
X134268000Y-118199800D02*
X136618000Y-118199800D01*
X140023563Y-125019800D02*
X138738000Y-125019800D01*
X139919250Y-125653550D02*
X139131750Y-125653550D01*
X139525500Y-126047300D02*
X139525500Y-125259800D01*
X135332437Y-125019800D02*
X134268000Y-123955363D01*
X134268000Y-123955363D02*
X134268000Y-118199800D01*
X135332437Y-125019800D02*
X136618000Y-125019800D01*
X141088000Y-118199800D02*
X138738000Y-118199800D01*
X140023563Y-125019800D02*
X141088000Y-123955363D01*
X141088000Y-123955363D02*
X141088000Y-118199800D01*
%TO.C,C_b1*%
X121720400Y-132218237D02*
X121720400Y-137973800D01*
X121720400Y-137973800D02*
X124070400Y-137973800D01*
X122889150Y-130520050D02*
X123676650Y-130520050D01*
X128540400Y-137973800D02*
X126190400Y-137973800D01*
X123282900Y-130126300D02*
X123282900Y-130913800D01*
X122784837Y-131153800D02*
X124070400Y-131153800D01*
X127475963Y-131153800D02*
X126190400Y-131153800D01*
X122784837Y-131153800D02*
X121720400Y-132218237D01*
X128540400Y-132218237D02*
X128540400Y-137973800D01*
X127475963Y-131153800D02*
X128540400Y-132218237D01*
%TO.C,BRst1*%
X149807200Y-89025800D02*
X149807200Y-92725800D01*
X149807200Y-92725800D02*
X155927200Y-92725800D01*
X155927200Y-89025800D02*
X149807200Y-89025800D01*
X155927200Y-92725800D02*
X155927200Y-89025800D01*
%TO.C,BProg1*%
X167916000Y-89025800D02*
X161796000Y-89025800D01*
X161796000Y-89025800D02*
X161796000Y-92725800D01*
X161796000Y-92725800D02*
X167916000Y-92725800D01*
X167916000Y-92725800D02*
X167916000Y-89025800D01*
%TO.C,SWRec1*%
X165706000Y-133808000D02*
X165706000Y-136918000D01*
X168366000Y-139008000D02*
X165706000Y-139008000D01*
X168366000Y-133808000D02*
X168366000Y-134378000D01*
X168366000Y-134378000D02*
X169886000Y-134378000D01*
X168366000Y-133808000D02*
X165706000Y-133808000D01*
X168366000Y-135898000D02*
X168366000Y-139008000D01*
X165706000Y-138438000D02*
X165706000Y-139008000D01*
%TO.C,CB3*%
X124021563Y-122530600D02*
X122736000Y-122530600D01*
X123523500Y-123558100D02*
X123523500Y-122770600D01*
X119330437Y-122530600D02*
X120616000Y-122530600D01*
X119330437Y-122530600D02*
X118266000Y-121466163D01*
X118266000Y-115710600D02*
X120616000Y-115710600D01*
X118266000Y-121466163D02*
X118266000Y-115710600D01*
X125086000Y-115710600D02*
X122736000Y-115710600D01*
X124021563Y-122530600D02*
X125086000Y-121466163D01*
X125086000Y-121466163D02*
X125086000Y-115710600D01*
X123917250Y-123164350D02*
X123129750Y-123164350D01*
%TD*%
M02*
