%TF.GenerationSoftware,KiCad,Pcbnew,(6.0.4)*%
%TF.CreationDate,2022-05-20T17:10:54-05:00*%
%TF.ProjectId,Easyrun,45617379-7275-46e2-9e6b-696361645f70,rev?*%
%TF.SameCoordinates,Original*%
%TF.FileFunction,Other,User*%
%FSLAX46Y46*%
G04 Gerber Fmt 4.6, Leading zero omitted, Abs format (unit mm)*
G04 Created by KiCad (PCBNEW (6.0.4)) date 2022-05-20 17:10:54*
%MOMM*%
%LPD*%
G01*
G04 APERTURE LIST*
%ADD10C,0.050000*%
G04 APERTURE END LIST*
D10*
%TO.C,J_Lector_2*%
X202514000Y-59035500D02*
X202514000Y-49835500D01*
X202514000Y-49835500D02*
X179014000Y-49835500D01*
X179014000Y-49835500D02*
X179014000Y-59035500D01*
X179014000Y-59035500D02*
X202514000Y-59035500D01*
%TO.C,FB1*%
X194654400Y-123165000D02*
X200894400Y-123165000D01*
X200894400Y-123165000D02*
X200894400Y-127065000D01*
X194654400Y-127065000D02*
X194654400Y-123165000D01*
X200894400Y-127065000D02*
X194654400Y-127065000D01*
%TO.C,D1*%
X143057600Y-102352200D02*
X133517600Y-102352200D01*
X133517600Y-102352200D02*
X133517600Y-108152200D01*
X133517600Y-108152200D02*
X143057600Y-108152200D01*
X143057600Y-108152200D02*
X143057600Y-102352200D01*
%TO.C,C1*%
X135620000Y-80602500D02*
X135620000Y-84362500D01*
X133660000Y-84362500D02*
X133660000Y-80602500D01*
X135620000Y-84362500D02*
X133660000Y-84362500D01*
X133660000Y-80602500D02*
X135620000Y-80602500D01*
%TO.C,REF\u002A\u002A*%
X201130000Y-137002200D02*
G75*
G03*
X201130000Y-137002200I-3000000J0D01*
G01*
%TO.C,CB4*%
X144638000Y-93401000D02*
X144638000Y-95361000D01*
X140878000Y-95361000D02*
X140878000Y-93401000D01*
X140878000Y-93401000D02*
X144638000Y-93401000D01*
X144638000Y-95361000D02*
X140878000Y-95361000D01*
%TO.C,CB1*%
X109185000Y-86165000D02*
X112945000Y-86165000D01*
X109185000Y-88125000D02*
X109185000Y-86165000D01*
X112945000Y-88125000D02*
X109185000Y-88125000D01*
X112945000Y-86165000D02*
X112945000Y-88125000D01*
%TO.C,J_Lector_1*%
X155265000Y-58997500D02*
X178765000Y-58997500D01*
X178765000Y-49797500D02*
X155265000Y-49797500D01*
X155265000Y-49797500D02*
X155265000Y-58997500D01*
X178765000Y-58997500D02*
X178765000Y-49797500D01*
%TO.C,DFly1*%
X184257200Y-140308600D02*
X193797200Y-140308600D01*
X184257200Y-134508600D02*
X184257200Y-140308600D01*
X193797200Y-134508600D02*
X184257200Y-134508600D01*
X193797200Y-140308600D02*
X193797200Y-134508600D01*
%TO.C,Ra1*%
X198202000Y-106100600D02*
X194502000Y-106100600D01*
X194502000Y-104200600D02*
X198202000Y-104200600D01*
X194502000Y-106100600D02*
X194502000Y-104200600D01*
X198202000Y-104200600D02*
X198202000Y-106100600D01*
%TO.C,CBy3*%
X145844400Y-118925400D02*
X145844400Y-109765400D01*
X145844400Y-109765400D02*
X150644400Y-109765400D01*
X150644400Y-109765400D02*
X150644400Y-118925400D01*
X150644400Y-118925400D02*
X145844400Y-118925400D01*
%TO.C,C3*%
X135545000Y-66115000D02*
X135545000Y-69875000D01*
X135545000Y-69875000D02*
X133585000Y-69875000D01*
X133585000Y-66115000D02*
X135545000Y-66115000D01*
X133585000Y-69875000D02*
X133585000Y-66115000D01*
%TO.C,J_gnd1*%
X186154400Y-123795000D02*
X194154400Y-123795000D01*
X194154400Y-123795000D02*
X194154400Y-126435000D01*
X186154400Y-126435000D02*
X186154400Y-123795000D01*
X194154400Y-126435000D02*
X186154400Y-126435000D01*
%TO.C,LB3*%
X129025000Y-125325000D02*
X129025000Y-109625000D01*
X129025000Y-109625000D02*
X103125000Y-109625000D01*
X103125000Y-109625000D02*
X103125000Y-125325000D01*
X103125000Y-125325000D02*
X129025000Y-125325000D01*
%TO.C,Lb1*%
X102884000Y-126413000D02*
X102884000Y-142113000D01*
X102884000Y-142113000D02*
X128784000Y-142113000D01*
X128784000Y-142113000D02*
X128784000Y-126413000D01*
X128784000Y-126413000D02*
X102884000Y-126413000D01*
%TO.C,D3*%
X120320000Y-98505000D02*
X120320000Y-108045000D01*
X126120000Y-98505000D02*
X120320000Y-98505000D01*
X120320000Y-108045000D02*
X126120000Y-108045000D01*
X126120000Y-108045000D02*
X126120000Y-98505000D01*
%TO.C,J_Lector_3*%
X155016000Y-49835500D02*
X131516000Y-49835500D01*
X155016000Y-59035500D02*
X155016000Y-49835500D01*
X131516000Y-49835500D02*
X131516000Y-59035500D01*
X131516000Y-59035500D02*
X155016000Y-59035500D01*
%TO.C,RI2C1*%
X186634000Y-97348600D02*
X184734000Y-97348600D01*
X186634000Y-93648600D02*
X186634000Y-97348600D01*
X184734000Y-93648600D02*
X186634000Y-93648600D01*
X184734000Y-97348600D02*
X184734000Y-93648600D01*
%TO.C,CB2*%
X129601200Y-93299400D02*
X129601200Y-95259400D01*
X125841200Y-93299400D02*
X129601200Y-93299400D01*
X125841200Y-95259400D02*
X125841200Y-93299400D01*
X129601200Y-95259400D02*
X125841200Y-95259400D01*
%TO.C,B1_1*%
X117320400Y-91129000D02*
X117320400Y-88489000D01*
X125320400Y-88489000D02*
X125320400Y-91129000D01*
X125320400Y-91129000D02*
X117320400Y-91129000D01*
X117320400Y-88489000D02*
X125320400Y-88489000D01*
%TO.C,R6*%
X146890000Y-82570000D02*
X146890000Y-78870000D01*
X148790000Y-82570000D02*
X146890000Y-82570000D01*
X146890000Y-78870000D02*
X148790000Y-78870000D01*
X148790000Y-78870000D02*
X148790000Y-82570000D01*
%TO.C,R_RED1*%
X171749600Y-100913000D02*
X171749600Y-104613000D01*
X171749600Y-104613000D02*
X169849600Y-104613000D01*
X169849600Y-100913000D02*
X171749600Y-100913000D01*
X169849600Y-104613000D02*
X169849600Y-100913000D01*
%TO.C,J_Display1*%
X204457500Y-61070000D02*
X195257500Y-61070000D01*
X204457500Y-87070000D02*
X204457500Y-61070000D01*
X195257500Y-61070000D02*
X195257500Y-87070000D01*
X195257500Y-87070000D02*
X204457500Y-87070000D01*
%TO.C,R5*%
X147040000Y-64420000D02*
X148940000Y-64420000D01*
X147040000Y-68120000D02*
X147040000Y-64420000D01*
X148940000Y-64420000D02*
X148940000Y-68120000D01*
X148940000Y-68120000D02*
X147040000Y-68120000D01*
%TO.C,CBat1*%
X187742400Y-84763000D02*
X187742400Y-82663000D01*
X186592400Y-86113000D02*
X185442400Y-87263000D01*
X178342400Y-82663000D02*
X179492400Y-82663000D01*
X186592400Y-86113000D02*
X186592400Y-84763000D01*
X178342400Y-84763000D02*
X178342400Y-82663000D01*
X179492400Y-87263000D02*
X179492400Y-84763000D01*
X187742400Y-82663000D02*
X186592400Y-82663000D01*
X186592400Y-84763000D02*
X187742400Y-84763000D01*
X186592400Y-81313000D02*
X185442400Y-80163000D01*
X185442400Y-87263000D02*
X179492400Y-87263000D01*
X186592400Y-82663000D02*
X186592400Y-81313000D01*
X179492400Y-84763000D02*
X178342400Y-84763000D01*
X179492400Y-82663000D02*
X179492400Y-80163000D01*
X185442400Y-80163000D02*
X179492400Y-80163000D01*
%TO.C,U_ChargeControler1*%
X173797400Y-104293000D02*
X173797400Y-98693000D01*
X181217400Y-104293000D02*
X181217400Y-98693000D01*
X181217400Y-98693000D02*
X173797400Y-98693000D01*
X181217400Y-104293000D02*
X173797400Y-104293000D01*
%TO.C,U_555*%
X195621000Y-111793600D02*
X195621000Y-106393600D01*
X195621000Y-106393600D02*
X188221000Y-106393600D01*
X188221000Y-106393600D02*
X188221000Y-111793600D01*
X188221000Y-111793600D02*
X195621000Y-111793600D01*
%TO.C,D_RED1*%
X173360800Y-98836200D02*
X169660800Y-98836200D01*
X169660800Y-98836200D02*
X169660800Y-96936200D01*
X173360800Y-96936200D02*
X173360800Y-98836200D01*
X169660800Y-96936200D02*
X173360800Y-96936200D01*
%TO.C,CByBa1*%
X174227600Y-113871400D02*
X175377600Y-113871400D01*
X175377600Y-115221400D02*
X176527600Y-116371400D01*
X182477600Y-113871400D02*
X182477600Y-116371400D01*
X174227600Y-111771400D02*
X174227600Y-113871400D01*
X183627600Y-113871400D02*
X182477600Y-113871400D01*
X175377600Y-110421400D02*
X176527600Y-109271400D01*
X175377600Y-111771400D02*
X174227600Y-111771400D01*
X176527600Y-109271400D02*
X182477600Y-109271400D01*
X183627600Y-111771400D02*
X183627600Y-113871400D01*
X176527600Y-116371400D02*
X182477600Y-116371400D01*
X175377600Y-110421400D02*
X175377600Y-111771400D01*
X182477600Y-111771400D02*
X183627600Y-111771400D01*
X175377600Y-113871400D02*
X175377600Y-115221400D01*
X182477600Y-109271400D02*
X182477600Y-111771400D01*
%TO.C,J_Tap_1*%
X188054000Y-131953000D02*
X188054000Y-129313000D01*
X188054000Y-129313000D02*
X196054000Y-129313000D01*
X196054000Y-129313000D02*
X196054000Y-131953000D01*
X196054000Y-131953000D02*
X188054000Y-131953000D01*
%TO.C,L_p1*%
X133665000Y-70995000D02*
X135565000Y-70995000D01*
X135565000Y-70995000D02*
X135565000Y-74695000D01*
X135565000Y-74695000D02*
X133665000Y-74695000D01*
X133665000Y-74695000D02*
X133665000Y-70995000D01*
%TO.C,REF\u002A\u002A*%
X180962400Y-63600000D02*
G75*
G03*
X180962400Y-63600000I-3000000J0D01*
G01*
%TO.C,R_Prog10*%
X186044800Y-101274000D02*
X187944800Y-101274000D01*
X186044800Y-104974000D02*
X186044800Y-101274000D01*
X187944800Y-101274000D02*
X187944800Y-104974000D01*
X187944800Y-104974000D02*
X186044800Y-104974000D01*
%TO.C,B2_1*%
X140093200Y-89002400D02*
X140093200Y-91642400D01*
X140093200Y-91642400D02*
X132093200Y-91642400D01*
X132093200Y-89002400D02*
X140093200Y-89002400D01*
X132093200Y-91642400D02*
X132093200Y-89002400D01*
%TO.C,B2*%
X132052400Y-95497800D02*
X132052400Y-92857800D01*
X140052400Y-92857800D02*
X140052400Y-95497800D01*
X140052400Y-95497800D02*
X132052400Y-95497800D01*
X132052400Y-92857800D02*
X140052400Y-92857800D01*
%TO.C,U1*%
X97221600Y-60471400D02*
X108501600Y-60471400D01*
X97221600Y-88971400D02*
X108501600Y-88971400D01*
X108501600Y-64971400D02*
X128721600Y-64971400D01*
X128721600Y-84471400D02*
X108501600Y-84471400D01*
X108501600Y-64971400D02*
X108501600Y-60471400D01*
X97221600Y-88971400D02*
X97221600Y-60471400D01*
X128721600Y-84471400D02*
X128721600Y-64971400D01*
X108501600Y-88971400D02*
X108501600Y-84471400D01*
%TO.C,QBoo1*%
X139953600Y-101110200D02*
X139953600Y-97710200D01*
X136113600Y-101110200D02*
X139953600Y-101110200D01*
X139953600Y-97710200D02*
X136113600Y-97710200D01*
X136113600Y-97710200D02*
X136113600Y-101110200D01*
%TO.C,DBoo1*%
X114224000Y-98505000D02*
X114224000Y-108045000D01*
X120024000Y-108045000D02*
X120024000Y-98505000D01*
X120024000Y-98505000D02*
X114224000Y-98505000D01*
X114224000Y-108045000D02*
X120024000Y-108045000D01*
%TO.C,C_cv1*%
X191170000Y-112552600D02*
X194930000Y-112552600D01*
X194930000Y-112552600D02*
X194930000Y-114512600D01*
X191170000Y-114512600D02*
X191170000Y-112552600D01*
X194930000Y-114512600D02*
X191170000Y-114512600D01*
%TO.C,D2*%
X163246000Y-114649000D02*
X169046000Y-114649000D01*
X169046000Y-105109000D02*
X163246000Y-105109000D01*
X163246000Y-105109000D02*
X163246000Y-114649000D01*
X169046000Y-114649000D02*
X169046000Y-105109000D01*
%TO.C,D_GREEN1*%
X177374000Y-96326600D02*
X177374000Y-98226600D01*
X177374000Y-98226600D02*
X173674000Y-98226600D01*
X173674000Y-96326600D02*
X177374000Y-96326600D01*
X173674000Y-98226600D02*
X173674000Y-96326600D01*
%TO.C,UB3v3*%
X145930000Y-97875000D02*
X145930000Y-109175000D01*
X162570000Y-97875000D02*
X145930000Y-97875000D01*
X162570000Y-109175000D02*
X162570000Y-97875000D01*
X145930000Y-109175000D02*
X162570000Y-109175000D01*
%TO.C,LB5*%
X129675600Y-141925800D02*
X145375600Y-141925800D01*
X145375600Y-116025800D02*
X129675600Y-116025800D01*
X129675600Y-116025800D02*
X129675600Y-141925800D01*
X145375600Y-141925800D02*
X145375600Y-116025800D01*
%TO.C,REF\u002A\u002A*%
X109893200Y-105201400D02*
G75*
G03*
X109893200Y-105201400I-3000000J0D01*
G01*
%TO.C,Crec1*%
X182934000Y-137461621D02*
G75*
G03*
X182934000Y-137461621I-3400000J0D01*
G01*
%TO.C,D_S1*%
X176288000Y-132420000D02*
X185828000Y-132420000D01*
X185828000Y-126620000D02*
X176288000Y-126620000D01*
X185828000Y-132420000D02*
X185828000Y-126620000D01*
X176288000Y-126620000D02*
X176288000Y-132420000D01*
%TO.C,RI2C2*%
X190037600Y-97348600D02*
X188137600Y-97348600D01*
X190037600Y-93648600D02*
X190037600Y-97348600D01*
X188137600Y-93648600D02*
X190037600Y-93648600D01*
X188137600Y-97348600D02*
X188137600Y-93648600D01*
%TO.C,R4*%
X152740000Y-72045000D02*
X152740000Y-75745000D01*
X152740000Y-75745000D02*
X150840000Y-75745000D01*
X150840000Y-75745000D02*
X150840000Y-72045000D01*
X150840000Y-72045000D02*
X152740000Y-72045000D01*
%TO.C,R_p1*%
X135515000Y-75470000D02*
X135515000Y-79170000D01*
X133615000Y-79170000D02*
X133615000Y-75470000D01*
X133615000Y-75470000D02*
X135515000Y-75470000D01*
X135515000Y-79170000D02*
X133615000Y-79170000D01*
%TO.C,B1*%
X125320400Y-95497800D02*
X117320400Y-95497800D01*
X117320400Y-95497800D02*
X117320400Y-92857800D01*
X117320400Y-92857800D02*
X125320400Y-92857800D01*
X125320400Y-92857800D02*
X125320400Y-95497800D01*
%TO.C,Cby2*%
X196388000Y-114650600D02*
X196388000Y-110890600D01*
X198348000Y-114650600D02*
X196388000Y-114650600D01*
X196388000Y-110890600D02*
X198348000Y-110890600D01*
X198348000Y-110890600D02*
X198348000Y-114650600D01*
%TO.C,R_GREEN1*%
X177636400Y-98226600D02*
X177636400Y-96326600D01*
X177636400Y-96326600D02*
X181336400Y-96326600D01*
X181336400Y-98226600D02*
X177636400Y-98226600D01*
X181336400Y-96326600D02*
X181336400Y-98226600D01*
%TO.C,UB5v0*%
X145998000Y-126345400D02*
X145998000Y-142985400D01*
X145998000Y-142985400D02*
X157298000Y-142985400D01*
X157298000Y-126345400D02*
X145998000Y-126345400D01*
X157298000Y-142985400D02*
X157298000Y-126345400D01*
%TO.C,Ro1*%
X184988000Y-110302600D02*
X184988000Y-106602600D01*
X184988000Y-106602600D02*
X186888000Y-106602600D01*
X186888000Y-106602600D02*
X186888000Y-110302600D01*
X186888000Y-110302600D02*
X184988000Y-110302600D01*
%TO.C,J_M2*%
X111465000Y-101405000D02*
X111465000Y-90405000D01*
X102265000Y-101405000D02*
X111465000Y-101405000D01*
X111465000Y-90405000D02*
X102265000Y-90405000D01*
X102265000Y-90405000D02*
X102265000Y-101405000D01*
%TO.C,C_by1*%
X184958000Y-114396600D02*
X184958000Y-110636600D01*
X184958000Y-110636600D02*
X186918000Y-110636600D01*
X186918000Y-114396600D02*
X184958000Y-114396600D01*
X186918000Y-110636600D02*
X186918000Y-114396600D01*
%TO.C,J_I2C1*%
X202756000Y-87531000D02*
X190456000Y-87531000D01*
X190456000Y-87531000D02*
X190456000Y-101231000D01*
X202756000Y-101231000D02*
X202756000Y-87531000D01*
X190456000Y-101231000D02*
X202756000Y-101231000D01*
%TO.C,RMISO1*%
X148840000Y-68945000D02*
X148840000Y-72645000D01*
X148840000Y-72645000D02*
X146940000Y-72645000D01*
X146940000Y-72645000D02*
X146940000Y-68945000D01*
X146940000Y-68945000D02*
X148840000Y-68945000D01*
%TO.C,J_M1*%
X114476000Y-49581500D02*
X103476000Y-49581500D01*
X114476000Y-58781500D02*
X114476000Y-49581500D01*
X103476000Y-49581500D02*
X103476000Y-58781500D01*
X103476000Y-58781500D02*
X114476000Y-58781500D01*
%TO.C,J_prog1*%
X131096000Y-62202000D02*
X131096000Y-49852000D01*
X114796000Y-49852000D02*
X114796000Y-62202000D01*
X131096000Y-49852000D02*
X114796000Y-49852000D01*
X114796000Y-62202000D02*
X131096000Y-62202000D01*
%TO.C,RBtn2*%
X142850000Y-89125000D02*
X146550000Y-89125000D01*
X146550000Y-89125000D02*
X146550000Y-91025000D01*
X142850000Y-91025000D02*
X142850000Y-89125000D01*
X146550000Y-91025000D02*
X142850000Y-91025000D01*
%TO.C,DB3*%
X134889200Y-109362600D02*
X134889200Y-115162600D01*
X144429200Y-115162600D02*
X144429200Y-109362600D01*
X144429200Y-109362600D02*
X134889200Y-109362600D01*
X134889200Y-115162600D02*
X144429200Y-115162600D01*
%TO.C,RBtn1*%
X130034400Y-89626400D02*
X130034400Y-91526400D01*
X130034400Y-91526400D02*
X126334400Y-91526400D01*
X126334400Y-91526400D02*
X126334400Y-89626400D01*
X126334400Y-89626400D02*
X130034400Y-89626400D01*
%TO.C,R1*%
X146990000Y-78470000D02*
X146990000Y-74770000D01*
X148890000Y-78470000D02*
X146990000Y-78470000D01*
X146990000Y-74770000D02*
X148890000Y-74770000D01*
X148890000Y-74770000D02*
X148890000Y-78470000D01*
%TO.C,Rb1*%
X198267200Y-106653400D02*
X198267200Y-110353400D01*
X196367200Y-110353400D02*
X196367200Y-106653400D01*
X198267200Y-110353400D02*
X196367200Y-110353400D01*
X196367200Y-106653400D02*
X198267200Y-106653400D01*
%TO.C,DB5*%
X161091600Y-109769000D02*
X151551600Y-109769000D01*
X151551600Y-109769000D02*
X151551600Y-115569000D01*
X161091600Y-115569000D02*
X161091600Y-109769000D01*
X151551600Y-115569000D02*
X161091600Y-115569000D01*
%TO.C,Lrec1*%
X159440000Y-141992000D02*
X175140000Y-141992000D01*
X159440000Y-116092000D02*
X159440000Y-141992000D01*
X175140000Y-141992000D02*
X175140000Y-116092000D01*
X175140000Y-116092000D02*
X159440000Y-116092000D01*
%TO.C,D4*%
X133232000Y-98505000D02*
X127432000Y-98505000D01*
X133232000Y-108045000D02*
X133232000Y-98505000D01*
X127432000Y-108045000D02*
X133232000Y-108045000D01*
X127432000Y-98505000D02*
X127432000Y-108045000D01*
%TO.C,CBy5*%
X154328000Y-116471000D02*
X159128000Y-116471000D01*
X159128000Y-125631000D02*
X154328000Y-125631000D01*
X159128000Y-116471000D02*
X159128000Y-125631000D01*
X154328000Y-125631000D02*
X154328000Y-116471000D01*
%TO.C,J_Tap_2*%
X196562000Y-118013000D02*
X196562000Y-120653000D01*
X188562000Y-118013000D02*
X196562000Y-118013000D01*
X196562000Y-120653000D02*
X188562000Y-120653000D01*
X188562000Y-120653000D02*
X188562000Y-118013000D01*
%TO.C,D_S2*%
X185806000Y-123530000D02*
X185806000Y-117730000D01*
X176266000Y-123530000D02*
X185806000Y-123530000D01*
X176266000Y-117730000D02*
X176266000Y-123530000D01*
X185806000Y-117730000D02*
X176266000Y-117730000D01*
%TD*%
M02*
