M48
; DRILL file {KiCad (6.0.4)} date Fri May 20 17:11:02 2022
; FORMAT={-:-/ absolute / metric / decimal}
; #@! TF.CreationDate,2022-05-20T17:11:02-05:00
; #@! TF.GenerationSoftware,Kicad,Pcbnew,(6.0.4)
; #@! TF.FileFunction,Plated,1,2,PTH
FMAT,2
METRIC
; #@! TA.AperFunction,Plated,PTH,ViaDrill
T1C0.400
; #@! TA.AperFunction,Plated,PTH,ComponentDrill
T2C0.800
; #@! TA.AperFunction,Plated,PTH,ComponentDrill
T3C0.950
; #@! TA.AperFunction,Plated,PTH,ViaDrill
T4C1.000
; #@! TA.AperFunction,Plated,PTH,ComponentDrill
T5C1.000
; #@! TA.AperFunction,Plated,PTH,ComponentDrill
T6C1.300
; #@! TA.AperFunction,Plated,PTH,ComponentDrill
T7C1.430
; #@! TA.AperFunction,Plated,PTH,ComponentDrill
T8C1.500
%
G90
G05
T1
X104.0Y-52.05
X104.0Y-53.625
X105.5Y-52.05
X105.525Y-53.65
X105.55Y-133.975
X105.55Y-135.45
X105.575Y-132.425
X105.6Y-130.9
X105.625Y-118.325
X105.625Y-119.8
X105.65Y-116.775
X105.675Y-115.25
X107.05Y-53.675
X107.075Y-52.075
X107.275Y-133.95
X107.275Y-135.425
X107.3Y-132.425
X107.325Y-130.9
X107.35Y-118.3
X107.35Y-119.775
X107.375Y-116.775
X107.4Y-115.25
X108.875Y-133.975
X108.875Y-135.45
X108.9Y-130.9
X108.9Y-132.4
X108.95Y-118.325
X108.95Y-119.8
X108.975Y-115.25
X108.975Y-116.75
X109.8Y-71.2
X109.8Y-72.2
X110.8Y-71.2
X110.8Y-72.2
X111.107Y-68.928
X111.8Y-72.2
X112.524Y-59.438
X112.928Y-72.187
X113.411Y-53.975
X113.411Y-54.991
X114.303Y-58.804
X114.427Y-53.975
X114.427Y-54.991
X114.564Y-69.438
X115.443Y-53.975
X115.926Y-85.192
X116.394Y-89.192
X116.4Y-88.0
X116.4Y-90.4
X116.459Y-53.975
X117.602Y-84.988
X117.653Y-79.248
X118.313Y-72.034
X118.77Y-79.248
X119.532Y-85.395
X119.685Y-72.085
X120.157Y-81.574
X121.6Y-72.4
X121.6Y-73.4
X121.869Y-64.567
X122.225Y-80.823
X122.8Y-72.4
X124.358Y-75.082
X125.038Y-68.685
X125.237Y-64.252
X127.508Y-53.848
X127.559Y-87.173
X128.143Y-64.77
X128.422Y-82.398
X128.676Y-53.848
X129.159Y-64.77
X129.438Y-81.991
X129.542Y-68.989
X129.601Y-70.302
X129.794Y-53.899
X130.175Y-71.755
X130.175Y-72.644
X130.2Y-65.4
X130.404Y-88.138
X130.775Y-90.35
X130.8Y-93.975
X130.962Y-92.1
X131.064Y-71.755
X131.064Y-72.644
X131.4Y-65.4
X131.521Y-78.892
X132.273Y-83.632
X134.569Y-59.436
X134.6Y-60.4
X134.823Y-96.368
X135.225Y-134.425
X135.225Y-136.0
X135.225Y-137.725
X135.534Y-59.436
X135.6Y-60.4
X135.738Y-97.13
X136.6Y-60.4
X136.6Y-77.05
X136.6Y-78.625
X136.703Y-101.803
X136.725Y-134.425
X136.75Y-136.025
X136.75Y-137.75
X137.719Y-101.803
X137.77Y-82.448
X137.77Y-83.617
X138.1Y-77.05
X138.125Y-78.65
X138.275Y-136.05
X138.3Y-134.45
X138.3Y-137.775
X138.735Y-101.803
X138.786Y-82.448
X138.786Y-83.668
X139.446Y-67.666
X139.446Y-68.682
X139.65Y-78.675
X139.675Y-77.075
X139.75Y-136.05
X139.775Y-134.45
X139.775Y-137.775
X140.157Y-71.73
X140.513Y-67.666
X140.513Y-68.682
X141.125Y-78.675
X141.15Y-77.075
X141.2Y-60.8
X141.376Y-71.73
X141.58Y-67.666
X141.58Y-68.682
X142.596Y-67.666
X142.596Y-68.631
X142.65Y-118.05
X142.65Y-119.55
X142.675Y-115.0
X142.675Y-116.475
X142.697Y-71.73
X143.891Y-92.38
X144.17Y-82.499
X144.17Y-83.668
X144.225Y-119.55
X144.25Y-118.025
X144.275Y-115.025
X144.275Y-116.5
X145.237Y-82.499
X145.288Y-83.668
X147.4Y-108.8
X147.889Y-83.764
X148.4Y-108.8
X149.325Y-136.175
X149.325Y-137.75
X149.325Y-139.475
X149.4Y-108.8
X149.667Y-83.103
X150.825Y-136.175
X150.85Y-137.775
X150.85Y-139.5
X150.988Y-110.383
X151.394Y-66.187
X152.375Y-137.8
X152.4Y-68.123
X152.4Y-136.2
X152.4Y-139.525
X152.55Y-83.025
X152.55Y-84.6
X152.55Y-86.325
X153.01Y-68.986
X153.85Y-137.8
X153.875Y-136.2
X153.875Y-139.525
X154.05Y-83.025
X154.075Y-84.625
X154.075Y-86.35
X154.686Y-77.419
X154.686Y-78.384
X155.092Y-56.693
X155.092Y-57.658
X155.6Y-84.65
X155.625Y-83.05
X155.625Y-86.375
X155.725Y-103.525
X155.725Y-105.0
X155.75Y-101.975
X155.775Y-100.45
X155.804Y-77.419
X155.804Y-78.384
X156.007Y-56.693
X156.007Y-57.658
X157.075Y-84.65
X157.1Y-83.05
X157.1Y-86.375
X157.185Y-66.187
X157.45Y-103.5
X157.45Y-104.975
X157.475Y-101.975
X157.48Y-68.123
X157.5Y-100.45
X157.709Y-61.747
X158.09Y-68.885
X158.648Y-71.679
X158.648Y-72.644
X159.05Y-103.525
X159.05Y-105.0
X159.075Y-100.45
X159.075Y-101.95
X160.956Y-82.15
X161.2Y-61.8
X161.493Y-66.65
X162.204Y-110.795
X162.204Y-111.912
X162.204Y-113.081
X162.408Y-67.869
X162.763Y-66.65
X163.688Y-61.0
X163.779Y-67.869
X164.2Y-102.0
X164.2Y-103.0
X164.293Y-70.302
X165.2Y-102.0
X165.2Y-103.0
X165.964Y-59.08
X167.025Y-78.6
X167.081Y-77.267
X167.2Y-83.025
X167.2Y-84.6
X167.2Y-86.325
X167.549Y-61.0
X167.648Y-99.154
X167.968Y-125.168
X168.0Y-68.8
X168.0Y-124.2
X168.0Y-140.2
X168.0Y-141.2
X168.097Y-103.988
X168.453Y-77.318
X168.55Y-78.625
X168.7Y-83.025
X168.725Y-84.625
X168.725Y-86.35
X168.91Y-71.628
X168.91Y-72.542
X169.0Y-124.2
X169.0Y-125.2
X169.0Y-140.2
X169.0Y-141.2
X169.824Y-71.628
X169.824Y-72.492
X170.0Y-124.2
X170.0Y-125.2
X170.0Y-140.2
X170.0Y-141.2
X170.075Y-78.65
X170.078Y-77.368
X170.25Y-84.65
X170.275Y-83.05
X170.275Y-86.375
X171.247Y-105.461
X171.55Y-78.65
X171.602Y-77.368
X171.704Y-65.126
X171.704Y-66.192
X171.725Y-84.65
X171.75Y-83.05
X171.75Y-86.375
X171.997Y-59.425
X172.212Y-110.236
X172.263Y-111.354
X172.263Y-112.573
X172.72Y-65.126
X172.73Y-101.336
X172.771Y-66.192
X173.838Y-65.126
X173.838Y-66.192
X175.0Y-61.0
X176.124Y-71.526
X176.124Y-72.441
X176.428Y-94.183
X176.428Y-95.25
X177.14Y-71.526
X177.14Y-72.441
X177.597Y-94.183
X177.597Y-95.199
X178.765Y-94.183
X178.765Y-95.199
X179.2Y-58.0
X179.35Y-77.1
X179.35Y-78.675
X180.0Y-57.2
X180.086Y-58.064
X180.85Y-77.1
X180.875Y-78.7
X182.093Y-97.714
X182.22Y-123.952
X182.27Y-124.866
X182.4Y-78.725
X182.425Y-77.125
X183.236Y-123.952
X183.286Y-124.866
X183.875Y-78.725
X183.9Y-77.125
X183.947Y-81.026
X184.252Y-123.952
X184.252Y-124.866
X184.607Y-70.358
X185.522Y-76.048
X186.852Y-79.903
X187.2Y-115.8
X187.2Y-116.8
X187.208Y-74.975
X187.554Y-71.526
X187.554Y-72.492
X188.2Y-115.8
X188.2Y-116.8
X188.519Y-71.526
X188.519Y-72.492
X189.2Y-115.8
X189.2Y-116.8
X189.95Y-103.625
X189.975Y-102.025
X189.975Y-105.35
X191.425Y-103.625
X191.45Y-102.025
X192.532Y-60.046
X192.888Y-102.057
X194.433Y-61.955
X194.437Y-81.407
X194.437Y-82.55
X195.4Y-59.8
X195.4Y-60.8
X195.453Y-82.55
X196.4Y-59.8
X196.4Y-60.8
X196.725Y-94.375
X196.725Y-95.85
X196.75Y-92.825
X196.775Y-91.3
X197.358Y-59.792
X197.358Y-60.808
X197.663Y-130.658
X197.714Y-129.642
X198.45Y-94.35
X198.45Y-95.825
X198.475Y-92.825
X198.5Y-91.3
X198.78Y-129.642
X198.78Y-130.658
X199.847Y-129.642
X199.847Y-130.607
X200.05Y-94.375
X200.05Y-95.85
X200.075Y-91.3
X200.075Y-92.8
T2
X179.534Y-136.212
X179.534Y-138.712
T3
X106.476Y-56.781
X108.976Y-56.781
X109.465Y-93.405
X109.465Y-95.905
X109.465Y-98.405
X111.476Y-56.781
X134.516Y-57.035
X137.016Y-57.035
X139.516Y-57.035
X142.016Y-57.035
X144.516Y-57.035
X147.016Y-57.035
X149.516Y-57.035
X152.016Y-57.035
X158.265Y-56.997
X160.765Y-56.997
X163.265Y-56.997
X165.765Y-56.997
X168.265Y-56.997
X170.765Y-56.997
X173.265Y-56.997
X175.765Y-56.997
X182.014Y-57.035
X184.514Y-57.035
X187.014Y-57.035
X189.514Y-57.035
X192.014Y-57.035
X194.514Y-57.035
X197.014Y-57.035
X197.257Y-64.07
X197.257Y-66.57
X197.257Y-69.07
X197.257Y-71.57
X197.257Y-74.07
X197.257Y-76.57
X197.257Y-79.07
X197.257Y-81.57
X197.257Y-84.07
X199.514Y-57.035
T4
X126.096Y-120.543
X128.128Y-108.91
X132.446Y-114.701
X142.532Y-96.456
X143.154Y-105.308
X144.958Y-101.93
X149.718Y-121.407
X149.948Y-125.396
X153.348Y-125.138
X164.186Y-94.279
X169.016Y-93.37
X169.834Y-119.527
X171.612Y-99.613
X175.016Y-104.917
X175.616Y-107.95
X182.811Y-99.611
X187.035Y-88.864
T5
X116.596Y-60.402
X119.136Y-60.402
X121.676Y-60.402
X124.216Y-60.402
X126.756Y-60.402
X129.296Y-60.402
X192.206Y-89.321
X192.206Y-91.861
X192.206Y-94.401
X192.206Y-96.941
X192.206Y-99.481
T6
X117.124Y-100.065
X117.124Y-105.145
X123.22Y-101.405
X123.22Y-106.485
X130.332Y-101.405
X130.332Y-106.485
X135.078Y-105.252
X137.789Y-112.263
X140.158Y-105.252
X142.869Y-112.263
X154.452Y-112.669
X159.532Y-112.669
X166.146Y-108.009
X166.146Y-113.089
X179.166Y-120.63
X179.188Y-129.52
X184.246Y-120.63
X184.268Y-129.52
X187.157Y-137.409
X192.237Y-137.409
T7
X118.78Y-89.809
X118.78Y-94.178
X123.86Y-89.809
X123.86Y-94.178
X133.512Y-94.178
X133.553Y-90.322
X138.592Y-94.178
X138.633Y-90.322
X187.614Y-125.115
X189.514Y-130.633
X190.022Y-119.333
X192.694Y-125.115
X194.594Y-130.633
X195.102Y-119.333
T8
X115.834Y-128.163
X115.834Y-140.363
X116.075Y-111.375
X116.075Y-123.575
X131.426Y-128.976
X143.626Y-128.976
X161.19Y-129.042
X173.39Y-129.042
T0
M30
