%TF.GenerationSoftware,KiCad,Pcbnew,(6.0.4)*%
%TF.CreationDate,2022-05-20T17:10:54-05:00*%
%TF.ProjectId,Easyrun,45617379-7275-46e2-9e6b-696361645f70,rev?*%
%TF.SameCoordinates,Original*%
%TF.FileFunction,Paste,Top*%
%TF.FilePolarity,Positive*%
%FSLAX46Y46*%
G04 Gerber Fmt 4.6, Leading zero omitted, Abs format (unit mm)*
G04 Created by KiCad (PCBNEW (6.0.4)) date 2022-05-20 17:10:54*
%MOMM*%
%LPD*%
G01*
G04 APERTURE LIST*
G04 Aperture macros list*
%AMRoundRect*
0 Rectangle with rounded corners*
0 $1 Rounding radius*
0 $2 $3 $4 $5 $6 $7 $8 $9 X,Y pos of 4 corners*
0 Add a 4 corners polygon primitive as box body*
4,1,4,$2,$3,$4,$5,$6,$7,$8,$9,$2,$3,0*
0 Add four circle primitives for the rounded corners*
1,1,$1+$1,$2,$3*
1,1,$1+$1,$4,$5*
1,1,$1+$1,$6,$7*
1,1,$1+$1,$8,$9*
0 Add four rect primitives between the rounded corners*
20,1,$1+$1,$2,$3,$4,$5,0*
20,1,$1+$1,$4,$5,$6,$7,0*
20,1,$1+$1,$6,$7,$8,$9,0*
20,1,$1+$1,$8,$9,$2,$3,0*%
G04 Aperture macros list end*
%ADD10C,0.010000*%
%ADD11RoundRect,0.250000X-0.400000X-1.450000X0.400000X-1.450000X0.400000X1.450000X-0.400000X1.450000X0*%
%ADD12RoundRect,0.250000X-0.475000X0.337500X-0.475000X-0.337500X0.475000X-0.337500X0.475000X0.337500X0*%
%ADD13RoundRect,0.250000X-0.337500X-0.475000X0.337500X-0.475000X0.337500X0.475000X-0.337500X0.475000X0*%
%ADD14RoundRect,0.250000X0.337500X0.475000X-0.337500X0.475000X-0.337500X-0.475000X0.337500X-0.475000X0*%
%ADD15RoundRect,0.250000X-0.350000X-0.450000X0.350000X-0.450000X0.350000X0.450000X-0.350000X0.450000X0*%
%ADD16RoundRect,0.250000X-1.025000X0.875000X-1.025000X-0.875000X1.025000X-0.875000X1.025000X0.875000X0*%
%ADD17RoundRect,0.250000X0.475000X-0.337500X0.475000X0.337500X-0.475000X0.337500X-0.475000X-0.337500X0*%
%ADD18RoundRect,0.250000X0.450000X-0.350000X0.450000X0.350000X-0.450000X0.350000X-0.450000X-0.350000X0*%
%ADD19RoundRect,0.250000X-0.450000X0.350000X-0.450000X-0.350000X0.450000X-0.350000X0.450000X0.350000X0*%
%ADD20RoundRect,0.250000X1.500000X0.550000X-1.500000X0.550000X-1.500000X-0.550000X1.500000X-0.550000X0*%
%ADD21RoundRect,0.042000X0.943000X0.258000X-0.943000X0.258000X-0.943000X-0.258000X0.943000X-0.258000X0*%
%ADD22RoundRect,0.150000X-0.825000X-0.150000X0.825000X-0.150000X0.825000X0.150000X-0.825000X0.150000X0*%
%ADD23RoundRect,0.250000X-0.325000X-0.450000X0.325000X-0.450000X0.325000X0.450000X-0.325000X0.450000X0*%
%ADD24RoundRect,0.250000X-1.500000X-0.550000X1.500000X-0.550000X1.500000X0.550000X-1.500000X0.550000X0*%
%ADD25RoundRect,0.250000X-0.450000X0.325000X-0.450000X-0.325000X0.450000X-0.325000X0.450000X0.325000X0*%
%ADD26R,0.900000X2.000000*%
%ADD27R,2.000000X0.900000*%
%ADD28R,5.000000X5.000000*%
%ADD29RoundRect,0.150000X0.587500X0.150000X-0.587500X0.150000X-0.587500X-0.150000X0.587500X-0.150000X0*%
%ADD30RoundRect,0.250000X0.325000X0.450000X-0.325000X0.450000X-0.325000X-0.450000X0.325000X-0.450000X0*%
%ADD31R,4.550000X5.250000*%
%ADD32R,4.600000X1.100000*%
%ADD33R,5.250000X4.550000*%
%ADD34R,1.100000X4.600000*%
%ADD35RoundRect,0.250000X0.350000X0.450000X-0.350000X0.450000X-0.350000X-0.450000X0.350000X-0.450000X0*%
%ADD36RoundRect,0.250000X1.025000X-0.875000X1.025000X0.875000X-1.025000X0.875000X-1.025000X-0.875000X0*%
G04 APERTURE END LIST*
%TO.C,U_ChargeControler1*%
G36*
X178152400Y-102313000D02*
G01*
X176862400Y-102313000D01*
X176862400Y-100673000D01*
X178152400Y-100673000D01*
X178152400Y-102313000D01*
G37*
D10*
X178152400Y-102313000D02*
X176862400Y-102313000D01*
X176862400Y-100673000D01*
X178152400Y-100673000D01*
X178152400Y-102313000D01*
%TD*%
D11*
%TO.C,FB1*%
X195549400Y-125115000D03*
X199999400Y-125115000D03*
%TD*%
D12*
%TO.C,C1*%
X134640000Y-81445000D03*
X134640000Y-83520000D03*
%TD*%
D13*
%TO.C,CB4*%
X141720500Y-94381000D03*
X143795500Y-94381000D03*
%TD*%
D14*
%TO.C,CB1*%
X112102500Y-87145000D03*
X110027500Y-87145000D03*
%TD*%
D15*
%TO.C,Ra1*%
X195352000Y-105150600D03*
X197352000Y-105150600D03*
%TD*%
D16*
%TO.C,CBy3*%
X148244400Y-111145400D03*
X148244400Y-117545400D03*
%TD*%
D17*
%TO.C,C3*%
X134565000Y-69032500D03*
X134565000Y-66957500D03*
%TD*%
D18*
%TO.C,RI2C1*%
X185684000Y-96498600D03*
X185684000Y-94498600D03*
%TD*%
D13*
%TO.C,CB2*%
X126683700Y-94279400D03*
X128758700Y-94279400D03*
%TD*%
D18*
%TO.C,R6*%
X147840000Y-81720000D03*
X147840000Y-79720000D03*
%TD*%
D19*
%TO.C,R_RED1*%
X170799600Y-101763000D03*
X170799600Y-103763000D03*
%TD*%
%TO.C,R5*%
X147990000Y-65270000D03*
X147990000Y-67270000D03*
%TD*%
D20*
%TO.C,CBat1*%
X185742400Y-83713000D03*
X180342400Y-83713000D03*
%TD*%
D21*
%TO.C,U_ChargeControler1*%
X179982400Y-103398000D03*
X179982400Y-102128000D03*
X179982400Y-100858000D03*
X179982400Y-99588000D03*
X175032400Y-99588000D03*
X175032400Y-100858000D03*
X175032400Y-102128000D03*
X175032400Y-103398000D03*
%TD*%
D22*
%TO.C,U_555*%
X189446000Y-107188600D03*
X189446000Y-108458600D03*
X189446000Y-109728600D03*
X189446000Y-110998600D03*
X194396000Y-110998600D03*
X194396000Y-109728600D03*
X194396000Y-108458600D03*
X194396000Y-107188600D03*
%TD*%
D23*
%TO.C,D_RED1*%
X170485800Y-97886200D03*
X172535800Y-97886200D03*
%TD*%
D24*
%TO.C,CByBa1*%
X176227600Y-112821400D03*
X181627600Y-112821400D03*
%TD*%
D25*
%TO.C,L_p1*%
X134615000Y-71820000D03*
X134615000Y-73870000D03*
%TD*%
D19*
%TO.C,R_Prog10*%
X186994800Y-102124000D03*
X186994800Y-104124000D03*
%TD*%
D26*
%TO.C,U1*%
X109966600Y-83221400D03*
X111236600Y-83221400D03*
X112506600Y-83221400D03*
X113776600Y-83221400D03*
X115046600Y-83221400D03*
X116316600Y-83221400D03*
X117586600Y-83221400D03*
X118856600Y-83221400D03*
X120126600Y-83221400D03*
X121396600Y-83221400D03*
X122666600Y-83221400D03*
X123936600Y-83221400D03*
X125206600Y-83221400D03*
X126476600Y-83221400D03*
D27*
X127476600Y-80436400D03*
X127476600Y-79166400D03*
X127476600Y-77896400D03*
X127476600Y-76626400D03*
X127476600Y-75356400D03*
X127476600Y-74086400D03*
X127476600Y-72816400D03*
X127476600Y-71546400D03*
X127476600Y-70276400D03*
X127476600Y-69006400D03*
D26*
X126476600Y-66221400D03*
X125206600Y-66221400D03*
X123936600Y-66221400D03*
X122666600Y-66221400D03*
X121396600Y-66221400D03*
X120126600Y-66221400D03*
X118856600Y-66221400D03*
X117586600Y-66221400D03*
X116316600Y-66221400D03*
X115046600Y-66221400D03*
X113776600Y-66221400D03*
X112506600Y-66221400D03*
X111236600Y-66221400D03*
X109966600Y-66221400D03*
D28*
X117466600Y-75721400D03*
%TD*%
D29*
%TO.C,QBoo1*%
X138971100Y-100360200D03*
X138971100Y-98460200D03*
X137096100Y-99410200D03*
%TD*%
D14*
%TO.C,C_cv1*%
X194087500Y-113532600D03*
X192012500Y-113532600D03*
%TD*%
D30*
%TO.C,D_GREEN1*%
X176549000Y-97276600D03*
X174499000Y-97276600D03*
%TD*%
D31*
%TO.C,UB3v3*%
X155200000Y-106300000D03*
X160050000Y-100750000D03*
X155200000Y-100750000D03*
X160050000Y-106300000D03*
D32*
X148475000Y-100125000D03*
X148475000Y-101825000D03*
X148475000Y-103525000D03*
X148475000Y-105225000D03*
X148475000Y-106925000D03*
%TD*%
D18*
%TO.C,RI2C2*%
X189087600Y-96498600D03*
X189087600Y-94498600D03*
%TD*%
D19*
%TO.C,R4*%
X151790000Y-72895000D03*
X151790000Y-74895000D03*
%TD*%
%TO.C,R_p1*%
X134565000Y-76320000D03*
X134565000Y-78320000D03*
%TD*%
D12*
%TO.C,Cby2*%
X197368000Y-111733100D03*
X197368000Y-113808100D03*
%TD*%
D15*
%TO.C,R_GREEN1*%
X178486400Y-97276600D03*
X180486400Y-97276600D03*
%TD*%
D33*
%TO.C,UB5v0*%
X154423000Y-140465400D03*
X148873000Y-140465400D03*
X154423000Y-135615400D03*
X148873000Y-135615400D03*
D34*
X155048000Y-128890400D03*
X153348000Y-128890400D03*
X151648000Y-128890400D03*
X149948000Y-128890400D03*
X148248000Y-128890400D03*
%TD*%
D18*
%TO.C,Ro1*%
X185938000Y-109452600D03*
X185938000Y-107452600D03*
%TD*%
D17*
%TO.C,C_by1*%
X185938000Y-113554100D03*
X185938000Y-111479100D03*
%TD*%
D19*
%TO.C,RMISO1*%
X147890000Y-69795000D03*
X147890000Y-71795000D03*
%TD*%
D15*
%TO.C,RBtn2*%
X143700000Y-90075000D03*
X145700000Y-90075000D03*
%TD*%
D35*
%TO.C,RBtn1*%
X129184400Y-90576400D03*
X127184400Y-90576400D03*
%TD*%
D19*
%TO.C,R1*%
X147940000Y-75620000D03*
X147940000Y-77620000D03*
%TD*%
%TO.C,Rb1*%
X197317200Y-107503400D03*
X197317200Y-109503400D03*
%TD*%
D36*
%TO.C,CBy5*%
X156728000Y-124251000D03*
X156728000Y-117851000D03*
%TD*%
M02*
