%TF.GenerationSoftware,KiCad,Pcbnew,6.0.5-a6ca702e91~116~ubuntu20.04.1*%
%TF.CreationDate,2022-05-20T12:06:46-05:00*%
%TF.ProjectId,Easyrun,45617379-7275-46e2-9e6b-696361645f70,rev?*%
%TF.SameCoordinates,Original*%
%TF.FileFunction,Soldermask,Top*%
%TF.FilePolarity,Negative*%
%FSLAX46Y46*%
G04 Gerber Fmt 4.6, Leading zero omitted, Abs format (unit mm)*
G04 Created by KiCad (PCBNEW 6.0.5-a6ca702e91~116~ubuntu20.04.1) date 2022-05-20 12:06:46*
%MOMM*%
%LPD*%
G01*
G04 APERTURE LIST*
G04 Aperture macros list*
%AMRoundRect*
0 Rectangle with rounded corners*
0 $1 Rounding radius*
0 $2 $3 $4 $5 $6 $7 $8 $9 X,Y pos of 4 corners*
0 Add a 4 corners polygon primitive as box body*
4,1,4,$2,$3,$4,$5,$6,$7,$8,$9,$2,$3,0*
0 Add four circle primitives for the rounded corners*
1,1,$1+$1,$2,$3*
1,1,$1+$1,$4,$5*
1,1,$1+$1,$6,$7*
1,1,$1+$1,$8,$9*
0 Add four rect primitives between the rounded corners*
20,1,$1+$1,$2,$3,$4,$5,0*
20,1,$1+$1,$4,$5,$6,$7,0*
20,1,$1+$1,$6,$7,$8,$9,0*
20,1,$1+$1,$8,$9,$2,$3,0*%
G04 Aperture macros list end*
%ADD10RoundRect,0.250000X-0.600000X-0.725000X0.600000X-0.725000X0.600000X0.725000X-0.600000X0.725000X0*%
%ADD11O,1.700000X1.950000*%
%ADD12RoundRect,0.250000X-0.400000X-1.450000X0.400000X-1.450000X0.400000X1.450000X-0.400000X1.450000X0*%
%ADD13R,2.600000X2.600000*%
%ADD14O,2.600000X2.600000*%
%ADD15RoundRect,0.250000X-0.475000X0.337500X-0.475000X-0.337500X0.475000X-0.337500X0.475000X0.337500X0*%
%ADD16C,3.200000*%
%ADD17RoundRect,0.250000X-0.337500X-0.475000X0.337500X-0.475000X0.337500X0.475000X-0.337500X0.475000X0*%
%ADD18RoundRect,0.250000X0.337500X0.475000X-0.337500X0.475000X-0.337500X-0.475000X0.337500X-0.475000X0*%
%ADD19RoundRect,0.250000X-0.350000X-0.450000X0.350000X-0.450000X0.350000X0.450000X-0.350000X0.450000X0*%
%ADD20RoundRect,0.250000X-1.025000X0.875000X-1.025000X-0.875000X1.025000X-0.875000X1.025000X0.875000X0*%
%ADD21RoundRect,0.250000X0.475000X-0.337500X0.475000X0.337500X-0.475000X0.337500X-0.475000X-0.337500X0*%
%ADD22C,2.145000*%
%ADD23C,3.000000*%
%ADD24RoundRect,0.250000X0.450000X-0.350000X0.450000X0.350000X-0.450000X0.350000X-0.450000X-0.350000X0*%
%ADD25RoundRect,0.250000X-0.450000X0.350000X-0.450000X-0.350000X0.450000X-0.350000X0.450000X0.350000X0*%
%ADD26RoundRect,0.250000X-0.725000X0.600000X-0.725000X-0.600000X0.725000X-0.600000X0.725000X0.600000X0*%
%ADD27O,1.950000X1.700000*%
%ADD28RoundRect,0.250000X1.500000X0.550000X-1.500000X0.550000X-1.500000X-0.550000X1.500000X-0.550000X0*%
%ADD29RoundRect,0.042000X0.943000X0.258000X-0.943000X0.258000X-0.943000X-0.258000X0.943000X-0.258000X0*%
%ADD30R,2.413000X3.302000*%
%ADD31RoundRect,0.150000X-0.825000X-0.150000X0.825000X-0.150000X0.825000X0.150000X-0.825000X0.150000X0*%
%ADD32RoundRect,0.250000X-0.325000X-0.450000X0.325000X-0.450000X0.325000X0.450000X-0.325000X0.450000X0*%
%ADD33RoundRect,0.250000X-1.500000X-0.550000X1.500000X-0.550000X1.500000X0.550000X-1.500000X0.550000X0*%
%ADD34RoundRect,0.250000X-0.450000X0.325000X-0.450000X-0.325000X0.450000X-0.325000X0.450000X0.325000X0*%
%ADD35R,0.900000X2.000000*%
%ADD36R,2.000000X0.900000*%
%ADD37R,5.000000X5.000000*%
%ADD38RoundRect,0.150000X0.587500X0.150000X-0.587500X0.150000X-0.587500X-0.150000X0.587500X-0.150000X0*%
%ADD39RoundRect,0.250000X0.325000X0.450000X-0.325000X0.450000X-0.325000X-0.450000X0.325000X-0.450000X0*%
%ADD40R,4.600000X1.100000*%
%ADD41R,9.400000X10.800000*%
%ADD42R,1.600000X1.600000*%
%ADD43C,1.600000*%
%ADD44R,1.100000X4.600000*%
%ADD45R,10.800000X9.400000*%
%ADD46RoundRect,0.250000X0.725000X-0.600000X0.725000X0.600000X-0.725000X0.600000X-0.725000X-0.600000X0*%
%ADD47R,1.700000X1.700000*%
%ADD48O,1.700000X1.700000*%
%ADD49RoundRect,0.250000X0.350000X0.450000X-0.350000X0.450000X-0.350000X-0.450000X0.350000X-0.450000X0*%
%ADD50RoundRect,0.250000X1.025000X-0.875000X1.025000X0.875000X-1.025000X0.875000X-1.025000X-0.875000X0*%
G04 APERTURE END LIST*
D10*
%TO.C,J_Lector_2*%
X182014000Y-57035500D03*
D11*
X184514000Y-57035500D03*
X187014000Y-57035500D03*
X189514000Y-57035500D03*
X192014000Y-57035500D03*
X194514000Y-57035500D03*
X197014000Y-57035500D03*
X199514000Y-57035500D03*
%TD*%
D12*
%TO.C,FB1*%
X195549400Y-125115000D03*
X199999400Y-125115000D03*
%TD*%
D13*
%TO.C,D1*%
X140157600Y-105252200D03*
D14*
X135077600Y-105252200D03*
%TD*%
D15*
%TO.C,C1*%
X134640000Y-81445000D03*
X134640000Y-83520000D03*
%TD*%
D16*
%TO.C,REF\u002A\u002A*%
X198130000Y-137002200D03*
%TD*%
D17*
%TO.C,CB4*%
X141720500Y-94381000D03*
X143795500Y-94381000D03*
%TD*%
D18*
%TO.C,CB1*%
X112102500Y-87145000D03*
X110027500Y-87145000D03*
%TD*%
D10*
%TO.C,J_Lector_1*%
X158265000Y-56997500D03*
D11*
X160765000Y-56997500D03*
X163265000Y-56997500D03*
X165765000Y-56997500D03*
X168265000Y-56997500D03*
X170765000Y-56997500D03*
X173265000Y-56997500D03*
X175765000Y-56997500D03*
%TD*%
D13*
%TO.C,DFly1*%
X187157200Y-137408600D03*
D14*
X192237200Y-137408600D03*
%TD*%
D19*
%TO.C,Ra1*%
X195352000Y-105150600D03*
X197352000Y-105150600D03*
%TD*%
D20*
%TO.C,CBy3*%
X148244400Y-111145400D03*
X148244400Y-117545400D03*
%TD*%
D21*
%TO.C,C3*%
X134565000Y-69032500D03*
X134565000Y-66957500D03*
%TD*%
D22*
%TO.C,J_gnd1*%
X192694400Y-125115000D03*
X187614400Y-125115000D03*
%TD*%
D23*
%TO.C,LB3*%
X116075000Y-111375000D03*
X116075000Y-123575000D03*
%TD*%
%TO.C,Lb1*%
X115834000Y-128163000D03*
X115834000Y-140363000D03*
%TD*%
D13*
%TO.C,D3*%
X123220000Y-101405000D03*
D14*
X123220000Y-106485000D03*
%TD*%
D10*
%TO.C,J_Lector_3*%
X134516000Y-57035500D03*
D11*
X137016000Y-57035500D03*
X139516000Y-57035500D03*
X142016000Y-57035500D03*
X144516000Y-57035500D03*
X147016000Y-57035500D03*
X149516000Y-57035500D03*
X152016000Y-57035500D03*
%TD*%
D24*
%TO.C,RI2C1*%
X185684000Y-96498600D03*
X185684000Y-94498600D03*
%TD*%
D17*
%TO.C,CB2*%
X126683700Y-94279400D03*
X128758700Y-94279400D03*
%TD*%
D22*
%TO.C,B1_1*%
X118780400Y-89809000D03*
X123860400Y-89809000D03*
%TD*%
D24*
%TO.C,R6*%
X147840000Y-81720000D03*
X147840000Y-79720000D03*
%TD*%
D25*
%TO.C,R_RED1*%
X170799600Y-101763000D03*
X170799600Y-103763000D03*
%TD*%
D26*
%TO.C,J_Display1*%
X197257500Y-64070000D03*
D27*
X197257500Y-66570000D03*
X197257500Y-69070000D03*
X197257500Y-71570000D03*
X197257500Y-74070000D03*
X197257500Y-76570000D03*
X197257500Y-79070000D03*
X197257500Y-81570000D03*
X197257500Y-84070000D03*
%TD*%
D25*
%TO.C,R5*%
X147990000Y-65270000D03*
X147990000Y-67270000D03*
%TD*%
D28*
%TO.C,CBat1*%
X185742400Y-83713000D03*
X180342400Y-83713000D03*
%TD*%
D29*
%TO.C,U_ChargeControler1*%
X179982400Y-103398000D03*
X179982400Y-102128000D03*
X179982400Y-100858000D03*
X179982400Y-99588000D03*
X175032400Y-99588000D03*
X175032400Y-100858000D03*
X175032400Y-102128000D03*
X175032400Y-103398000D03*
D30*
X177507400Y-101493000D03*
%TD*%
D31*
%TO.C,U_555*%
X189446000Y-107188600D03*
X189446000Y-108458600D03*
X189446000Y-109728600D03*
X189446000Y-110998600D03*
X194396000Y-110998600D03*
X194396000Y-109728600D03*
X194396000Y-108458600D03*
X194396000Y-107188600D03*
%TD*%
D32*
%TO.C,D_RED1*%
X170485800Y-97886200D03*
X172535800Y-97886200D03*
%TD*%
D33*
%TO.C,CByBa1*%
X176227600Y-112821400D03*
X181627600Y-112821400D03*
%TD*%
D22*
%TO.C,J_Tap_1*%
X194594000Y-130633000D03*
X189514000Y-130633000D03*
%TD*%
D34*
%TO.C,L_p1*%
X134615000Y-71820000D03*
X134615000Y-73870000D03*
%TD*%
D16*
%TO.C,REF\u002A\u002A*%
X177962400Y-63600000D03*
%TD*%
D25*
%TO.C,R_Prog10*%
X186994800Y-102124000D03*
X186994800Y-104124000D03*
%TD*%
D22*
%TO.C,B2_1*%
X133512400Y-89656600D03*
X138592400Y-89656600D03*
%TD*%
%TO.C,B2*%
X133512400Y-94177800D03*
X138592400Y-94177800D03*
%TD*%
D35*
%TO.C,U1*%
X109966600Y-83221400D03*
X111236600Y-83221400D03*
X112506600Y-83221400D03*
X113776600Y-83221400D03*
X115046600Y-83221400D03*
X116316600Y-83221400D03*
X117586600Y-83221400D03*
X118856600Y-83221400D03*
X120126600Y-83221400D03*
X121396600Y-83221400D03*
X122666600Y-83221400D03*
X123936600Y-83221400D03*
X125206600Y-83221400D03*
X126476600Y-83221400D03*
D36*
X127476600Y-80436400D03*
X127476600Y-79166400D03*
X127476600Y-77896400D03*
X127476600Y-76626400D03*
X127476600Y-75356400D03*
X127476600Y-74086400D03*
X127476600Y-72816400D03*
X127476600Y-71546400D03*
X127476600Y-70276400D03*
X127476600Y-69006400D03*
D35*
X126476600Y-66221400D03*
X125206600Y-66221400D03*
X123936600Y-66221400D03*
X122666600Y-66221400D03*
X121396600Y-66221400D03*
X120126600Y-66221400D03*
X118856600Y-66221400D03*
X117586600Y-66221400D03*
X116316600Y-66221400D03*
X115046600Y-66221400D03*
X113776600Y-66221400D03*
X112506600Y-66221400D03*
X111236600Y-66221400D03*
X109966600Y-66221400D03*
D37*
X117466600Y-75721400D03*
%TD*%
D38*
%TO.C,QBoo1*%
X138971100Y-100360200D03*
X138971100Y-98460200D03*
X137096100Y-99410200D03*
%TD*%
D13*
%TO.C,DBoo1*%
X117124000Y-105145000D03*
D14*
X117124000Y-100065000D03*
%TD*%
D18*
%TO.C,C_cv1*%
X194087500Y-113532600D03*
X192012500Y-113532600D03*
%TD*%
D13*
%TO.C,D2*%
X166146000Y-108009000D03*
D14*
X166146000Y-113089000D03*
%TD*%
D39*
%TO.C,D_GREEN1*%
X176549000Y-97276600D03*
X174499000Y-97276600D03*
%TD*%
D40*
%TO.C,UB3v3*%
X148475000Y-100125000D03*
X148475000Y-101825000D03*
D41*
X157625000Y-103525000D03*
D40*
X148475000Y-103525000D03*
X148475000Y-105225000D03*
X148475000Y-106925000D03*
%TD*%
D23*
%TO.C,LB5*%
X143625600Y-128975800D03*
X131425600Y-128975800D03*
%TD*%
D16*
%TO.C,REF\u002A\u002A*%
X106893200Y-105201400D03*
%TD*%
D42*
%TO.C,Crec1*%
X179534000Y-136211621D03*
D43*
X179534000Y-138711621D03*
%TD*%
D13*
%TO.C,D_S1*%
X179188000Y-129520000D03*
D14*
X184268000Y-129520000D03*
%TD*%
D24*
%TO.C,RI2C2*%
X189087600Y-96498600D03*
X189087600Y-94498600D03*
%TD*%
D25*
%TO.C,R4*%
X151790000Y-72895000D03*
X151790000Y-74895000D03*
%TD*%
%TO.C,R_p1*%
X134565000Y-76320000D03*
X134565000Y-78320000D03*
%TD*%
D22*
%TO.C,B1*%
X118780400Y-94177800D03*
X123860400Y-94177800D03*
%TD*%
D15*
%TO.C,Cby2*%
X197368000Y-111733100D03*
X197368000Y-113808100D03*
%TD*%
D19*
%TO.C,R_GREEN1*%
X178486400Y-97276600D03*
X180486400Y-97276600D03*
%TD*%
D44*
%TO.C,UB5v0*%
X155048000Y-128890400D03*
X153348000Y-128890400D03*
D45*
X151648000Y-138040400D03*
D44*
X151648000Y-128890400D03*
X149948000Y-128890400D03*
X148248000Y-128890400D03*
%TD*%
D24*
%TO.C,Ro1*%
X185938000Y-109452600D03*
X185938000Y-107452600D03*
%TD*%
D46*
%TO.C,J_M2*%
X109465000Y-98405000D03*
D27*
X109465000Y-95905000D03*
X109465000Y-93405000D03*
%TD*%
D21*
%TO.C,C_by1*%
X185938000Y-113554100D03*
X185938000Y-111479100D03*
%TD*%
D47*
%TO.C,J_I2C1*%
X192206000Y-99481000D03*
D48*
X192206000Y-96941000D03*
X192206000Y-94401000D03*
X192206000Y-91861000D03*
X192206000Y-89321000D03*
%TD*%
D25*
%TO.C,RMISO1*%
X147890000Y-69795000D03*
X147890000Y-71795000D03*
%TD*%
D10*
%TO.C,J_M1*%
X106476000Y-56781500D03*
D11*
X108976000Y-56781500D03*
X111476000Y-56781500D03*
%TD*%
D47*
%TO.C,J_prog1*%
X116596000Y-60402000D03*
D48*
X119136000Y-60402000D03*
X121676000Y-60402000D03*
X124216000Y-60402000D03*
X126756000Y-60402000D03*
X129296000Y-60402000D03*
%TD*%
D19*
%TO.C,RBtn2*%
X143700000Y-90075000D03*
X145700000Y-90075000D03*
%TD*%
D13*
%TO.C,DB3*%
X137789200Y-112262600D03*
D14*
X142869200Y-112262600D03*
%TD*%
D49*
%TO.C,RBtn1*%
X129000000Y-89800000D03*
X127000000Y-89800000D03*
%TD*%
D25*
%TO.C,R1*%
X147940000Y-75620000D03*
X147940000Y-77620000D03*
%TD*%
%TO.C,Rb1*%
X197317200Y-107503400D03*
X197317200Y-109503400D03*
%TD*%
D13*
%TO.C,DB5*%
X154451600Y-112669000D03*
D14*
X159531600Y-112669000D03*
%TD*%
D23*
%TO.C,Lrec1*%
X173390000Y-129042000D03*
X161190000Y-129042000D03*
%TD*%
D13*
%TO.C,D4*%
X130332000Y-101405000D03*
D14*
X130332000Y-106485000D03*
%TD*%
D50*
%TO.C,CBy5*%
X156728000Y-124251000D03*
X156728000Y-117851000D03*
%TD*%
D22*
%TO.C,J_Tap_2*%
X195102000Y-119333000D03*
X190022000Y-119333000D03*
%TD*%
D13*
%TO.C,D_S2*%
X179166000Y-120630000D03*
D14*
X184246000Y-120630000D03*
%TD*%
M02*
