%TF.GenerationSoftware,KiCad,Pcbnew,(6.0.4)*%
%TF.CreationDate,2022-05-20T17:10:54-05:00*%
%TF.ProjectId,Easyrun,45617379-7275-46e2-9e6b-696361645f70,rev?*%
%TF.SameCoordinates,Original*%
%TF.FileFunction,Legend,Top*%
%TF.FilePolarity,Positive*%
%FSLAX46Y46*%
G04 Gerber Fmt 4.6, Leading zero omitted, Abs format (unit mm)*
G04 Created by KiCad (PCBNEW (6.0.4)) date 2022-05-20 17:10:54*
%MOMM*%
%LPD*%
G01*
G04 APERTURE LIST*
G04 Aperture macros list*
%AMRoundRect*
0 Rectangle with rounded corners*
0 $1 Rounding radius*
0 $2 $3 $4 $5 $6 $7 $8 $9 X,Y pos of 4 corners*
0 Add a 4 corners polygon primitive as box body*
4,1,4,$2,$3,$4,$5,$6,$7,$8,$9,$2,$3,0*
0 Add four circle primitives for the rounded corners*
1,1,$1+$1,$2,$3*
1,1,$1+$1,$4,$5*
1,1,$1+$1,$6,$7*
1,1,$1+$1,$8,$9*
0 Add four rect primitives between the rounded corners*
20,1,$1+$1,$2,$3,$4,$5,0*
20,1,$1+$1,$4,$5,$6,$7,0*
20,1,$1+$1,$6,$7,$8,$9,0*
20,1,$1+$1,$8,$9,$2,$3,0*%
G04 Aperture macros list end*
%ADD10C,0.150000*%
%ADD11C,0.125000*%
%ADD12C,0.120000*%
%ADD13C,0.127000*%
%ADD14C,0.200000*%
%ADD15RoundRect,0.250000X-0.600000X-0.725000X0.600000X-0.725000X0.600000X0.725000X-0.600000X0.725000X0*%
%ADD16O,1.700000X1.950000*%
%ADD17RoundRect,0.250000X-0.400000X-1.450000X0.400000X-1.450000X0.400000X1.450000X-0.400000X1.450000X0*%
%ADD18R,2.600000X2.600000*%
%ADD19O,2.600000X2.600000*%
%ADD20RoundRect,0.250000X-0.475000X0.337500X-0.475000X-0.337500X0.475000X-0.337500X0.475000X0.337500X0*%
%ADD21C,3.200000*%
%ADD22RoundRect,0.250000X-0.337500X-0.475000X0.337500X-0.475000X0.337500X0.475000X-0.337500X0.475000X0*%
%ADD23RoundRect,0.250000X0.337500X0.475000X-0.337500X0.475000X-0.337500X-0.475000X0.337500X-0.475000X0*%
%ADD24RoundRect,0.250000X-0.350000X-0.450000X0.350000X-0.450000X0.350000X0.450000X-0.350000X0.450000X0*%
%ADD25RoundRect,0.250000X-1.025000X0.875000X-1.025000X-0.875000X1.025000X-0.875000X1.025000X0.875000X0*%
%ADD26RoundRect,0.250000X0.475000X-0.337500X0.475000X0.337500X-0.475000X0.337500X-0.475000X-0.337500X0*%
%ADD27C,2.145000*%
%ADD28C,3.000000*%
%ADD29RoundRect,0.250000X0.450000X-0.350000X0.450000X0.350000X-0.450000X0.350000X-0.450000X-0.350000X0*%
%ADD30RoundRect,0.250000X-0.450000X0.350000X-0.450000X-0.350000X0.450000X-0.350000X0.450000X0.350000X0*%
%ADD31RoundRect,0.250000X-0.725000X0.600000X-0.725000X-0.600000X0.725000X-0.600000X0.725000X0.600000X0*%
%ADD32O,1.950000X1.700000*%
%ADD33RoundRect,0.250000X1.500000X0.550000X-1.500000X0.550000X-1.500000X-0.550000X1.500000X-0.550000X0*%
%ADD34RoundRect,0.042000X0.943000X0.258000X-0.943000X0.258000X-0.943000X-0.258000X0.943000X-0.258000X0*%
%ADD35R,2.413000X3.302000*%
%ADD36RoundRect,0.150000X-0.825000X-0.150000X0.825000X-0.150000X0.825000X0.150000X-0.825000X0.150000X0*%
%ADD37RoundRect,0.250000X-0.325000X-0.450000X0.325000X-0.450000X0.325000X0.450000X-0.325000X0.450000X0*%
%ADD38RoundRect,0.250000X-1.500000X-0.550000X1.500000X-0.550000X1.500000X0.550000X-1.500000X0.550000X0*%
%ADD39RoundRect,0.250000X-0.450000X0.325000X-0.450000X-0.325000X0.450000X-0.325000X0.450000X0.325000X0*%
%ADD40R,0.900000X2.000000*%
%ADD41R,2.000000X0.900000*%
%ADD42R,5.000000X5.000000*%
%ADD43RoundRect,0.150000X0.587500X0.150000X-0.587500X0.150000X-0.587500X-0.150000X0.587500X-0.150000X0*%
%ADD44RoundRect,0.250000X0.325000X0.450000X-0.325000X0.450000X-0.325000X-0.450000X0.325000X-0.450000X0*%
%ADD45R,4.600000X1.100000*%
%ADD46R,9.400000X10.800000*%
%ADD47R,1.600000X1.600000*%
%ADD48C,1.600000*%
%ADD49R,1.100000X4.600000*%
%ADD50R,10.800000X9.400000*%
%ADD51RoundRect,0.250000X0.725000X-0.600000X0.725000X0.600000X-0.725000X0.600000X-0.725000X-0.600000X0*%
%ADD52R,1.700000X1.700000*%
%ADD53O,1.700000X1.700000*%
%ADD54RoundRect,0.250000X0.350000X0.450000X-0.350000X0.450000X-0.350000X-0.450000X0.350000X-0.450000X0*%
%ADD55RoundRect,0.250000X1.025000X-0.875000X1.025000X0.875000X-1.025000X0.875000X-1.025000X-0.875000X0*%
G04 APERTURE END LIST*
D10*
%TO.C,J_Lector_2*%
X186394038Y-59797380D02*
X186394038Y-60511666D01*
X186346419Y-60654523D01*
X186251180Y-60749761D01*
X186108323Y-60797380D01*
X186013085Y-60797380D01*
X186632133Y-60892619D02*
X187394038Y-60892619D01*
X188108323Y-60797380D02*
X187632133Y-60797380D01*
X187632133Y-59797380D01*
X188822609Y-60749761D02*
X188727371Y-60797380D01*
X188536895Y-60797380D01*
X188441657Y-60749761D01*
X188394038Y-60654523D01*
X188394038Y-60273571D01*
X188441657Y-60178333D01*
X188536895Y-60130714D01*
X188727371Y-60130714D01*
X188822609Y-60178333D01*
X188870228Y-60273571D01*
X188870228Y-60368809D01*
X188394038Y-60464047D01*
X189727371Y-60749761D02*
X189632133Y-60797380D01*
X189441657Y-60797380D01*
X189346419Y-60749761D01*
X189298800Y-60702142D01*
X189251180Y-60606904D01*
X189251180Y-60321190D01*
X189298800Y-60225952D01*
X189346419Y-60178333D01*
X189441657Y-60130714D01*
X189632133Y-60130714D01*
X189727371Y-60178333D01*
X190013085Y-60130714D02*
X190394038Y-60130714D01*
X190155942Y-59797380D02*
X190155942Y-60654523D01*
X190203561Y-60749761D01*
X190298800Y-60797380D01*
X190394038Y-60797380D01*
X190870228Y-60797380D02*
X190774990Y-60749761D01*
X190727371Y-60702142D01*
X190679752Y-60606904D01*
X190679752Y-60321190D01*
X190727371Y-60225952D01*
X190774990Y-60178333D01*
X190870228Y-60130714D01*
X191013085Y-60130714D01*
X191108323Y-60178333D01*
X191155942Y-60225952D01*
X191203561Y-60321190D01*
X191203561Y-60606904D01*
X191155942Y-60702142D01*
X191108323Y-60749761D01*
X191013085Y-60797380D01*
X190870228Y-60797380D01*
X191632133Y-60797380D02*
X191632133Y-60130714D01*
X191632133Y-60321190D02*
X191679752Y-60225952D01*
X191727371Y-60178333D01*
X191822609Y-60130714D01*
X191917847Y-60130714D01*
X192013085Y-60892619D02*
X192774990Y-60892619D01*
X192965466Y-59892619D02*
X193013085Y-59845000D01*
X193108323Y-59797380D01*
X193346419Y-59797380D01*
X193441657Y-59845000D01*
X193489276Y-59892619D01*
X193536895Y-59987857D01*
X193536895Y-60083095D01*
X193489276Y-60225952D01*
X192917847Y-60797380D01*
X193536895Y-60797380D01*
%TO.C,FB1*%
X196941066Y-125043571D02*
X196607733Y-125043571D01*
X196607733Y-125567380D02*
X196607733Y-124567380D01*
X197083923Y-124567380D01*
X197798209Y-125043571D02*
X197941066Y-125091190D01*
X197988685Y-125138809D01*
X198036304Y-125234047D01*
X198036304Y-125376904D01*
X197988685Y-125472142D01*
X197941066Y-125519761D01*
X197845828Y-125567380D01*
X197464876Y-125567380D01*
X197464876Y-124567380D01*
X197798209Y-124567380D01*
X197893447Y-124615000D01*
X197941066Y-124662619D01*
X197988685Y-124757857D01*
X197988685Y-124853095D01*
X197941066Y-124948333D01*
X197893447Y-124995952D01*
X197798209Y-125043571D01*
X197464876Y-125043571D01*
X198988685Y-125567380D02*
X198417257Y-125567380D01*
X198702971Y-125567380D02*
X198702971Y-124567380D01*
X198607733Y-124710238D01*
X198512495Y-124805476D01*
X198417257Y-124853095D01*
%TO.C,D1*%
X135263504Y-107990580D02*
X135263504Y-106990580D01*
X135501600Y-106990580D01*
X135644457Y-107038200D01*
X135739695Y-107133438D01*
X135787314Y-107228676D01*
X135834933Y-107419152D01*
X135834933Y-107562009D01*
X135787314Y-107752485D01*
X135739695Y-107847723D01*
X135644457Y-107942961D01*
X135501600Y-107990580D01*
X135263504Y-107990580D01*
X136787314Y-107990580D02*
X136215885Y-107990580D01*
X136501600Y-107990580D02*
X136501600Y-106990580D01*
X136406361Y-107133438D01*
X136311123Y-107228676D01*
X136215885Y-107276295D01*
X134839504Y-103118866D02*
X135315695Y-103118866D01*
X134744266Y-103404580D02*
X135077600Y-102404580D01*
X135410933Y-103404580D01*
%TO.C,C1*%
X136677142Y-82649166D02*
X136724761Y-82696785D01*
X136772380Y-82839642D01*
X136772380Y-82934880D01*
X136724761Y-83077738D01*
X136629523Y-83172976D01*
X136534285Y-83220595D01*
X136343809Y-83268214D01*
X136200952Y-83268214D01*
X136010476Y-83220595D01*
X135915238Y-83172976D01*
X135820000Y-83077738D01*
X135772380Y-82934880D01*
X135772380Y-82839642D01*
X135820000Y-82696785D01*
X135867619Y-82649166D01*
X136772380Y-81696785D02*
X136772380Y-82268214D01*
X136772380Y-81982500D02*
X135772380Y-81982500D01*
X135915238Y-82077738D01*
X136010476Y-82172976D01*
X136058095Y-82268214D01*
%TO.C,CB4*%
X142091333Y-93058142D02*
X142043714Y-93105761D01*
X141900857Y-93153380D01*
X141805619Y-93153380D01*
X141662761Y-93105761D01*
X141567523Y-93010523D01*
X141519904Y-92915285D01*
X141472285Y-92724809D01*
X141472285Y-92581952D01*
X141519904Y-92391476D01*
X141567523Y-92296238D01*
X141662761Y-92201000D01*
X141805619Y-92153380D01*
X141900857Y-92153380D01*
X142043714Y-92201000D01*
X142091333Y-92248619D01*
X142853238Y-92629571D02*
X142996095Y-92677190D01*
X143043714Y-92724809D01*
X143091333Y-92820047D01*
X143091333Y-92962904D01*
X143043714Y-93058142D01*
X142996095Y-93105761D01*
X142900857Y-93153380D01*
X142519904Y-93153380D01*
X142519904Y-92153380D01*
X142853238Y-92153380D01*
X142948476Y-92201000D01*
X142996095Y-92248619D01*
X143043714Y-92343857D01*
X143043714Y-92439095D01*
X142996095Y-92534333D01*
X142948476Y-92581952D01*
X142853238Y-92629571D01*
X142519904Y-92629571D01*
X143948476Y-92486714D02*
X143948476Y-93153380D01*
X143710380Y-92105761D02*
X143472285Y-92820047D01*
X144091333Y-92820047D01*
%TO.C,CB1*%
X110398333Y-89182142D02*
X110350714Y-89229761D01*
X110207857Y-89277380D01*
X110112619Y-89277380D01*
X109969761Y-89229761D01*
X109874523Y-89134523D01*
X109826904Y-89039285D01*
X109779285Y-88848809D01*
X109779285Y-88705952D01*
X109826904Y-88515476D01*
X109874523Y-88420238D01*
X109969761Y-88325000D01*
X110112619Y-88277380D01*
X110207857Y-88277380D01*
X110350714Y-88325000D01*
X110398333Y-88372619D01*
X111160238Y-88753571D02*
X111303095Y-88801190D01*
X111350714Y-88848809D01*
X111398333Y-88944047D01*
X111398333Y-89086904D01*
X111350714Y-89182142D01*
X111303095Y-89229761D01*
X111207857Y-89277380D01*
X110826904Y-89277380D01*
X110826904Y-88277380D01*
X111160238Y-88277380D01*
X111255476Y-88325000D01*
X111303095Y-88372619D01*
X111350714Y-88467857D01*
X111350714Y-88563095D01*
X111303095Y-88658333D01*
X111255476Y-88705952D01*
X111160238Y-88753571D01*
X110826904Y-88753571D01*
X112350714Y-89277380D02*
X111779285Y-89277380D01*
X112065000Y-89277380D02*
X112065000Y-88277380D01*
X111969761Y-88420238D01*
X111874523Y-88515476D01*
X111779285Y-88563095D01*
%TO.C,J_Lector_1*%
X163676438Y-60513980D02*
X163676438Y-61228266D01*
X163628819Y-61371123D01*
X163533580Y-61466361D01*
X163390723Y-61513980D01*
X163295485Y-61513980D01*
X163914533Y-61609219D02*
X164676438Y-61609219D01*
X165390723Y-61513980D02*
X164914533Y-61513980D01*
X164914533Y-60513980D01*
X166105009Y-61466361D02*
X166009771Y-61513980D01*
X165819295Y-61513980D01*
X165724057Y-61466361D01*
X165676438Y-61371123D01*
X165676438Y-60990171D01*
X165724057Y-60894933D01*
X165819295Y-60847314D01*
X166009771Y-60847314D01*
X166105009Y-60894933D01*
X166152628Y-60990171D01*
X166152628Y-61085409D01*
X165676438Y-61180647D01*
X167009771Y-61466361D02*
X166914533Y-61513980D01*
X166724057Y-61513980D01*
X166628819Y-61466361D01*
X166581200Y-61418742D01*
X166533580Y-61323504D01*
X166533580Y-61037790D01*
X166581200Y-60942552D01*
X166628819Y-60894933D01*
X166724057Y-60847314D01*
X166914533Y-60847314D01*
X167009771Y-60894933D01*
X167295485Y-60847314D02*
X167676438Y-60847314D01*
X167438342Y-60513980D02*
X167438342Y-61371123D01*
X167485961Y-61466361D01*
X167581200Y-61513980D01*
X167676438Y-61513980D01*
X168152628Y-61513980D02*
X168057390Y-61466361D01*
X168009771Y-61418742D01*
X167962152Y-61323504D01*
X167962152Y-61037790D01*
X168009771Y-60942552D01*
X168057390Y-60894933D01*
X168152628Y-60847314D01*
X168295485Y-60847314D01*
X168390723Y-60894933D01*
X168438342Y-60942552D01*
X168485961Y-61037790D01*
X168485961Y-61323504D01*
X168438342Y-61418742D01*
X168390723Y-61466361D01*
X168295485Y-61513980D01*
X168152628Y-61513980D01*
X168914533Y-61513980D02*
X168914533Y-60847314D01*
X168914533Y-61037790D02*
X168962152Y-60942552D01*
X169009771Y-60894933D01*
X169105009Y-60847314D01*
X169200247Y-60847314D01*
X169295485Y-61609219D02*
X170057390Y-61609219D01*
X170819295Y-61513980D02*
X170247866Y-61513980D01*
X170533580Y-61513980D02*
X170533580Y-60513980D01*
X170438342Y-60656838D01*
X170343104Y-60752076D01*
X170247866Y-60799695D01*
%TO.C,DFly1*%
X184590476Y-141652380D02*
X184590476Y-140652380D01*
X184828571Y-140652380D01*
X184971428Y-140700000D01*
X185066666Y-140795238D01*
X185114285Y-140890476D01*
X185161904Y-141080952D01*
X185161904Y-141223809D01*
X185114285Y-141414285D01*
X185066666Y-141509523D01*
X184971428Y-141604761D01*
X184828571Y-141652380D01*
X184590476Y-141652380D01*
X185923809Y-141128571D02*
X185590476Y-141128571D01*
X185590476Y-141652380D02*
X185590476Y-140652380D01*
X186066666Y-140652380D01*
X186590476Y-141652380D02*
X186495238Y-141604761D01*
X186447619Y-141509523D01*
X186447619Y-140652380D01*
X186876190Y-140985714D02*
X187114285Y-141652380D01*
X187352380Y-140985714D02*
X187114285Y-141652380D01*
X187019047Y-141890476D01*
X186971428Y-141938095D01*
X186876190Y-141985714D01*
X188257142Y-141652380D02*
X187685714Y-141652380D01*
X187971428Y-141652380D02*
X187971428Y-140652380D01*
X187876190Y-140795238D01*
X187780952Y-140890476D01*
X187685714Y-140938095D01*
X192202304Y-139810466D02*
X192678495Y-139810466D01*
X192107066Y-140096180D02*
X192440400Y-139096180D01*
X192773733Y-140096180D01*
%TO.C,Ra1*%
X195732952Y-103952980D02*
X195399619Y-103476790D01*
X195161523Y-103952980D02*
X195161523Y-102952980D01*
X195542476Y-102952980D01*
X195637714Y-103000600D01*
X195685333Y-103048219D01*
X195732952Y-103143457D01*
X195732952Y-103286314D01*
X195685333Y-103381552D01*
X195637714Y-103429171D01*
X195542476Y-103476790D01*
X195161523Y-103476790D01*
X196590095Y-103952980D02*
X196590095Y-103429171D01*
X196542476Y-103333933D01*
X196447238Y-103286314D01*
X196256761Y-103286314D01*
X196161523Y-103333933D01*
X196590095Y-103905361D02*
X196494857Y-103952980D01*
X196256761Y-103952980D01*
X196161523Y-103905361D01*
X196113904Y-103810123D01*
X196113904Y-103714885D01*
X196161523Y-103619647D01*
X196256761Y-103572028D01*
X196494857Y-103572028D01*
X196590095Y-103524409D01*
X197590095Y-103952980D02*
X197018666Y-103952980D01*
X197304380Y-103952980D02*
X197304380Y-102952980D01*
X197209142Y-103095838D01*
X197113904Y-103191076D01*
X197018666Y-103238695D01*
%TO.C,CBy3*%
X148581542Y-115389019D02*
X148629161Y-115436638D01*
X148676780Y-115579495D01*
X148676780Y-115674733D01*
X148629161Y-115817590D01*
X148533923Y-115912828D01*
X148438685Y-115960447D01*
X148248209Y-116008066D01*
X148105352Y-116008066D01*
X147914876Y-115960447D01*
X147819638Y-115912828D01*
X147724400Y-115817590D01*
X147676780Y-115674733D01*
X147676780Y-115579495D01*
X147724400Y-115436638D01*
X147772019Y-115389019D01*
X148152971Y-114627114D02*
X148200590Y-114484257D01*
X148248209Y-114436638D01*
X148343447Y-114389019D01*
X148486304Y-114389019D01*
X148581542Y-114436638D01*
X148629161Y-114484257D01*
X148676780Y-114579495D01*
X148676780Y-114960447D01*
X147676780Y-114960447D01*
X147676780Y-114627114D01*
X147724400Y-114531876D01*
X147772019Y-114484257D01*
X147867257Y-114436638D01*
X147962495Y-114436638D01*
X148057733Y-114484257D01*
X148105352Y-114531876D01*
X148152971Y-114627114D01*
X148152971Y-114960447D01*
X148010114Y-114055685D02*
X148676780Y-113817590D01*
X148010114Y-113579495D02*
X148676780Y-113817590D01*
X148914876Y-113912828D01*
X148962495Y-113960447D01*
X149010114Y-114055685D01*
X147676780Y-113293780D02*
X147676780Y-112674733D01*
X148057733Y-113008066D01*
X148057733Y-112865209D01*
X148105352Y-112769971D01*
X148152971Y-112722352D01*
X148248209Y-112674733D01*
X148486304Y-112674733D01*
X148581542Y-112722352D01*
X148629161Y-112769971D01*
X148676780Y-112865209D01*
X148676780Y-113150923D01*
X148629161Y-113246161D01*
X148581542Y-113293780D01*
%TO.C,C3*%
X133047142Y-67561666D02*
X133094761Y-67609285D01*
X133142380Y-67752142D01*
X133142380Y-67847380D01*
X133094761Y-67990238D01*
X132999523Y-68085476D01*
X132904285Y-68133095D01*
X132713809Y-68180714D01*
X132570952Y-68180714D01*
X132380476Y-68133095D01*
X132285238Y-68085476D01*
X132190000Y-67990238D01*
X132142380Y-67847380D01*
X132142380Y-67752142D01*
X132190000Y-67609285D01*
X132237619Y-67561666D01*
X132142380Y-67228333D02*
X132142380Y-66609285D01*
X132523333Y-66942619D01*
X132523333Y-66799761D01*
X132570952Y-66704523D01*
X132618571Y-66656904D01*
X132713809Y-66609285D01*
X132951904Y-66609285D01*
X133047142Y-66656904D01*
X133094761Y-66704523D01*
X133142380Y-66799761D01*
X133142380Y-67085476D01*
X133094761Y-67180714D01*
X133047142Y-67228333D01*
%TO.C,J_gnd1*%
X188715575Y-127746736D02*
X188715575Y-128462208D01*
X188667877Y-128605302D01*
X188572481Y-128700699D01*
X188429386Y-128748397D01*
X188333990Y-128748397D01*
X188954066Y-128843793D02*
X189717236Y-128843793D01*
X190385010Y-128080623D02*
X190385010Y-128891491D01*
X190337312Y-128986888D01*
X190289614Y-129034586D01*
X190194218Y-129082284D01*
X190051123Y-129082284D01*
X189955727Y-129034586D01*
X190385010Y-128700699D02*
X190289614Y-128748397D01*
X190098821Y-128748397D01*
X190003425Y-128700699D01*
X189955727Y-128653001D01*
X189908029Y-128557604D01*
X189908029Y-128271415D01*
X189955727Y-128176019D01*
X190003425Y-128128321D01*
X190098821Y-128080623D01*
X190289614Y-128080623D01*
X190385010Y-128128321D01*
X190861992Y-128080623D02*
X190861992Y-128748397D01*
X190861992Y-128176019D02*
X190909690Y-128128321D01*
X191005086Y-128080623D01*
X191148181Y-128080623D01*
X191243577Y-128128321D01*
X191291275Y-128223717D01*
X191291275Y-128748397D01*
X192197540Y-128748397D02*
X192197540Y-127746736D01*
X192197540Y-128700699D02*
X192102143Y-128748397D01*
X191911351Y-128748397D01*
X191815955Y-128700699D01*
X191768256Y-128653001D01*
X191720558Y-128557604D01*
X191720558Y-128271415D01*
X191768256Y-128176019D01*
X191815955Y-128128321D01*
X191911351Y-128080623D01*
X192102143Y-128080623D01*
X192197540Y-128128321D01*
X193199201Y-128748397D02*
X192626823Y-128748397D01*
X192913012Y-128748397D02*
X192913012Y-127746736D01*
X192817616Y-127889830D01*
X192722219Y-127985227D01*
X192626823Y-128032925D01*
%TO.C,LB3*%
X105146733Y-112136180D02*
X104670542Y-112136180D01*
X104670542Y-111136180D01*
X105813400Y-111612371D02*
X105956257Y-111659990D01*
X106003876Y-111707609D01*
X106051495Y-111802847D01*
X106051495Y-111945704D01*
X106003876Y-112040942D01*
X105956257Y-112088561D01*
X105861019Y-112136180D01*
X105480066Y-112136180D01*
X105480066Y-111136180D01*
X105813400Y-111136180D01*
X105908638Y-111183800D01*
X105956257Y-111231419D01*
X106003876Y-111326657D01*
X106003876Y-111421895D01*
X105956257Y-111517133D01*
X105908638Y-111564752D01*
X105813400Y-111612371D01*
X105480066Y-111612371D01*
X106384828Y-111136180D02*
X107003876Y-111136180D01*
X106670542Y-111517133D01*
X106813400Y-111517133D01*
X106908638Y-111564752D01*
X106956257Y-111612371D01*
X107003876Y-111707609D01*
X107003876Y-111945704D01*
X106956257Y-112040942D01*
X106908638Y-112088561D01*
X106813400Y-112136180D01*
X106527685Y-112136180D01*
X106432447Y-112088561D01*
X106384828Y-112040942D01*
%TO.C,Lb1*%
X104780952Y-128652380D02*
X104304761Y-128652380D01*
X104304761Y-127652380D01*
X105114285Y-128652380D02*
X105114285Y-127652380D01*
X105114285Y-128033333D02*
X105209523Y-127985714D01*
X105400000Y-127985714D01*
X105495238Y-128033333D01*
X105542857Y-128080952D01*
X105590476Y-128176190D01*
X105590476Y-128461904D01*
X105542857Y-128557142D01*
X105495238Y-128604761D01*
X105400000Y-128652380D01*
X105209523Y-128652380D01*
X105114285Y-128604761D01*
X106542857Y-128652380D02*
X105971428Y-128652380D01*
X106257142Y-128652380D02*
X106257142Y-127652380D01*
X106161904Y-127795238D01*
X106066666Y-127890476D01*
X105971428Y-127938095D01*
%TO.C,D3*%
X125652380Y-105738095D02*
X124652380Y-105738095D01*
X124652380Y-105500000D01*
X124700000Y-105357142D01*
X124795238Y-105261904D01*
X124890476Y-105214285D01*
X125080952Y-105166666D01*
X125223809Y-105166666D01*
X125414285Y-105214285D01*
X125509523Y-105261904D01*
X125604761Y-105357142D01*
X125652380Y-105500000D01*
X125652380Y-105738095D01*
X124652380Y-104833333D02*
X124652380Y-104214285D01*
X125033333Y-104547619D01*
X125033333Y-104404761D01*
X125080952Y-104309523D01*
X125128571Y-104261904D01*
X125223809Y-104214285D01*
X125461904Y-104214285D01*
X125557142Y-104261904D01*
X125604761Y-104309523D01*
X125652380Y-104404761D01*
X125652380Y-104690476D01*
X125604761Y-104785714D01*
X125557142Y-104833333D01*
X121086666Y-106723095D02*
X121086666Y-106246904D01*
X121372380Y-106818333D02*
X120372380Y-106485000D01*
X121372380Y-106151666D01*
%TO.C,J_Lector_3*%
X139404038Y-60000580D02*
X139404038Y-60714866D01*
X139356419Y-60857723D01*
X139261180Y-60952961D01*
X139118323Y-61000580D01*
X139023085Y-61000580D01*
X139642133Y-61095819D02*
X140404038Y-61095819D01*
X141118323Y-61000580D02*
X140642133Y-61000580D01*
X140642133Y-60000580D01*
X141832609Y-60952961D02*
X141737371Y-61000580D01*
X141546895Y-61000580D01*
X141451657Y-60952961D01*
X141404038Y-60857723D01*
X141404038Y-60476771D01*
X141451657Y-60381533D01*
X141546895Y-60333914D01*
X141737371Y-60333914D01*
X141832609Y-60381533D01*
X141880228Y-60476771D01*
X141880228Y-60572009D01*
X141404038Y-60667247D01*
X142737371Y-60952961D02*
X142642133Y-61000580D01*
X142451657Y-61000580D01*
X142356419Y-60952961D01*
X142308800Y-60905342D01*
X142261180Y-60810104D01*
X142261180Y-60524390D01*
X142308800Y-60429152D01*
X142356419Y-60381533D01*
X142451657Y-60333914D01*
X142642133Y-60333914D01*
X142737371Y-60381533D01*
X143023085Y-60333914D02*
X143404038Y-60333914D01*
X143165942Y-60000580D02*
X143165942Y-60857723D01*
X143213561Y-60952961D01*
X143308800Y-61000580D01*
X143404038Y-61000580D01*
X143880228Y-61000580D02*
X143784990Y-60952961D01*
X143737371Y-60905342D01*
X143689752Y-60810104D01*
X143689752Y-60524390D01*
X143737371Y-60429152D01*
X143784990Y-60381533D01*
X143880228Y-60333914D01*
X144023085Y-60333914D01*
X144118323Y-60381533D01*
X144165942Y-60429152D01*
X144213561Y-60524390D01*
X144213561Y-60810104D01*
X144165942Y-60905342D01*
X144118323Y-60952961D01*
X144023085Y-61000580D01*
X143880228Y-61000580D01*
X144642133Y-61000580D02*
X144642133Y-60333914D01*
X144642133Y-60524390D02*
X144689752Y-60429152D01*
X144737371Y-60381533D01*
X144832609Y-60333914D01*
X144927847Y-60333914D01*
X145023085Y-61095819D02*
X145784990Y-61095819D01*
X145927847Y-60000580D02*
X146546895Y-60000580D01*
X146213561Y-60381533D01*
X146356419Y-60381533D01*
X146451657Y-60429152D01*
X146499276Y-60476771D01*
X146546895Y-60572009D01*
X146546895Y-60810104D01*
X146499276Y-60905342D01*
X146451657Y-60952961D01*
X146356419Y-61000580D01*
X146070704Y-61000580D01*
X145975466Y-60952961D01*
X145927847Y-60905342D01*
%TO.C,RI2C1*%
X184486380Y-96879552D02*
X184010190Y-97212885D01*
X184486380Y-97450980D02*
X183486380Y-97450980D01*
X183486380Y-97070028D01*
X183534000Y-96974790D01*
X183581619Y-96927171D01*
X183676857Y-96879552D01*
X183819714Y-96879552D01*
X183914952Y-96927171D01*
X183962571Y-96974790D01*
X184010190Y-97070028D01*
X184010190Y-97450980D01*
X184486380Y-96450980D02*
X183486380Y-96450980D01*
X183581619Y-96022409D02*
X183534000Y-95974790D01*
X183486380Y-95879552D01*
X183486380Y-95641457D01*
X183534000Y-95546219D01*
X183581619Y-95498600D01*
X183676857Y-95450980D01*
X183772095Y-95450980D01*
X183914952Y-95498600D01*
X184486380Y-96070028D01*
X184486380Y-95450980D01*
X184391142Y-94450980D02*
X184438761Y-94498600D01*
X184486380Y-94641457D01*
X184486380Y-94736695D01*
X184438761Y-94879552D01*
X184343523Y-94974790D01*
X184248285Y-95022409D01*
X184057809Y-95070028D01*
X183914952Y-95070028D01*
X183724476Y-95022409D01*
X183629238Y-94974790D01*
X183534000Y-94879552D01*
X183486380Y-94736695D01*
X183486380Y-94641457D01*
X183534000Y-94498600D01*
X183581619Y-94450980D01*
X184486380Y-93498600D02*
X184486380Y-94070028D01*
X184486380Y-93784314D02*
X183486380Y-93784314D01*
X183629238Y-93879552D01*
X183724476Y-93974790D01*
X183772095Y-94070028D01*
%TO.C,CB2*%
X127054533Y-96557142D02*
X127006914Y-96604761D01*
X126864057Y-96652380D01*
X126768819Y-96652380D01*
X126625961Y-96604761D01*
X126530723Y-96509523D01*
X126483104Y-96414285D01*
X126435485Y-96223809D01*
X126435485Y-96080952D01*
X126483104Y-95890476D01*
X126530723Y-95795238D01*
X126625961Y-95700000D01*
X126768819Y-95652380D01*
X126864057Y-95652380D01*
X127006914Y-95700000D01*
X127054533Y-95747619D01*
X127816438Y-96128571D02*
X127959295Y-96176190D01*
X128006914Y-96223809D01*
X128054533Y-96319047D01*
X128054533Y-96461904D01*
X128006914Y-96557142D01*
X127959295Y-96604761D01*
X127864057Y-96652380D01*
X127483104Y-96652380D01*
X127483104Y-95652380D01*
X127816438Y-95652380D01*
X127911676Y-95700000D01*
X127959295Y-95747619D01*
X128006914Y-95842857D01*
X128006914Y-95938095D01*
X127959295Y-96033333D01*
X127911676Y-96080952D01*
X127816438Y-96128571D01*
X127483104Y-96128571D01*
X128435485Y-95747619D02*
X128483104Y-95700000D01*
X128578342Y-95652380D01*
X128816438Y-95652380D01*
X128911676Y-95700000D01*
X128959295Y-95747619D01*
X129006914Y-95842857D01*
X129006914Y-95938095D01*
X128959295Y-96080952D01*
X128387866Y-96652380D01*
X129006914Y-96652380D01*
%TO.C,B1_1*%
X119420354Y-86557187D02*
X119563448Y-86604885D01*
X119611146Y-86652584D01*
X119658844Y-86747980D01*
X119658844Y-86891074D01*
X119611146Y-86986471D01*
X119563448Y-87034169D01*
X119468052Y-87081867D01*
X119086467Y-87081867D01*
X119086467Y-86080206D01*
X119420354Y-86080206D01*
X119515750Y-86127904D01*
X119563448Y-86175602D01*
X119611146Y-86270998D01*
X119611146Y-86366395D01*
X119563448Y-86461791D01*
X119515750Y-86509489D01*
X119420354Y-86557187D01*
X119086467Y-86557187D01*
X120612807Y-87081867D02*
X120040430Y-87081867D01*
X120326618Y-87081867D02*
X120326618Y-86080206D01*
X120231222Y-86223300D01*
X120135826Y-86318697D01*
X120040430Y-86366395D01*
X120803600Y-87177263D02*
X121566770Y-87177263D01*
X122329940Y-87081867D02*
X121757563Y-87081867D01*
X122043752Y-87081867D02*
X122043752Y-86080206D01*
X121948355Y-86223300D01*
X121852959Y-86318697D01*
X121757563Y-86366395D01*
%TO.C,R6*%
X146642380Y-80886666D02*
X146166190Y-81220000D01*
X146642380Y-81458095D02*
X145642380Y-81458095D01*
X145642380Y-81077142D01*
X145690000Y-80981904D01*
X145737619Y-80934285D01*
X145832857Y-80886666D01*
X145975714Y-80886666D01*
X146070952Y-80934285D01*
X146118571Y-80981904D01*
X146166190Y-81077142D01*
X146166190Y-81458095D01*
X145642380Y-80029523D02*
X145642380Y-80220000D01*
X145690000Y-80315238D01*
X145737619Y-80362857D01*
X145880476Y-80458095D01*
X146070952Y-80505714D01*
X146451904Y-80505714D01*
X146547142Y-80458095D01*
X146594761Y-80410476D01*
X146642380Y-80315238D01*
X146642380Y-80124761D01*
X146594761Y-80029523D01*
X146547142Y-79981904D01*
X146451904Y-79934285D01*
X146213809Y-79934285D01*
X146118571Y-79981904D01*
X146070952Y-80029523D01*
X146023333Y-80124761D01*
X146023333Y-80315238D01*
X146070952Y-80410476D01*
X146118571Y-80458095D01*
X146213809Y-80505714D01*
%TO.C,R_RED1*%
X172901980Y-104763000D02*
X172425790Y-105096333D01*
X172901980Y-105334428D02*
X171901980Y-105334428D01*
X171901980Y-104953476D01*
X171949600Y-104858238D01*
X171997219Y-104810619D01*
X172092457Y-104763000D01*
X172235314Y-104763000D01*
X172330552Y-104810619D01*
X172378171Y-104858238D01*
X172425790Y-104953476D01*
X172425790Y-105334428D01*
X172997219Y-104572523D02*
X172997219Y-103810619D01*
X172901980Y-103001095D02*
X172425790Y-103334428D01*
X172901980Y-103572523D02*
X171901980Y-103572523D01*
X171901980Y-103191571D01*
X171949600Y-103096333D01*
X171997219Y-103048714D01*
X172092457Y-103001095D01*
X172235314Y-103001095D01*
X172330552Y-103048714D01*
X172378171Y-103096333D01*
X172425790Y-103191571D01*
X172425790Y-103572523D01*
X172378171Y-102572523D02*
X172378171Y-102239190D01*
X172901980Y-102096333D02*
X172901980Y-102572523D01*
X171901980Y-102572523D01*
X171901980Y-102096333D01*
X172901980Y-101667761D02*
X171901980Y-101667761D01*
X171901980Y-101429666D01*
X171949600Y-101286809D01*
X172044838Y-101191571D01*
X172140076Y-101143952D01*
X172330552Y-101096333D01*
X172473409Y-101096333D01*
X172663885Y-101143952D01*
X172759123Y-101191571D01*
X172854361Y-101286809D01*
X172901980Y-101429666D01*
X172901980Y-101667761D01*
X172901980Y-100143952D02*
X172901980Y-100715380D01*
X172901980Y-100429666D02*
X171901980Y-100429666D01*
X172044838Y-100524904D01*
X172140076Y-100620142D01*
X172187695Y-100715380D01*
%TO.C,J_Display1*%
X193365980Y-70607761D02*
X194080266Y-70607761D01*
X194223123Y-70655380D01*
X194318361Y-70750619D01*
X194365980Y-70893476D01*
X194365980Y-70988714D01*
X194461219Y-70369666D02*
X194461219Y-69607761D01*
X194365980Y-69369666D02*
X193365980Y-69369666D01*
X193365980Y-69131571D01*
X193413600Y-68988714D01*
X193508838Y-68893476D01*
X193604076Y-68845857D01*
X193794552Y-68798238D01*
X193937409Y-68798238D01*
X194127885Y-68845857D01*
X194223123Y-68893476D01*
X194318361Y-68988714D01*
X194365980Y-69131571D01*
X194365980Y-69369666D01*
X194365980Y-68369666D02*
X193699314Y-68369666D01*
X193365980Y-68369666D02*
X193413600Y-68417285D01*
X193461219Y-68369666D01*
X193413600Y-68322047D01*
X193365980Y-68369666D01*
X193461219Y-68369666D01*
X194318361Y-67941095D02*
X194365980Y-67845857D01*
X194365980Y-67655380D01*
X194318361Y-67560142D01*
X194223123Y-67512523D01*
X194175504Y-67512523D01*
X194080266Y-67560142D01*
X194032647Y-67655380D01*
X194032647Y-67798238D01*
X193985028Y-67893476D01*
X193889790Y-67941095D01*
X193842171Y-67941095D01*
X193746933Y-67893476D01*
X193699314Y-67798238D01*
X193699314Y-67655380D01*
X193746933Y-67560142D01*
X193699314Y-67083952D02*
X194699314Y-67083952D01*
X193746933Y-67083952D02*
X193699314Y-66988714D01*
X193699314Y-66798238D01*
X193746933Y-66703000D01*
X193794552Y-66655380D01*
X193889790Y-66607761D01*
X194175504Y-66607761D01*
X194270742Y-66655380D01*
X194318361Y-66703000D01*
X194365980Y-66798238D01*
X194365980Y-66988714D01*
X194318361Y-67083952D01*
X194365980Y-66036333D02*
X194318361Y-66131571D01*
X194223123Y-66179190D01*
X193365980Y-66179190D01*
X194365980Y-65226809D02*
X193842171Y-65226809D01*
X193746933Y-65274428D01*
X193699314Y-65369666D01*
X193699314Y-65560142D01*
X193746933Y-65655380D01*
X194318361Y-65226809D02*
X194365980Y-65322047D01*
X194365980Y-65560142D01*
X194318361Y-65655380D01*
X194223123Y-65703000D01*
X194127885Y-65703000D01*
X194032647Y-65655380D01*
X193985028Y-65560142D01*
X193985028Y-65322047D01*
X193937409Y-65226809D01*
X193699314Y-64845857D02*
X194365980Y-64607761D01*
X193699314Y-64369666D02*
X194365980Y-64607761D01*
X194604076Y-64703000D01*
X194651695Y-64750619D01*
X194699314Y-64845857D01*
X194365980Y-63464904D02*
X194365980Y-64036333D01*
X194365980Y-63750619D02*
X193365980Y-63750619D01*
X193508838Y-63845857D01*
X193604076Y-63941095D01*
X193651695Y-64036333D01*
%TO.C,R5*%
X146452380Y-66166666D02*
X145976190Y-66500000D01*
X146452380Y-66738095D02*
X145452380Y-66738095D01*
X145452380Y-66357142D01*
X145500000Y-66261904D01*
X145547619Y-66214285D01*
X145642857Y-66166666D01*
X145785714Y-66166666D01*
X145880952Y-66214285D01*
X145928571Y-66261904D01*
X145976190Y-66357142D01*
X145976190Y-66738095D01*
X145452380Y-65261904D02*
X145452380Y-65738095D01*
X145928571Y-65785714D01*
X145880952Y-65738095D01*
X145833333Y-65642857D01*
X145833333Y-65404761D01*
X145880952Y-65309523D01*
X145928571Y-65261904D01*
X146023809Y-65214285D01*
X146261904Y-65214285D01*
X146357142Y-65261904D01*
X146404761Y-65309523D01*
X146452380Y-65404761D01*
X146452380Y-65642857D01*
X146404761Y-65738095D01*
X146357142Y-65785714D01*
%TO.C,CBat1*%
X181637638Y-88420142D02*
X181590019Y-88467761D01*
X181447161Y-88515380D01*
X181351923Y-88515380D01*
X181209066Y-88467761D01*
X181113828Y-88372523D01*
X181066209Y-88277285D01*
X181018590Y-88086809D01*
X181018590Y-87943952D01*
X181066209Y-87753476D01*
X181113828Y-87658238D01*
X181209066Y-87563000D01*
X181351923Y-87515380D01*
X181447161Y-87515380D01*
X181590019Y-87563000D01*
X181637638Y-87610619D01*
X182399542Y-87991571D02*
X182542400Y-88039190D01*
X182590019Y-88086809D01*
X182637638Y-88182047D01*
X182637638Y-88324904D01*
X182590019Y-88420142D01*
X182542400Y-88467761D01*
X182447161Y-88515380D01*
X182066209Y-88515380D01*
X182066209Y-87515380D01*
X182399542Y-87515380D01*
X182494780Y-87563000D01*
X182542400Y-87610619D01*
X182590019Y-87705857D01*
X182590019Y-87801095D01*
X182542400Y-87896333D01*
X182494780Y-87943952D01*
X182399542Y-87991571D01*
X182066209Y-87991571D01*
X183494780Y-88515380D02*
X183494780Y-87991571D01*
X183447161Y-87896333D01*
X183351923Y-87848714D01*
X183161447Y-87848714D01*
X183066209Y-87896333D01*
X183494780Y-88467761D02*
X183399542Y-88515380D01*
X183161447Y-88515380D01*
X183066209Y-88467761D01*
X183018590Y-88372523D01*
X183018590Y-88277285D01*
X183066209Y-88182047D01*
X183161447Y-88134428D01*
X183399542Y-88134428D01*
X183494780Y-88086809D01*
X183828114Y-87848714D02*
X184209066Y-87848714D01*
X183970971Y-87515380D02*
X183970971Y-88372523D01*
X184018590Y-88467761D01*
X184113828Y-88515380D01*
X184209066Y-88515380D01*
X185066209Y-88515380D02*
X184494780Y-88515380D01*
X184780495Y-88515380D02*
X184780495Y-87515380D01*
X184685257Y-87658238D01*
X184590019Y-87753476D01*
X184494780Y-87801095D01*
D11*
%TO.C,U_ChargeControler1*%
X174367161Y-104775190D02*
X174367161Y-105179952D01*
X174390971Y-105227571D01*
X174414780Y-105251380D01*
X174462400Y-105275190D01*
X174557638Y-105275190D01*
X174605257Y-105251380D01*
X174629066Y-105227571D01*
X174652876Y-105179952D01*
X174652876Y-104775190D01*
X174771923Y-105322809D02*
X175152876Y-105322809D01*
X175557638Y-105227571D02*
X175533828Y-105251380D01*
X175462400Y-105275190D01*
X175414780Y-105275190D01*
X175343352Y-105251380D01*
X175295733Y-105203761D01*
X175271923Y-105156142D01*
X175248114Y-105060904D01*
X175248114Y-104989476D01*
X175271923Y-104894238D01*
X175295733Y-104846619D01*
X175343352Y-104799000D01*
X175414780Y-104775190D01*
X175462400Y-104775190D01*
X175533828Y-104799000D01*
X175557638Y-104822809D01*
X175771923Y-105275190D02*
X175771923Y-104775190D01*
X175986209Y-105275190D02*
X175986209Y-105013285D01*
X175962400Y-104965666D01*
X175914780Y-104941857D01*
X175843352Y-104941857D01*
X175795733Y-104965666D01*
X175771923Y-104989476D01*
X176438590Y-105275190D02*
X176438590Y-105013285D01*
X176414780Y-104965666D01*
X176367161Y-104941857D01*
X176271923Y-104941857D01*
X176224304Y-104965666D01*
X176438590Y-105251380D02*
X176390971Y-105275190D01*
X176271923Y-105275190D01*
X176224304Y-105251380D01*
X176200495Y-105203761D01*
X176200495Y-105156142D01*
X176224304Y-105108523D01*
X176271923Y-105084714D01*
X176390971Y-105084714D01*
X176438590Y-105060904D01*
X176676685Y-105275190D02*
X176676685Y-104941857D01*
X176676685Y-105037095D02*
X176700495Y-104989476D01*
X176724304Y-104965666D01*
X176771923Y-104941857D01*
X176819542Y-104941857D01*
X177200495Y-104941857D02*
X177200495Y-105346619D01*
X177176685Y-105394238D01*
X177152876Y-105418047D01*
X177105257Y-105441857D01*
X177033828Y-105441857D01*
X176986209Y-105418047D01*
X177200495Y-105251380D02*
X177152876Y-105275190D01*
X177057638Y-105275190D01*
X177010019Y-105251380D01*
X176986209Y-105227571D01*
X176962400Y-105179952D01*
X176962400Y-105037095D01*
X176986209Y-104989476D01*
X177010019Y-104965666D01*
X177057638Y-104941857D01*
X177152876Y-104941857D01*
X177200495Y-104965666D01*
X177629066Y-105251380D02*
X177581447Y-105275190D01*
X177486209Y-105275190D01*
X177438590Y-105251380D01*
X177414780Y-105203761D01*
X177414780Y-105013285D01*
X177438590Y-104965666D01*
X177486209Y-104941857D01*
X177581447Y-104941857D01*
X177629066Y-104965666D01*
X177652876Y-105013285D01*
X177652876Y-105060904D01*
X177414780Y-105108523D01*
X178152876Y-105227571D02*
X178129066Y-105251380D01*
X178057638Y-105275190D01*
X178010019Y-105275190D01*
X177938590Y-105251380D01*
X177890971Y-105203761D01*
X177867161Y-105156142D01*
X177843352Y-105060904D01*
X177843352Y-104989476D01*
X177867161Y-104894238D01*
X177890971Y-104846619D01*
X177938590Y-104799000D01*
X178010019Y-104775190D01*
X178057638Y-104775190D01*
X178129066Y-104799000D01*
X178152876Y-104822809D01*
X178438590Y-105275190D02*
X178390971Y-105251380D01*
X178367161Y-105227571D01*
X178343352Y-105179952D01*
X178343352Y-105037095D01*
X178367161Y-104989476D01*
X178390971Y-104965666D01*
X178438590Y-104941857D01*
X178510019Y-104941857D01*
X178557638Y-104965666D01*
X178581447Y-104989476D01*
X178605257Y-105037095D01*
X178605257Y-105179952D01*
X178581447Y-105227571D01*
X178557638Y-105251380D01*
X178510019Y-105275190D01*
X178438590Y-105275190D01*
X178819542Y-104941857D02*
X178819542Y-105275190D01*
X178819542Y-104989476D02*
X178843352Y-104965666D01*
X178890971Y-104941857D01*
X178962400Y-104941857D01*
X179010019Y-104965666D01*
X179033828Y-105013285D01*
X179033828Y-105275190D01*
X179200495Y-104941857D02*
X179390971Y-104941857D01*
X179271923Y-104775190D02*
X179271923Y-105203761D01*
X179295733Y-105251380D01*
X179343352Y-105275190D01*
X179390971Y-105275190D01*
X179557638Y-105275190D02*
X179557638Y-104941857D01*
X179557638Y-105037095D02*
X179581447Y-104989476D01*
X179605257Y-104965666D01*
X179652876Y-104941857D01*
X179700495Y-104941857D01*
X179938590Y-105275190D02*
X179890971Y-105251380D01*
X179867161Y-105227571D01*
X179843352Y-105179952D01*
X179843352Y-105037095D01*
X179867161Y-104989476D01*
X179890971Y-104965666D01*
X179938590Y-104941857D01*
X180010019Y-104941857D01*
X180057638Y-104965666D01*
X180081447Y-104989476D01*
X180105257Y-105037095D01*
X180105257Y-105179952D01*
X180081447Y-105227571D01*
X180057638Y-105251380D01*
X180010019Y-105275190D01*
X179938590Y-105275190D01*
X180390971Y-105275190D02*
X180343352Y-105251380D01*
X180319542Y-105203761D01*
X180319542Y-104775190D01*
X180771923Y-105251380D02*
X180724304Y-105275190D01*
X180629066Y-105275190D01*
X180581447Y-105251380D01*
X180557638Y-105203761D01*
X180557638Y-105013285D01*
X180581447Y-104965666D01*
X180629066Y-104941857D01*
X180724304Y-104941857D01*
X180771923Y-104965666D01*
X180795733Y-105013285D01*
X180795733Y-105060904D01*
X180557638Y-105108523D01*
X181010019Y-105275190D02*
X181010019Y-104941857D01*
X181010019Y-105037095D02*
X181033828Y-104989476D01*
X181057638Y-104965666D01*
X181105257Y-104941857D01*
X181152876Y-104941857D01*
X181581447Y-105275190D02*
X181295733Y-105275190D01*
X181438590Y-105275190D02*
X181438590Y-104775190D01*
X181390971Y-104846619D01*
X181343352Y-104894238D01*
X181295733Y-104918047D01*
%TO.C,D_RED1*%
X170225085Y-96462390D02*
X170225085Y-95962390D01*
X170344133Y-95962390D01*
X170415561Y-95986200D01*
X170463180Y-96033819D01*
X170486990Y-96081438D01*
X170510800Y-96176676D01*
X170510800Y-96248104D01*
X170486990Y-96343342D01*
X170463180Y-96390961D01*
X170415561Y-96438580D01*
X170344133Y-96462390D01*
X170225085Y-96462390D01*
X170606038Y-96510009D02*
X170986990Y-96510009D01*
X171391752Y-96462390D02*
X171225085Y-96224295D01*
X171106038Y-96462390D02*
X171106038Y-95962390D01*
X171296514Y-95962390D01*
X171344133Y-95986200D01*
X171367942Y-96010009D01*
X171391752Y-96057628D01*
X171391752Y-96129057D01*
X171367942Y-96176676D01*
X171344133Y-96200485D01*
X171296514Y-96224295D01*
X171106038Y-96224295D01*
X171606038Y-96200485D02*
X171772704Y-96200485D01*
X171844133Y-96462390D02*
X171606038Y-96462390D01*
X171606038Y-95962390D01*
X171844133Y-95962390D01*
X172058419Y-96462390D02*
X172058419Y-95962390D01*
X172177466Y-95962390D01*
X172248895Y-95986200D01*
X172296514Y-96033819D01*
X172320323Y-96081438D01*
X172344133Y-96176676D01*
X172344133Y-96248104D01*
X172320323Y-96343342D01*
X172296514Y-96390961D01*
X172248895Y-96438580D01*
X172177466Y-96462390D01*
X172058419Y-96462390D01*
X172820323Y-96462390D02*
X172534609Y-96462390D01*
X172677466Y-96462390D02*
X172677466Y-95962390D01*
X172629847Y-96033819D01*
X172582228Y-96081438D01*
X172534609Y-96105247D01*
D10*
%TO.C,CByBa1*%
X176927600Y-108828542D02*
X176879980Y-108876161D01*
X176737123Y-108923780D01*
X176641885Y-108923780D01*
X176499028Y-108876161D01*
X176403790Y-108780923D01*
X176356171Y-108685685D01*
X176308552Y-108495209D01*
X176308552Y-108352352D01*
X176356171Y-108161876D01*
X176403790Y-108066638D01*
X176499028Y-107971400D01*
X176641885Y-107923780D01*
X176737123Y-107923780D01*
X176879980Y-107971400D01*
X176927600Y-108019019D01*
X177689504Y-108399971D02*
X177832361Y-108447590D01*
X177879980Y-108495209D01*
X177927600Y-108590447D01*
X177927600Y-108733304D01*
X177879980Y-108828542D01*
X177832361Y-108876161D01*
X177737123Y-108923780D01*
X177356171Y-108923780D01*
X177356171Y-107923780D01*
X177689504Y-107923780D01*
X177784742Y-107971400D01*
X177832361Y-108019019D01*
X177879980Y-108114257D01*
X177879980Y-108209495D01*
X177832361Y-108304733D01*
X177784742Y-108352352D01*
X177689504Y-108399971D01*
X177356171Y-108399971D01*
X178260933Y-108257114D02*
X178499028Y-108923780D01*
X178737123Y-108257114D02*
X178499028Y-108923780D01*
X178403790Y-109161876D01*
X178356171Y-109209495D01*
X178260933Y-109257114D01*
X179451409Y-108399971D02*
X179594266Y-108447590D01*
X179641885Y-108495209D01*
X179689504Y-108590447D01*
X179689504Y-108733304D01*
X179641885Y-108828542D01*
X179594266Y-108876161D01*
X179499028Y-108923780D01*
X179118076Y-108923780D01*
X179118076Y-107923780D01*
X179451409Y-107923780D01*
X179546647Y-107971400D01*
X179594266Y-108019019D01*
X179641885Y-108114257D01*
X179641885Y-108209495D01*
X179594266Y-108304733D01*
X179546647Y-108352352D01*
X179451409Y-108399971D01*
X179118076Y-108399971D01*
X180546647Y-108923780D02*
X180546647Y-108399971D01*
X180499028Y-108304733D01*
X180403790Y-108257114D01*
X180213314Y-108257114D01*
X180118076Y-108304733D01*
X180546647Y-108876161D02*
X180451409Y-108923780D01*
X180213314Y-108923780D01*
X180118076Y-108876161D01*
X180070457Y-108780923D01*
X180070457Y-108685685D01*
X180118076Y-108590447D01*
X180213314Y-108542828D01*
X180451409Y-108542828D01*
X180546647Y-108495209D01*
X181546647Y-108923780D02*
X180975219Y-108923780D01*
X181260933Y-108923780D02*
X181260933Y-107923780D01*
X181165695Y-108066638D01*
X181070457Y-108161876D01*
X180975219Y-108209495D01*
%TO.C,J_Tap_1*%
X190305137Y-133264736D02*
X190305137Y-133980208D01*
X190257439Y-134123302D01*
X190162043Y-134218699D01*
X190018949Y-134266397D01*
X189923552Y-134266397D01*
X190543628Y-134361793D02*
X191306798Y-134361793D01*
X191402195Y-133264736D02*
X191974572Y-133264736D01*
X191688384Y-134266397D02*
X191688384Y-133264736D01*
X192737743Y-134266397D02*
X192737743Y-133741717D01*
X192690045Y-133646321D01*
X192594648Y-133598623D01*
X192403856Y-133598623D01*
X192308459Y-133646321D01*
X192737743Y-134218699D02*
X192642346Y-134266397D01*
X192403856Y-134266397D01*
X192308459Y-134218699D01*
X192260761Y-134123302D01*
X192260761Y-134027906D01*
X192308459Y-133932510D01*
X192403856Y-133884812D01*
X192642346Y-133884812D01*
X192737743Y-133837114D01*
X193214724Y-133598623D02*
X193214724Y-134600284D01*
X193214724Y-133646321D02*
X193310120Y-133598623D01*
X193500913Y-133598623D01*
X193596309Y-133646321D01*
X193644007Y-133694019D01*
X193691706Y-133789415D01*
X193691706Y-134075604D01*
X193644007Y-134171001D01*
X193596309Y-134218699D01*
X193500913Y-134266397D01*
X193310120Y-134266397D01*
X193214724Y-134218699D01*
X193882498Y-134361793D02*
X194645668Y-134361793D01*
X195408839Y-134266397D02*
X194836461Y-134266397D01*
X195122650Y-134266397D02*
X195122650Y-133264736D01*
X195027254Y-133407830D01*
X194931857Y-133503227D01*
X194836461Y-133550925D01*
%TO.C,L_p1*%
X133092380Y-73895000D02*
X133092380Y-74371190D01*
X132092380Y-74371190D01*
X133187619Y-73799761D02*
X133187619Y-73037857D01*
X132425714Y-72799761D02*
X133425714Y-72799761D01*
X132473333Y-72799761D02*
X132425714Y-72704523D01*
X132425714Y-72514047D01*
X132473333Y-72418809D01*
X132520952Y-72371190D01*
X132616190Y-72323571D01*
X132901904Y-72323571D01*
X132997142Y-72371190D01*
X133044761Y-72418809D01*
X133092380Y-72514047D01*
X133092380Y-72704523D01*
X133044761Y-72799761D01*
X133092380Y-71371190D02*
X133092380Y-71942619D01*
X133092380Y-71656904D02*
X132092380Y-71656904D01*
X132235238Y-71752142D01*
X132330476Y-71847380D01*
X132378095Y-71942619D01*
%TO.C,R_Prog10*%
X185525180Y-105953095D02*
X185048990Y-106286428D01*
X185525180Y-106524523D02*
X184525180Y-106524523D01*
X184525180Y-106143571D01*
X184572800Y-106048333D01*
X184620419Y-106000714D01*
X184715657Y-105953095D01*
X184858514Y-105953095D01*
X184953752Y-106000714D01*
X185001371Y-106048333D01*
X185048990Y-106143571D01*
X185048990Y-106524523D01*
X185620419Y-105762619D02*
X185620419Y-105000714D01*
X185525180Y-104762619D02*
X184525180Y-104762619D01*
X184525180Y-104381666D01*
X184572800Y-104286428D01*
X184620419Y-104238809D01*
X184715657Y-104191190D01*
X184858514Y-104191190D01*
X184953752Y-104238809D01*
X185001371Y-104286428D01*
X185048990Y-104381666D01*
X185048990Y-104762619D01*
X185525180Y-103762619D02*
X184858514Y-103762619D01*
X185048990Y-103762619D02*
X184953752Y-103715000D01*
X184906133Y-103667380D01*
X184858514Y-103572142D01*
X184858514Y-103476904D01*
X185525180Y-103000714D02*
X185477561Y-103095952D01*
X185429942Y-103143571D01*
X185334704Y-103191190D01*
X185048990Y-103191190D01*
X184953752Y-103143571D01*
X184906133Y-103095952D01*
X184858514Y-103000714D01*
X184858514Y-102857857D01*
X184906133Y-102762619D01*
X184953752Y-102715000D01*
X185048990Y-102667380D01*
X185334704Y-102667380D01*
X185429942Y-102715000D01*
X185477561Y-102762619D01*
X185525180Y-102857857D01*
X185525180Y-103000714D01*
X184858514Y-101810238D02*
X185668038Y-101810238D01*
X185763276Y-101857857D01*
X185810895Y-101905476D01*
X185858514Y-102000714D01*
X185858514Y-102143571D01*
X185810895Y-102238809D01*
X185477561Y-101810238D02*
X185525180Y-101905476D01*
X185525180Y-102095952D01*
X185477561Y-102191190D01*
X185429942Y-102238809D01*
X185334704Y-102286428D01*
X185048990Y-102286428D01*
X184953752Y-102238809D01*
X184906133Y-102191190D01*
X184858514Y-102095952D01*
X184858514Y-101905476D01*
X184906133Y-101810238D01*
X185525180Y-100810238D02*
X185525180Y-101381666D01*
X185525180Y-101095952D02*
X184525180Y-101095952D01*
X184668038Y-101191190D01*
X184763276Y-101286428D01*
X184810895Y-101381666D01*
X184525180Y-100191190D02*
X184525180Y-100095952D01*
X184572800Y-100000714D01*
X184620419Y-99953095D01*
X184715657Y-99905476D01*
X184906133Y-99857857D01*
X185144228Y-99857857D01*
X185334704Y-99905476D01*
X185429942Y-99953095D01*
X185477561Y-100000714D01*
X185525180Y-100095952D01*
X185525180Y-100191190D01*
X185477561Y-100286428D01*
X185429942Y-100334047D01*
X185334704Y-100381666D01*
X185144228Y-100429285D01*
X184906133Y-100429285D01*
X184715657Y-100381666D01*
X184620419Y-100334047D01*
X184572800Y-100286428D01*
X184525180Y-100191190D01*
%TO.C,B2_1*%
X134193154Y-87070587D02*
X134336248Y-87118285D01*
X134383946Y-87165984D01*
X134431644Y-87261380D01*
X134431644Y-87404474D01*
X134383946Y-87499871D01*
X134336248Y-87547569D01*
X134240852Y-87595267D01*
X133859267Y-87595267D01*
X133859267Y-86593606D01*
X134193154Y-86593606D01*
X134288550Y-86641304D01*
X134336248Y-86689002D01*
X134383946Y-86784398D01*
X134383946Y-86879795D01*
X134336248Y-86975191D01*
X134288550Y-87022889D01*
X134193154Y-87070587D01*
X133859267Y-87070587D01*
X134813230Y-86689002D02*
X134860928Y-86641304D01*
X134956324Y-86593606D01*
X135194815Y-86593606D01*
X135290211Y-86641304D01*
X135337909Y-86689002D01*
X135385607Y-86784398D01*
X135385607Y-86879795D01*
X135337909Y-87022889D01*
X134765531Y-87595267D01*
X135385607Y-87595267D01*
X135576400Y-87690663D02*
X136339570Y-87690663D01*
X137102740Y-87595267D02*
X136530363Y-87595267D01*
X136816552Y-87595267D02*
X136816552Y-86593606D01*
X136721155Y-86736700D01*
X136625759Y-86832097D01*
X136530363Y-86879795D01*
%TO.C,B2*%
X135484565Y-92130452D02*
X135627660Y-92178150D01*
X135675358Y-92225849D01*
X135723056Y-92321245D01*
X135723056Y-92464339D01*
X135675358Y-92559736D01*
X135627660Y-92607434D01*
X135532263Y-92655132D01*
X135150678Y-92655132D01*
X135150678Y-91653471D01*
X135484565Y-91653471D01*
X135579962Y-91701169D01*
X135627660Y-91748867D01*
X135675358Y-91844263D01*
X135675358Y-91939660D01*
X135627660Y-92035056D01*
X135579962Y-92082754D01*
X135484565Y-92130452D01*
X135150678Y-92130452D01*
X136104641Y-91748867D02*
X136152339Y-91701169D01*
X136247736Y-91653471D01*
X136486226Y-91653471D01*
X136581623Y-91701169D01*
X136629321Y-91748867D01*
X136677019Y-91844263D01*
X136677019Y-91939660D01*
X136629321Y-92082754D01*
X136056943Y-92655132D01*
X136677019Y-92655132D01*
%TO.C,U1*%
X125889695Y-84783780D02*
X125889695Y-85593304D01*
X125937314Y-85688542D01*
X125984933Y-85736161D01*
X126080171Y-85783780D01*
X126270647Y-85783780D01*
X126365885Y-85736161D01*
X126413504Y-85688542D01*
X126461123Y-85593304D01*
X126461123Y-84783780D01*
X127461123Y-85783780D02*
X126889695Y-85783780D01*
X127175409Y-85783780D02*
X127175409Y-84783780D01*
X127080171Y-84926638D01*
X126984933Y-85021876D01*
X126889695Y-85069495D01*
%TO.C,QBoo1*%
X141324419Y-100859400D02*
X141276800Y-100954638D01*
X141181561Y-101049876D01*
X141038704Y-101192733D01*
X140991085Y-101287971D01*
X140991085Y-101383209D01*
X141229180Y-101335590D02*
X141181561Y-101430828D01*
X141086323Y-101526066D01*
X140895847Y-101573685D01*
X140562514Y-101573685D01*
X140372038Y-101526066D01*
X140276800Y-101430828D01*
X140229180Y-101335590D01*
X140229180Y-101145114D01*
X140276800Y-101049876D01*
X140372038Y-100954638D01*
X140562514Y-100907019D01*
X140895847Y-100907019D01*
X141086323Y-100954638D01*
X141181561Y-101049876D01*
X141229180Y-101145114D01*
X141229180Y-101335590D01*
X140705371Y-100145114D02*
X140752990Y-100002257D01*
X140800609Y-99954638D01*
X140895847Y-99907019D01*
X141038704Y-99907019D01*
X141133942Y-99954638D01*
X141181561Y-100002257D01*
X141229180Y-100097495D01*
X141229180Y-100478447D01*
X140229180Y-100478447D01*
X140229180Y-100145114D01*
X140276800Y-100049876D01*
X140324419Y-100002257D01*
X140419657Y-99954638D01*
X140514895Y-99954638D01*
X140610133Y-100002257D01*
X140657752Y-100049876D01*
X140705371Y-100145114D01*
X140705371Y-100478447D01*
X141229180Y-99335590D02*
X141181561Y-99430828D01*
X141133942Y-99478447D01*
X141038704Y-99526066D01*
X140752990Y-99526066D01*
X140657752Y-99478447D01*
X140610133Y-99430828D01*
X140562514Y-99335590D01*
X140562514Y-99192733D01*
X140610133Y-99097495D01*
X140657752Y-99049876D01*
X140752990Y-99002257D01*
X141038704Y-99002257D01*
X141133942Y-99049876D01*
X141181561Y-99097495D01*
X141229180Y-99192733D01*
X141229180Y-99335590D01*
X141229180Y-98430828D02*
X141181561Y-98526066D01*
X141133942Y-98573685D01*
X141038704Y-98621304D01*
X140752990Y-98621304D01*
X140657752Y-98573685D01*
X140610133Y-98526066D01*
X140562514Y-98430828D01*
X140562514Y-98287971D01*
X140610133Y-98192733D01*
X140657752Y-98145114D01*
X140752990Y-98097495D01*
X141038704Y-98097495D01*
X141133942Y-98145114D01*
X141181561Y-98192733D01*
X141229180Y-98287971D01*
X141229180Y-98430828D01*
X141229180Y-97145114D02*
X141229180Y-97716542D01*
X141229180Y-97430828D02*
X140229180Y-97430828D01*
X140372038Y-97526066D01*
X140467276Y-97621304D01*
X140514895Y-97716542D01*
%TO.C,DBoo1*%
X113652380Y-107742857D02*
X112652380Y-107742857D01*
X112652380Y-107504761D01*
X112700000Y-107361904D01*
X112795238Y-107266666D01*
X112890476Y-107219047D01*
X113080952Y-107171428D01*
X113223809Y-107171428D01*
X113414285Y-107219047D01*
X113509523Y-107266666D01*
X113604761Y-107361904D01*
X113652380Y-107504761D01*
X113652380Y-107742857D01*
X113128571Y-106409523D02*
X113176190Y-106266666D01*
X113223809Y-106219047D01*
X113319047Y-106171428D01*
X113461904Y-106171428D01*
X113557142Y-106219047D01*
X113604761Y-106266666D01*
X113652380Y-106361904D01*
X113652380Y-106742857D01*
X112652380Y-106742857D01*
X112652380Y-106409523D01*
X112700000Y-106314285D01*
X112747619Y-106266666D01*
X112842857Y-106219047D01*
X112938095Y-106219047D01*
X113033333Y-106266666D01*
X113080952Y-106314285D01*
X113128571Y-106409523D01*
X113128571Y-106742857D01*
X113652380Y-105600000D02*
X113604761Y-105695238D01*
X113557142Y-105742857D01*
X113461904Y-105790476D01*
X113176190Y-105790476D01*
X113080952Y-105742857D01*
X113033333Y-105695238D01*
X112985714Y-105600000D01*
X112985714Y-105457142D01*
X113033333Y-105361904D01*
X113080952Y-105314285D01*
X113176190Y-105266666D01*
X113461904Y-105266666D01*
X113557142Y-105314285D01*
X113604761Y-105361904D01*
X113652380Y-105457142D01*
X113652380Y-105600000D01*
X113652380Y-104695238D02*
X113604761Y-104790476D01*
X113557142Y-104838095D01*
X113461904Y-104885714D01*
X113176190Y-104885714D01*
X113080952Y-104838095D01*
X113033333Y-104790476D01*
X112985714Y-104695238D01*
X112985714Y-104552380D01*
X113033333Y-104457142D01*
X113080952Y-104409523D01*
X113176190Y-104361904D01*
X113461904Y-104361904D01*
X113557142Y-104409523D01*
X113604761Y-104457142D01*
X113652380Y-104552380D01*
X113652380Y-104695238D01*
X113652380Y-103409523D02*
X113652380Y-103980952D01*
X113652380Y-103695238D02*
X112652380Y-103695238D01*
X112795238Y-103790476D01*
X112890476Y-103885714D01*
X112938095Y-103980952D01*
X119590666Y-100303095D02*
X119590666Y-99826904D01*
X119876380Y-100398333D02*
X118876380Y-100065000D01*
X119876380Y-99731666D01*
%TO.C,C_cv1*%
X191642857Y-115957142D02*
X191595238Y-116004761D01*
X191452380Y-116052380D01*
X191357142Y-116052380D01*
X191214285Y-116004761D01*
X191119047Y-115909523D01*
X191071428Y-115814285D01*
X191023809Y-115623809D01*
X191023809Y-115480952D01*
X191071428Y-115290476D01*
X191119047Y-115195238D01*
X191214285Y-115100000D01*
X191357142Y-115052380D01*
X191452380Y-115052380D01*
X191595238Y-115100000D01*
X191642857Y-115147619D01*
X191833333Y-116147619D02*
X192595238Y-116147619D01*
X193261904Y-116004761D02*
X193166666Y-116052380D01*
X192976190Y-116052380D01*
X192880952Y-116004761D01*
X192833333Y-115957142D01*
X192785714Y-115861904D01*
X192785714Y-115576190D01*
X192833333Y-115480952D01*
X192880952Y-115433333D01*
X192976190Y-115385714D01*
X193166666Y-115385714D01*
X193261904Y-115433333D01*
X193595238Y-115385714D02*
X193833333Y-116052380D01*
X194071428Y-115385714D01*
X194976190Y-116052380D02*
X194404761Y-116052380D01*
X194690476Y-116052380D02*
X194690476Y-115052380D01*
X194595238Y-115195238D01*
X194500000Y-115290476D01*
X194404761Y-115338095D01*
%TO.C,D2*%
X168884380Y-112395095D02*
X167884380Y-112395095D01*
X167884380Y-112157000D01*
X167932000Y-112014142D01*
X168027238Y-111918904D01*
X168122476Y-111871285D01*
X168312952Y-111823666D01*
X168455809Y-111823666D01*
X168646285Y-111871285D01*
X168741523Y-111918904D01*
X168836761Y-112014142D01*
X168884380Y-112157000D01*
X168884380Y-112395095D01*
X167979619Y-111442714D02*
X167932000Y-111395095D01*
X167884380Y-111299857D01*
X167884380Y-111061761D01*
X167932000Y-110966523D01*
X167979619Y-110918904D01*
X168074857Y-110871285D01*
X168170095Y-110871285D01*
X168312952Y-110918904D01*
X168884380Y-111490333D01*
X168884380Y-110871285D01*
X164012666Y-113327095D02*
X164012666Y-112850904D01*
X164298380Y-113422333D02*
X163298380Y-113089000D01*
X164298380Y-112755666D01*
D11*
%TO.C,D_GREEN1*%
X173525190Y-95677790D02*
X173525190Y-95177790D01*
X173644238Y-95177790D01*
X173715666Y-95201600D01*
X173763285Y-95249219D01*
X173787095Y-95296838D01*
X173810904Y-95392076D01*
X173810904Y-95463504D01*
X173787095Y-95558742D01*
X173763285Y-95606361D01*
X173715666Y-95653980D01*
X173644238Y-95677790D01*
X173525190Y-95677790D01*
X173906142Y-95725409D02*
X174287095Y-95725409D01*
X174668047Y-95201600D02*
X174620428Y-95177790D01*
X174549000Y-95177790D01*
X174477571Y-95201600D01*
X174429952Y-95249219D01*
X174406142Y-95296838D01*
X174382333Y-95392076D01*
X174382333Y-95463504D01*
X174406142Y-95558742D01*
X174429952Y-95606361D01*
X174477571Y-95653980D01*
X174549000Y-95677790D01*
X174596619Y-95677790D01*
X174668047Y-95653980D01*
X174691857Y-95630171D01*
X174691857Y-95463504D01*
X174596619Y-95463504D01*
X175191857Y-95677790D02*
X175025190Y-95439695D01*
X174906142Y-95677790D02*
X174906142Y-95177790D01*
X175096619Y-95177790D01*
X175144238Y-95201600D01*
X175168047Y-95225409D01*
X175191857Y-95273028D01*
X175191857Y-95344457D01*
X175168047Y-95392076D01*
X175144238Y-95415885D01*
X175096619Y-95439695D01*
X174906142Y-95439695D01*
X175406142Y-95415885D02*
X175572809Y-95415885D01*
X175644238Y-95677790D02*
X175406142Y-95677790D01*
X175406142Y-95177790D01*
X175644238Y-95177790D01*
X175858523Y-95415885D02*
X176025190Y-95415885D01*
X176096619Y-95677790D02*
X175858523Y-95677790D01*
X175858523Y-95177790D01*
X176096619Y-95177790D01*
X176310904Y-95677790D02*
X176310904Y-95177790D01*
X176596619Y-95677790D01*
X176596619Y-95177790D01*
X177096619Y-95677790D02*
X176810904Y-95677790D01*
X176953761Y-95677790D02*
X176953761Y-95177790D01*
X176906142Y-95249219D01*
X176858523Y-95296838D01*
X176810904Y-95320647D01*
D10*
%TO.C,UB3v3*%
X151627380Y-103019047D02*
X152436904Y-103019047D01*
X152532142Y-102971428D01*
X152579761Y-102923809D01*
X152627380Y-102828571D01*
X152627380Y-102638095D01*
X152579761Y-102542857D01*
X152532142Y-102495238D01*
X152436904Y-102447619D01*
X151627380Y-102447619D01*
X152103571Y-101638095D02*
X152151190Y-101495238D01*
X152198809Y-101447619D01*
X152294047Y-101400000D01*
X152436904Y-101400000D01*
X152532142Y-101447619D01*
X152579761Y-101495238D01*
X152627380Y-101590476D01*
X152627380Y-101971428D01*
X151627380Y-101971428D01*
X151627380Y-101638095D01*
X151675000Y-101542857D01*
X151722619Y-101495238D01*
X151817857Y-101447619D01*
X151913095Y-101447619D01*
X152008333Y-101495238D01*
X152055952Y-101542857D01*
X152103571Y-101638095D01*
X152103571Y-101971428D01*
X151627380Y-101066666D02*
X151627380Y-100447619D01*
X152008333Y-100780952D01*
X152008333Y-100638095D01*
X152055952Y-100542857D01*
X152103571Y-100495238D01*
X152198809Y-100447619D01*
X152436904Y-100447619D01*
X152532142Y-100495238D01*
X152579761Y-100542857D01*
X152627380Y-100638095D01*
X152627380Y-100923809D01*
X152579761Y-101019047D01*
X152532142Y-101066666D01*
X151960714Y-100114285D02*
X152627380Y-99876190D01*
X151960714Y-99638095D01*
X151627380Y-99352380D02*
X151627380Y-98733333D01*
X152008333Y-99066666D01*
X152008333Y-98923809D01*
X152055952Y-98828571D01*
X152103571Y-98780952D01*
X152198809Y-98733333D01*
X152436904Y-98733333D01*
X152532142Y-98780952D01*
X152579761Y-98828571D01*
X152627380Y-98923809D01*
X152627380Y-99209523D01*
X152579761Y-99304761D01*
X152532142Y-99352380D01*
%TO.C,LB5*%
X131108933Y-117728180D02*
X130632742Y-117728180D01*
X130632742Y-116728180D01*
X131775600Y-117204371D02*
X131918457Y-117251990D01*
X131966076Y-117299609D01*
X132013695Y-117394847D01*
X132013695Y-117537704D01*
X131966076Y-117632942D01*
X131918457Y-117680561D01*
X131823219Y-117728180D01*
X131442266Y-117728180D01*
X131442266Y-116728180D01*
X131775600Y-116728180D01*
X131870838Y-116775800D01*
X131918457Y-116823419D01*
X131966076Y-116918657D01*
X131966076Y-117013895D01*
X131918457Y-117109133D01*
X131870838Y-117156752D01*
X131775600Y-117204371D01*
X131442266Y-117204371D01*
X132918457Y-116728180D02*
X132442266Y-116728180D01*
X132394647Y-117204371D01*
X132442266Y-117156752D01*
X132537504Y-117109133D01*
X132775600Y-117109133D01*
X132870838Y-117156752D01*
X132918457Y-117204371D01*
X132966076Y-117299609D01*
X132966076Y-117537704D01*
X132918457Y-117632942D01*
X132870838Y-117680561D01*
X132775600Y-117728180D01*
X132537504Y-117728180D01*
X132442266Y-117680561D01*
X132394647Y-117632942D01*
%TO.C,Crec1*%
X176866666Y-141957142D02*
X176819047Y-142004761D01*
X176676190Y-142052380D01*
X176580952Y-142052380D01*
X176438095Y-142004761D01*
X176342857Y-141909523D01*
X176295238Y-141814285D01*
X176247619Y-141623809D01*
X176247619Y-141480952D01*
X176295238Y-141290476D01*
X176342857Y-141195238D01*
X176438095Y-141100000D01*
X176580952Y-141052380D01*
X176676190Y-141052380D01*
X176819047Y-141100000D01*
X176866666Y-141147619D01*
X177295238Y-142052380D02*
X177295238Y-141385714D01*
X177295238Y-141576190D02*
X177342857Y-141480952D01*
X177390476Y-141433333D01*
X177485714Y-141385714D01*
X177580952Y-141385714D01*
X178295238Y-142004761D02*
X178200000Y-142052380D01*
X178009523Y-142052380D01*
X177914285Y-142004761D01*
X177866666Y-141909523D01*
X177866666Y-141528571D01*
X177914285Y-141433333D01*
X178009523Y-141385714D01*
X178200000Y-141385714D01*
X178295238Y-141433333D01*
X178342857Y-141528571D01*
X178342857Y-141623809D01*
X177866666Y-141719047D01*
X179200000Y-142004761D02*
X179104761Y-142052380D01*
X178914285Y-142052380D01*
X178819047Y-142004761D01*
X178771428Y-141957142D01*
X178723809Y-141861904D01*
X178723809Y-141576190D01*
X178771428Y-141480952D01*
X178819047Y-141433333D01*
X178914285Y-141385714D01*
X179104761Y-141385714D01*
X179200000Y-141433333D01*
X180152380Y-142052380D02*
X179580952Y-142052380D01*
X179866666Y-142052380D02*
X179866666Y-141052380D01*
X179771428Y-141195238D01*
X179676190Y-141290476D01*
X179580952Y-141338095D01*
%TO.C,D_S1*%
X176404761Y-133652380D02*
X176404761Y-132652380D01*
X176642857Y-132652380D01*
X176785714Y-132700000D01*
X176880952Y-132795238D01*
X176928571Y-132890476D01*
X176976190Y-133080952D01*
X176976190Y-133223809D01*
X176928571Y-133414285D01*
X176880952Y-133509523D01*
X176785714Y-133604761D01*
X176642857Y-133652380D01*
X176404761Y-133652380D01*
X177166666Y-133747619D02*
X177928571Y-133747619D01*
X178119047Y-133604761D02*
X178261904Y-133652380D01*
X178500000Y-133652380D01*
X178595238Y-133604761D01*
X178642857Y-133557142D01*
X178690476Y-133461904D01*
X178690476Y-133366666D01*
X178642857Y-133271428D01*
X178595238Y-133223809D01*
X178500000Y-133176190D01*
X178309523Y-133128571D01*
X178214285Y-133080952D01*
X178166666Y-133033333D01*
X178119047Y-132938095D01*
X178119047Y-132842857D01*
X178166666Y-132747619D01*
X178214285Y-132700000D01*
X178309523Y-132652380D01*
X178547619Y-132652380D01*
X178690476Y-132700000D01*
X179642857Y-133652380D02*
X179071428Y-133652380D01*
X179357142Y-133652380D02*
X179357142Y-132652380D01*
X179261904Y-132795238D01*
X179166666Y-132890476D01*
X179071428Y-132938095D01*
X184029904Y-131986666D02*
X184506095Y-131986666D01*
X183934666Y-132272380D02*
X184268000Y-131272380D01*
X184601333Y-132272380D01*
%TO.C,RI2C2*%
X187889980Y-96879552D02*
X187413790Y-97212885D01*
X187889980Y-97450980D02*
X186889980Y-97450980D01*
X186889980Y-97070028D01*
X186937600Y-96974790D01*
X186985219Y-96927171D01*
X187080457Y-96879552D01*
X187223314Y-96879552D01*
X187318552Y-96927171D01*
X187366171Y-96974790D01*
X187413790Y-97070028D01*
X187413790Y-97450980D01*
X187889980Y-96450980D02*
X186889980Y-96450980D01*
X186985219Y-96022409D02*
X186937600Y-95974790D01*
X186889980Y-95879552D01*
X186889980Y-95641457D01*
X186937600Y-95546219D01*
X186985219Y-95498600D01*
X187080457Y-95450980D01*
X187175695Y-95450980D01*
X187318552Y-95498600D01*
X187889980Y-96070028D01*
X187889980Y-95450980D01*
X187794742Y-94450980D02*
X187842361Y-94498600D01*
X187889980Y-94641457D01*
X187889980Y-94736695D01*
X187842361Y-94879552D01*
X187747123Y-94974790D01*
X187651885Y-95022409D01*
X187461409Y-95070028D01*
X187318552Y-95070028D01*
X187128076Y-95022409D01*
X187032838Y-94974790D01*
X186937600Y-94879552D01*
X186889980Y-94736695D01*
X186889980Y-94641457D01*
X186937600Y-94498600D01*
X186985219Y-94450980D01*
X186985219Y-94070028D02*
X186937600Y-94022409D01*
X186889980Y-93927171D01*
X186889980Y-93689076D01*
X186937600Y-93593838D01*
X186985219Y-93546219D01*
X187080457Y-93498600D01*
X187175695Y-93498600D01*
X187318552Y-93546219D01*
X187889980Y-94117647D01*
X187889980Y-93498600D01*
%TO.C,R4*%
X153892380Y-73031666D02*
X153416190Y-73365000D01*
X153892380Y-73603095D02*
X152892380Y-73603095D01*
X152892380Y-73222142D01*
X152940000Y-73126904D01*
X152987619Y-73079285D01*
X153082857Y-73031666D01*
X153225714Y-73031666D01*
X153320952Y-73079285D01*
X153368571Y-73126904D01*
X153416190Y-73222142D01*
X153416190Y-73603095D01*
X153225714Y-72174523D02*
X153892380Y-72174523D01*
X152844761Y-72412619D02*
X153559047Y-72650714D01*
X153559047Y-72031666D01*
%TO.C,R_p1*%
X132942380Y-78320000D02*
X132466190Y-78653333D01*
X132942380Y-78891428D02*
X131942380Y-78891428D01*
X131942380Y-78510476D01*
X131990000Y-78415238D01*
X132037619Y-78367619D01*
X132132857Y-78320000D01*
X132275714Y-78320000D01*
X132370952Y-78367619D01*
X132418571Y-78415238D01*
X132466190Y-78510476D01*
X132466190Y-78891428D01*
X133037619Y-78129523D02*
X133037619Y-77367619D01*
X132275714Y-77129523D02*
X133275714Y-77129523D01*
X132323333Y-77129523D02*
X132275714Y-77034285D01*
X132275714Y-76843809D01*
X132323333Y-76748571D01*
X132370952Y-76700952D01*
X132466190Y-76653333D01*
X132751904Y-76653333D01*
X132847142Y-76700952D01*
X132894761Y-76748571D01*
X132942380Y-76843809D01*
X132942380Y-77034285D01*
X132894761Y-77129523D01*
X132942380Y-75700952D02*
X132942380Y-76272380D01*
X132942380Y-75986666D02*
X131942380Y-75986666D01*
X132085238Y-76081904D01*
X132180476Y-76177142D01*
X132228095Y-76272380D01*
%TO.C,B1*%
X120278920Y-90925987D02*
X120422015Y-90973685D01*
X120469713Y-91021384D01*
X120517411Y-91116780D01*
X120517411Y-91259874D01*
X120469713Y-91355271D01*
X120422015Y-91402969D01*
X120326618Y-91450667D01*
X119945033Y-91450667D01*
X119945033Y-90449006D01*
X120278920Y-90449006D01*
X120374317Y-90496704D01*
X120422015Y-90544402D01*
X120469713Y-90639798D01*
X120469713Y-90735195D01*
X120422015Y-90830591D01*
X120374317Y-90878289D01*
X120278920Y-90925987D01*
X119945033Y-90925987D01*
X121471374Y-91450667D02*
X120898996Y-91450667D01*
X121185185Y-91450667D02*
X121185185Y-90449006D01*
X121089789Y-90592100D01*
X120994392Y-90687497D01*
X120898996Y-90735195D01*
%TO.C,Cby2*%
X199757142Y-113800000D02*
X199804761Y-113847619D01*
X199852380Y-113990476D01*
X199852380Y-114085714D01*
X199804761Y-114228571D01*
X199709523Y-114323809D01*
X199614285Y-114371428D01*
X199423809Y-114419047D01*
X199280952Y-114419047D01*
X199090476Y-114371428D01*
X198995238Y-114323809D01*
X198900000Y-114228571D01*
X198852380Y-114085714D01*
X198852380Y-113990476D01*
X198900000Y-113847619D01*
X198947619Y-113800000D01*
X199852380Y-113371428D02*
X198852380Y-113371428D01*
X199233333Y-113371428D02*
X199185714Y-113276190D01*
X199185714Y-113085714D01*
X199233333Y-112990476D01*
X199280952Y-112942857D01*
X199376190Y-112895238D01*
X199661904Y-112895238D01*
X199757142Y-112942857D01*
X199804761Y-112990476D01*
X199852380Y-113085714D01*
X199852380Y-113276190D01*
X199804761Y-113371428D01*
X199185714Y-112561904D02*
X199852380Y-112323809D01*
X199185714Y-112085714D02*
X199852380Y-112323809D01*
X200090476Y-112419047D01*
X200138095Y-112466666D01*
X200185714Y-112561904D01*
X198947619Y-111752380D02*
X198900000Y-111704761D01*
X198852380Y-111609523D01*
X198852380Y-111371428D01*
X198900000Y-111276190D01*
X198947619Y-111228571D01*
X199042857Y-111180952D01*
X199138095Y-111180952D01*
X199280952Y-111228571D01*
X199852380Y-111800000D01*
X199852380Y-111180952D01*
D11*
%TO.C,R_GREEN1*%
X178150704Y-95978790D02*
X177984038Y-95740695D01*
X177864990Y-95978790D02*
X177864990Y-95478790D01*
X178055466Y-95478790D01*
X178103085Y-95502600D01*
X178126895Y-95526409D01*
X178150704Y-95574028D01*
X178150704Y-95645457D01*
X178126895Y-95693076D01*
X178103085Y-95716885D01*
X178055466Y-95740695D01*
X177864990Y-95740695D01*
X178245942Y-96026409D02*
X178626895Y-96026409D01*
X179007847Y-95502600D02*
X178960228Y-95478790D01*
X178888800Y-95478790D01*
X178817371Y-95502600D01*
X178769752Y-95550219D01*
X178745942Y-95597838D01*
X178722133Y-95693076D01*
X178722133Y-95764504D01*
X178745942Y-95859742D01*
X178769752Y-95907361D01*
X178817371Y-95954980D01*
X178888800Y-95978790D01*
X178936419Y-95978790D01*
X179007847Y-95954980D01*
X179031657Y-95931171D01*
X179031657Y-95764504D01*
X178936419Y-95764504D01*
X179531657Y-95978790D02*
X179364990Y-95740695D01*
X179245942Y-95978790D02*
X179245942Y-95478790D01*
X179436419Y-95478790D01*
X179484038Y-95502600D01*
X179507847Y-95526409D01*
X179531657Y-95574028D01*
X179531657Y-95645457D01*
X179507847Y-95693076D01*
X179484038Y-95716885D01*
X179436419Y-95740695D01*
X179245942Y-95740695D01*
X179745942Y-95716885D02*
X179912609Y-95716885D01*
X179984038Y-95978790D02*
X179745942Y-95978790D01*
X179745942Y-95478790D01*
X179984038Y-95478790D01*
X180198323Y-95716885D02*
X180364990Y-95716885D01*
X180436419Y-95978790D02*
X180198323Y-95978790D01*
X180198323Y-95478790D01*
X180436419Y-95478790D01*
X180650704Y-95978790D02*
X180650704Y-95478790D01*
X180936419Y-95978790D01*
X180936419Y-95478790D01*
X181436419Y-95978790D02*
X181150704Y-95978790D01*
X181293561Y-95978790D02*
X181293561Y-95478790D01*
X181245942Y-95550219D01*
X181198323Y-95597838D01*
X181150704Y-95621647D01*
D10*
%TO.C,UB5v0*%
X149274952Y-131904780D02*
X149274952Y-132714304D01*
X149322571Y-132809542D01*
X149370190Y-132857161D01*
X149465428Y-132904780D01*
X149655904Y-132904780D01*
X149751142Y-132857161D01*
X149798761Y-132809542D01*
X149846380Y-132714304D01*
X149846380Y-131904780D01*
X150655904Y-132380971D02*
X150798761Y-132428590D01*
X150846380Y-132476209D01*
X150894000Y-132571447D01*
X150894000Y-132714304D01*
X150846380Y-132809542D01*
X150798761Y-132857161D01*
X150703523Y-132904780D01*
X150322571Y-132904780D01*
X150322571Y-131904780D01*
X150655904Y-131904780D01*
X150751142Y-131952400D01*
X150798761Y-132000019D01*
X150846380Y-132095257D01*
X150846380Y-132190495D01*
X150798761Y-132285733D01*
X150751142Y-132333352D01*
X150655904Y-132380971D01*
X150322571Y-132380971D01*
X151798761Y-131904780D02*
X151322571Y-131904780D01*
X151274952Y-132380971D01*
X151322571Y-132333352D01*
X151417809Y-132285733D01*
X151655904Y-132285733D01*
X151751142Y-132333352D01*
X151798761Y-132380971D01*
X151846380Y-132476209D01*
X151846380Y-132714304D01*
X151798761Y-132809542D01*
X151751142Y-132857161D01*
X151655904Y-132904780D01*
X151417809Y-132904780D01*
X151322571Y-132857161D01*
X151274952Y-132809542D01*
X152179714Y-132238114D02*
X152417809Y-132904780D01*
X152655904Y-132238114D01*
X153227333Y-131904780D02*
X153322571Y-131904780D01*
X153417809Y-131952400D01*
X153465428Y-132000019D01*
X153513047Y-132095257D01*
X153560666Y-132285733D01*
X153560666Y-132523828D01*
X153513047Y-132714304D01*
X153465428Y-132809542D01*
X153417809Y-132857161D01*
X153322571Y-132904780D01*
X153227333Y-132904780D01*
X153132095Y-132857161D01*
X153084476Y-132809542D01*
X153036857Y-132714304D01*
X152989238Y-132523828D01*
X152989238Y-132285733D01*
X153036857Y-132095257D01*
X153084476Y-132000019D01*
X153132095Y-131952400D01*
X153227333Y-131904780D01*
%TO.C,Ro1*%
X188090380Y-109096647D02*
X187614190Y-109429980D01*
X188090380Y-109668076D02*
X187090380Y-109668076D01*
X187090380Y-109287123D01*
X187138000Y-109191885D01*
X187185619Y-109144266D01*
X187280857Y-109096647D01*
X187423714Y-109096647D01*
X187518952Y-109144266D01*
X187566571Y-109191885D01*
X187614190Y-109287123D01*
X187614190Y-109668076D01*
X188090380Y-108525219D02*
X188042761Y-108620457D01*
X187995142Y-108668076D01*
X187899904Y-108715695D01*
X187614190Y-108715695D01*
X187518952Y-108668076D01*
X187471333Y-108620457D01*
X187423714Y-108525219D01*
X187423714Y-108382361D01*
X187471333Y-108287123D01*
X187518952Y-108239504D01*
X187614190Y-108191885D01*
X187899904Y-108191885D01*
X187995142Y-108239504D01*
X188042761Y-108287123D01*
X188090380Y-108382361D01*
X188090380Y-108525219D01*
X188090380Y-107239504D02*
X188090380Y-107810933D01*
X188090380Y-107525219D02*
X187090380Y-107525219D01*
X187233238Y-107620457D01*
X187328476Y-107715695D01*
X187376095Y-107810933D01*
%TO.C,J_M2*%
X112136780Y-97241514D02*
X112851066Y-97241514D01*
X112993923Y-97289133D01*
X113089161Y-97384371D01*
X113136780Y-97527228D01*
X113136780Y-97622466D01*
X113232019Y-97003419D02*
X113232019Y-96241514D01*
X113136780Y-96003419D02*
X112136780Y-96003419D01*
X112851066Y-95670085D01*
X112136780Y-95336752D01*
X113136780Y-95336752D01*
X112232019Y-94908180D02*
X112184400Y-94860561D01*
X112136780Y-94765323D01*
X112136780Y-94527228D01*
X112184400Y-94431990D01*
X112232019Y-94384371D01*
X112327257Y-94336752D01*
X112422495Y-94336752D01*
X112565352Y-94384371D01*
X113136780Y-94955800D01*
X113136780Y-94336752D01*
%TO.C,C_by1*%
X184615142Y-113897552D02*
X184662761Y-113945171D01*
X184710380Y-114088028D01*
X184710380Y-114183266D01*
X184662761Y-114326123D01*
X184567523Y-114421361D01*
X184472285Y-114468980D01*
X184281809Y-114516600D01*
X184138952Y-114516600D01*
X183948476Y-114468980D01*
X183853238Y-114421361D01*
X183758000Y-114326123D01*
X183710380Y-114183266D01*
X183710380Y-114088028D01*
X183758000Y-113945171D01*
X183805619Y-113897552D01*
X184805619Y-113707076D02*
X184805619Y-112945171D01*
X184710380Y-112707076D02*
X183710380Y-112707076D01*
X184091333Y-112707076D02*
X184043714Y-112611838D01*
X184043714Y-112421361D01*
X184091333Y-112326123D01*
X184138952Y-112278504D01*
X184234190Y-112230885D01*
X184519904Y-112230885D01*
X184615142Y-112278504D01*
X184662761Y-112326123D01*
X184710380Y-112421361D01*
X184710380Y-112611838D01*
X184662761Y-112707076D01*
X184043714Y-111897552D02*
X184710380Y-111659457D01*
X184043714Y-111421361D02*
X184710380Y-111659457D01*
X184948476Y-111754695D01*
X184996095Y-111802314D01*
X185043714Y-111897552D01*
X184710380Y-110516600D02*
X184710380Y-111088028D01*
X184710380Y-110802314D02*
X183710380Y-110802314D01*
X183853238Y-110897552D01*
X183948476Y-110992790D01*
X183996095Y-111088028D01*
%TO.C,J_I2C1*%
X196271428Y-96652380D02*
X196271428Y-97366666D01*
X196223809Y-97509523D01*
X196128571Y-97604761D01*
X195985714Y-97652380D01*
X195890476Y-97652380D01*
X196509523Y-97747619D02*
X197271428Y-97747619D01*
X197509523Y-97652380D02*
X197509523Y-96652380D01*
X197938095Y-96747619D02*
X197985714Y-96700000D01*
X198080952Y-96652380D01*
X198319047Y-96652380D01*
X198414285Y-96700000D01*
X198461904Y-96747619D01*
X198509523Y-96842857D01*
X198509523Y-96938095D01*
X198461904Y-97080952D01*
X197890476Y-97652380D01*
X198509523Y-97652380D01*
X199509523Y-97557142D02*
X199461904Y-97604761D01*
X199319047Y-97652380D01*
X199223809Y-97652380D01*
X199080952Y-97604761D01*
X198985714Y-97509523D01*
X198938095Y-97414285D01*
X198890476Y-97223809D01*
X198890476Y-97080952D01*
X198938095Y-96890476D01*
X198985714Y-96795238D01*
X199080952Y-96700000D01*
X199223809Y-96652380D01*
X199319047Y-96652380D01*
X199461904Y-96700000D01*
X199509523Y-96747619D01*
X200461904Y-97652380D02*
X199890476Y-97652380D01*
X200176190Y-97652380D02*
X200176190Y-96652380D01*
X200080952Y-96795238D01*
X199985714Y-96890476D01*
X199890476Y-96938095D01*
%TO.C,RMISO1*%
X146452380Y-72921190D02*
X145976190Y-73254523D01*
X146452380Y-73492619D02*
X145452380Y-73492619D01*
X145452380Y-73111666D01*
X145500000Y-73016428D01*
X145547619Y-72968809D01*
X145642857Y-72921190D01*
X145785714Y-72921190D01*
X145880952Y-72968809D01*
X145928571Y-73016428D01*
X145976190Y-73111666D01*
X145976190Y-73492619D01*
X146452380Y-72492619D02*
X145452380Y-72492619D01*
X146166666Y-72159285D01*
X145452380Y-71825952D01*
X146452380Y-71825952D01*
X146452380Y-71349761D02*
X145452380Y-71349761D01*
X146404761Y-70921190D02*
X146452380Y-70778333D01*
X146452380Y-70540238D01*
X146404761Y-70445000D01*
X146357142Y-70397380D01*
X146261904Y-70349761D01*
X146166666Y-70349761D01*
X146071428Y-70397380D01*
X146023809Y-70445000D01*
X145976190Y-70540238D01*
X145928571Y-70730714D01*
X145880952Y-70825952D01*
X145833333Y-70873571D01*
X145738095Y-70921190D01*
X145642857Y-70921190D01*
X145547619Y-70873571D01*
X145500000Y-70825952D01*
X145452380Y-70730714D01*
X145452380Y-70492619D01*
X145500000Y-70349761D01*
X145452380Y-69730714D02*
X145452380Y-69540238D01*
X145500000Y-69445000D01*
X145595238Y-69349761D01*
X145785714Y-69302142D01*
X146119047Y-69302142D01*
X146309523Y-69349761D01*
X146404761Y-69445000D01*
X146452380Y-69540238D01*
X146452380Y-69730714D01*
X146404761Y-69825952D01*
X146309523Y-69921190D01*
X146119047Y-69968809D01*
X145785714Y-69968809D01*
X145595238Y-69921190D01*
X145500000Y-69825952D01*
X145452380Y-69730714D01*
X146452380Y-68349761D02*
X146452380Y-68921190D01*
X146452380Y-68635476D02*
X145452380Y-68635476D01*
X145595238Y-68730714D01*
X145690476Y-68825952D01*
X145738095Y-68921190D01*
%TO.C,J_M1*%
X108114285Y-59052380D02*
X108114285Y-59766666D01*
X108066666Y-59909523D01*
X107971428Y-60004761D01*
X107828571Y-60052380D01*
X107733333Y-60052380D01*
X108352380Y-60147619D02*
X109114285Y-60147619D01*
X109352380Y-60052380D02*
X109352380Y-59052380D01*
X109685714Y-59766666D01*
X110019047Y-59052380D01*
X110019047Y-60052380D01*
X111019047Y-60052380D02*
X110447619Y-60052380D01*
X110733333Y-60052380D02*
X110733333Y-59052380D01*
X110638095Y-59195238D01*
X110542857Y-59290476D01*
X110447619Y-59338095D01*
%TO.C,J_prog1*%
X119599847Y-62997780D02*
X119599847Y-63712066D01*
X119552228Y-63854923D01*
X119456990Y-63950161D01*
X119314133Y-63997780D01*
X119218895Y-63997780D01*
X119837942Y-64093019D02*
X120599847Y-64093019D01*
X120837942Y-63331114D02*
X120837942Y-64331114D01*
X120837942Y-63378733D02*
X120933180Y-63331114D01*
X121123657Y-63331114D01*
X121218895Y-63378733D01*
X121266514Y-63426352D01*
X121314133Y-63521590D01*
X121314133Y-63807304D01*
X121266514Y-63902542D01*
X121218895Y-63950161D01*
X121123657Y-63997780D01*
X120933180Y-63997780D01*
X120837942Y-63950161D01*
X121742704Y-63997780D02*
X121742704Y-63331114D01*
X121742704Y-63521590D02*
X121790323Y-63426352D01*
X121837942Y-63378733D01*
X121933180Y-63331114D01*
X122028419Y-63331114D01*
X122504609Y-63997780D02*
X122409371Y-63950161D01*
X122361752Y-63902542D01*
X122314133Y-63807304D01*
X122314133Y-63521590D01*
X122361752Y-63426352D01*
X122409371Y-63378733D01*
X122504609Y-63331114D01*
X122647466Y-63331114D01*
X122742704Y-63378733D01*
X122790323Y-63426352D01*
X122837942Y-63521590D01*
X122837942Y-63807304D01*
X122790323Y-63902542D01*
X122742704Y-63950161D01*
X122647466Y-63997780D01*
X122504609Y-63997780D01*
X123695085Y-63331114D02*
X123695085Y-64140638D01*
X123647466Y-64235876D01*
X123599847Y-64283495D01*
X123504609Y-64331114D01*
X123361752Y-64331114D01*
X123266514Y-64283495D01*
X123695085Y-63950161D02*
X123599847Y-63997780D01*
X123409371Y-63997780D01*
X123314133Y-63950161D01*
X123266514Y-63902542D01*
X123218895Y-63807304D01*
X123218895Y-63521590D01*
X123266514Y-63426352D01*
X123314133Y-63378733D01*
X123409371Y-63331114D01*
X123599847Y-63331114D01*
X123695085Y-63378733D01*
X124695085Y-63997780D02*
X124123657Y-63997780D01*
X124409371Y-63997780D02*
X124409371Y-62997780D01*
X124314133Y-63140638D01*
X124218895Y-63235876D01*
X124123657Y-63283495D01*
%TO.C,RBtn2*%
X143295238Y-88877380D02*
X142961904Y-88401190D01*
X142723809Y-88877380D02*
X142723809Y-87877380D01*
X143104761Y-87877380D01*
X143200000Y-87925000D01*
X143247619Y-87972619D01*
X143295238Y-88067857D01*
X143295238Y-88210714D01*
X143247619Y-88305952D01*
X143200000Y-88353571D01*
X143104761Y-88401190D01*
X142723809Y-88401190D01*
X144057142Y-88353571D02*
X144200000Y-88401190D01*
X144247619Y-88448809D01*
X144295238Y-88544047D01*
X144295238Y-88686904D01*
X144247619Y-88782142D01*
X144200000Y-88829761D01*
X144104761Y-88877380D01*
X143723809Y-88877380D01*
X143723809Y-87877380D01*
X144057142Y-87877380D01*
X144152380Y-87925000D01*
X144200000Y-87972619D01*
X144247619Y-88067857D01*
X144247619Y-88163095D01*
X144200000Y-88258333D01*
X144152380Y-88305952D01*
X144057142Y-88353571D01*
X143723809Y-88353571D01*
X144580952Y-88210714D02*
X144961904Y-88210714D01*
X144723809Y-87877380D02*
X144723809Y-88734523D01*
X144771428Y-88829761D01*
X144866666Y-88877380D01*
X144961904Y-88877380D01*
X145295238Y-88210714D02*
X145295238Y-88877380D01*
X145295238Y-88305952D02*
X145342857Y-88258333D01*
X145438095Y-88210714D01*
X145580952Y-88210714D01*
X145676190Y-88258333D01*
X145723809Y-88353571D01*
X145723809Y-88877380D01*
X146152380Y-87972619D02*
X146200000Y-87925000D01*
X146295238Y-87877380D01*
X146533333Y-87877380D01*
X146628571Y-87925000D01*
X146676190Y-87972619D01*
X146723809Y-88067857D01*
X146723809Y-88163095D01*
X146676190Y-88305952D01*
X146104761Y-88877380D01*
X146723809Y-88877380D01*
%TO.C,DB3*%
X134452380Y-113438095D02*
X133452380Y-113438095D01*
X133452380Y-113200000D01*
X133500000Y-113057142D01*
X133595238Y-112961904D01*
X133690476Y-112914285D01*
X133880952Y-112866666D01*
X134023809Y-112866666D01*
X134214285Y-112914285D01*
X134309523Y-112961904D01*
X134404761Y-113057142D01*
X134452380Y-113200000D01*
X134452380Y-113438095D01*
X133928571Y-112104761D02*
X133976190Y-111961904D01*
X134023809Y-111914285D01*
X134119047Y-111866666D01*
X134261904Y-111866666D01*
X134357142Y-111914285D01*
X134404761Y-111961904D01*
X134452380Y-112057142D01*
X134452380Y-112438095D01*
X133452380Y-112438095D01*
X133452380Y-112104761D01*
X133500000Y-112009523D01*
X133547619Y-111961904D01*
X133642857Y-111914285D01*
X133738095Y-111914285D01*
X133833333Y-111961904D01*
X133880952Y-112009523D01*
X133928571Y-112104761D01*
X133928571Y-112438095D01*
X133452380Y-111533333D02*
X133452380Y-110914285D01*
X133833333Y-111247619D01*
X133833333Y-111104761D01*
X133880952Y-111009523D01*
X133928571Y-110961904D01*
X134023809Y-110914285D01*
X134261904Y-110914285D01*
X134357142Y-110961904D01*
X134404761Y-111009523D01*
X134452380Y-111104761D01*
X134452380Y-111390476D01*
X134404761Y-111485714D01*
X134357142Y-111533333D01*
X142631104Y-114729266D02*
X143107295Y-114729266D01*
X142535866Y-115014980D02*
X142869200Y-114014980D01*
X143202533Y-115014980D01*
%TO.C,RBtn1*%
X126779638Y-92828780D02*
X126446304Y-92352590D01*
X126208209Y-92828780D02*
X126208209Y-91828780D01*
X126589161Y-91828780D01*
X126684400Y-91876400D01*
X126732019Y-91924019D01*
X126779638Y-92019257D01*
X126779638Y-92162114D01*
X126732019Y-92257352D01*
X126684400Y-92304971D01*
X126589161Y-92352590D01*
X126208209Y-92352590D01*
X127541542Y-92304971D02*
X127684400Y-92352590D01*
X127732019Y-92400209D01*
X127779638Y-92495447D01*
X127779638Y-92638304D01*
X127732019Y-92733542D01*
X127684400Y-92781161D01*
X127589161Y-92828780D01*
X127208209Y-92828780D01*
X127208209Y-91828780D01*
X127541542Y-91828780D01*
X127636780Y-91876400D01*
X127684400Y-91924019D01*
X127732019Y-92019257D01*
X127732019Y-92114495D01*
X127684400Y-92209733D01*
X127636780Y-92257352D01*
X127541542Y-92304971D01*
X127208209Y-92304971D01*
X128065352Y-92162114D02*
X128446304Y-92162114D01*
X128208209Y-91828780D02*
X128208209Y-92685923D01*
X128255828Y-92781161D01*
X128351066Y-92828780D01*
X128446304Y-92828780D01*
X128779638Y-92162114D02*
X128779638Y-92828780D01*
X128779638Y-92257352D02*
X128827257Y-92209733D01*
X128922495Y-92162114D01*
X129065352Y-92162114D01*
X129160590Y-92209733D01*
X129208209Y-92304971D01*
X129208209Y-92828780D01*
X130208209Y-92828780D02*
X129636780Y-92828780D01*
X129922495Y-92828780D02*
X129922495Y-91828780D01*
X129827257Y-91971638D01*
X129732019Y-92066876D01*
X129636780Y-92114495D01*
%TO.C,R1*%
X146452380Y-77013730D02*
X145976190Y-77347064D01*
X146452380Y-77585159D02*
X145452380Y-77585159D01*
X145452380Y-77204206D01*
X145500000Y-77108968D01*
X145547619Y-77061349D01*
X145642857Y-77013730D01*
X145785714Y-77013730D01*
X145880952Y-77061349D01*
X145928571Y-77108968D01*
X145976190Y-77204206D01*
X145976190Y-77585159D01*
X146452380Y-76061349D02*
X146452380Y-76632778D01*
X146452380Y-76347064D02*
X145452380Y-76347064D01*
X145595238Y-76442302D01*
X145690476Y-76537540D01*
X145738095Y-76632778D01*
%TO.C,Rb1*%
X199852380Y-109122447D02*
X199376190Y-109455780D01*
X199852380Y-109693876D02*
X198852380Y-109693876D01*
X198852380Y-109312923D01*
X198900000Y-109217685D01*
X198947619Y-109170066D01*
X199042857Y-109122447D01*
X199185714Y-109122447D01*
X199280952Y-109170066D01*
X199328571Y-109217685D01*
X199376190Y-109312923D01*
X199376190Y-109693876D01*
X199852380Y-108693876D02*
X198852380Y-108693876D01*
X199233333Y-108693876D02*
X199185714Y-108598638D01*
X199185714Y-108408161D01*
X199233333Y-108312923D01*
X199280952Y-108265304D01*
X199376190Y-108217685D01*
X199661904Y-108217685D01*
X199757142Y-108265304D01*
X199804761Y-108312923D01*
X199852380Y-108408161D01*
X199852380Y-108598638D01*
X199804761Y-108693876D01*
X199852380Y-107265304D02*
X199852380Y-107836733D01*
X199852380Y-107551019D02*
X198852380Y-107551019D01*
X198995238Y-107646257D01*
X199090476Y-107741495D01*
X199138095Y-107836733D01*
%TO.C,DB5*%
X151561904Y-116996380D02*
X151561904Y-115996380D01*
X151800000Y-115996380D01*
X151942857Y-116044000D01*
X152038095Y-116139238D01*
X152085714Y-116234476D01*
X152133333Y-116424952D01*
X152133333Y-116567809D01*
X152085714Y-116758285D01*
X152038095Y-116853523D01*
X151942857Y-116948761D01*
X151800000Y-116996380D01*
X151561904Y-116996380D01*
X152895238Y-116472571D02*
X153038095Y-116520190D01*
X153085714Y-116567809D01*
X153133333Y-116663047D01*
X153133333Y-116805904D01*
X153085714Y-116901142D01*
X153038095Y-116948761D01*
X152942857Y-116996380D01*
X152561904Y-116996380D01*
X152561904Y-115996380D01*
X152895238Y-115996380D01*
X152990476Y-116044000D01*
X153038095Y-116091619D01*
X153085714Y-116186857D01*
X153085714Y-116282095D01*
X153038095Y-116377333D01*
X152990476Y-116424952D01*
X152895238Y-116472571D01*
X152561904Y-116472571D01*
X154038095Y-115996380D02*
X153561904Y-115996380D01*
X153514285Y-116472571D01*
X153561904Y-116424952D01*
X153657142Y-116377333D01*
X153895238Y-116377333D01*
X153990476Y-116424952D01*
X154038095Y-116472571D01*
X154085714Y-116567809D01*
X154085714Y-116805904D01*
X154038095Y-116901142D01*
X153990476Y-116948761D01*
X153895238Y-116996380D01*
X153657142Y-116996380D01*
X153561904Y-116948761D01*
X153514285Y-116901142D01*
X159293504Y-115135666D02*
X159769695Y-115135666D01*
X159198266Y-115421380D02*
X159531600Y-114421380D01*
X159864933Y-115421380D01*
%TO.C,Lrec1*%
X161102666Y-117860380D02*
X160626476Y-117860380D01*
X160626476Y-116860380D01*
X161436000Y-117860380D02*
X161436000Y-117193714D01*
X161436000Y-117384190D02*
X161483619Y-117288952D01*
X161531238Y-117241333D01*
X161626476Y-117193714D01*
X161721714Y-117193714D01*
X162436000Y-117812761D02*
X162340761Y-117860380D01*
X162150285Y-117860380D01*
X162055047Y-117812761D01*
X162007428Y-117717523D01*
X162007428Y-117336571D01*
X162055047Y-117241333D01*
X162150285Y-117193714D01*
X162340761Y-117193714D01*
X162436000Y-117241333D01*
X162483619Y-117336571D01*
X162483619Y-117431809D01*
X162007428Y-117527047D01*
X163340761Y-117812761D02*
X163245523Y-117860380D01*
X163055047Y-117860380D01*
X162959809Y-117812761D01*
X162912190Y-117765142D01*
X162864571Y-117669904D01*
X162864571Y-117384190D01*
X162912190Y-117288952D01*
X162959809Y-117241333D01*
X163055047Y-117193714D01*
X163245523Y-117193714D01*
X163340761Y-117241333D01*
X164293142Y-117860380D02*
X163721714Y-117860380D01*
X164007428Y-117860380D02*
X164007428Y-116860380D01*
X163912190Y-117003238D01*
X163816952Y-117098476D01*
X163721714Y-117146095D01*
%TO.C,D4*%
X133050380Y-105634695D02*
X132050380Y-105634695D01*
X132050380Y-105396600D01*
X132098000Y-105253742D01*
X132193238Y-105158504D01*
X132288476Y-105110885D01*
X132478952Y-105063266D01*
X132621809Y-105063266D01*
X132812285Y-105110885D01*
X132907523Y-105158504D01*
X133002761Y-105253742D01*
X133050380Y-105396600D01*
X133050380Y-105634695D01*
X132383714Y-104206123D02*
X133050380Y-104206123D01*
X132002761Y-104444219D02*
X132717047Y-104682314D01*
X132717047Y-104063266D01*
X128198666Y-106723095D02*
X128198666Y-106246904D01*
X128484380Y-106818333D02*
X127484380Y-106485000D01*
X128484380Y-106151666D01*
%TO.C,CBy5*%
X157157142Y-122047619D02*
X157204761Y-122095238D01*
X157252380Y-122238095D01*
X157252380Y-122333333D01*
X157204761Y-122476190D01*
X157109523Y-122571428D01*
X157014285Y-122619047D01*
X156823809Y-122666666D01*
X156680952Y-122666666D01*
X156490476Y-122619047D01*
X156395238Y-122571428D01*
X156300000Y-122476190D01*
X156252380Y-122333333D01*
X156252380Y-122238095D01*
X156300000Y-122095238D01*
X156347619Y-122047619D01*
X156728571Y-121285714D02*
X156776190Y-121142857D01*
X156823809Y-121095238D01*
X156919047Y-121047619D01*
X157061904Y-121047619D01*
X157157142Y-121095238D01*
X157204761Y-121142857D01*
X157252380Y-121238095D01*
X157252380Y-121619047D01*
X156252380Y-121619047D01*
X156252380Y-121285714D01*
X156300000Y-121190476D01*
X156347619Y-121142857D01*
X156442857Y-121095238D01*
X156538095Y-121095238D01*
X156633333Y-121142857D01*
X156680952Y-121190476D01*
X156728571Y-121285714D01*
X156728571Y-121619047D01*
X156585714Y-120714285D02*
X157252380Y-120476190D01*
X156585714Y-120238095D02*
X157252380Y-120476190D01*
X157490476Y-120571428D01*
X157538095Y-120619047D01*
X157585714Y-120714285D01*
X156252380Y-119380952D02*
X156252380Y-119857142D01*
X156728571Y-119904761D01*
X156680952Y-119857142D01*
X156633333Y-119761904D01*
X156633333Y-119523809D01*
X156680952Y-119428571D01*
X156728571Y-119380952D01*
X156823809Y-119333333D01*
X157061904Y-119333333D01*
X157157142Y-119380952D01*
X157204761Y-119428571D01*
X157252380Y-119523809D01*
X157252380Y-119761904D01*
X157204761Y-119857142D01*
X157157142Y-119904761D01*
%TO.C,J_Tap_2*%
X190813137Y-121964736D02*
X190813137Y-122680208D01*
X190765439Y-122823302D01*
X190670043Y-122918699D01*
X190526949Y-122966397D01*
X190431552Y-122966397D01*
X191051628Y-123061793D02*
X191814798Y-123061793D01*
X191910195Y-121964736D02*
X192482572Y-121964736D01*
X192196384Y-122966397D02*
X192196384Y-121964736D01*
X193245743Y-122966397D02*
X193245743Y-122441717D01*
X193198045Y-122346321D01*
X193102648Y-122298623D01*
X192911856Y-122298623D01*
X192816459Y-122346321D01*
X193245743Y-122918699D02*
X193150346Y-122966397D01*
X192911856Y-122966397D01*
X192816459Y-122918699D01*
X192768761Y-122823302D01*
X192768761Y-122727906D01*
X192816459Y-122632510D01*
X192911856Y-122584812D01*
X193150346Y-122584812D01*
X193245743Y-122537114D01*
X193722724Y-122298623D02*
X193722724Y-123300284D01*
X193722724Y-122346321D02*
X193818120Y-122298623D01*
X194008913Y-122298623D01*
X194104309Y-122346321D01*
X194152007Y-122394019D01*
X194199706Y-122489415D01*
X194199706Y-122775604D01*
X194152007Y-122871001D01*
X194104309Y-122918699D01*
X194008913Y-122966397D01*
X193818120Y-122966397D01*
X193722724Y-122918699D01*
X194390498Y-123061793D02*
X195153668Y-123061793D01*
X195344461Y-122060132D02*
X195392159Y-122012434D01*
X195487555Y-121964736D01*
X195726046Y-121964736D01*
X195821442Y-122012434D01*
X195869141Y-122060132D01*
X195916839Y-122155528D01*
X195916839Y-122250925D01*
X195869141Y-122394019D01*
X195296763Y-122966397D01*
X195916839Y-122966397D01*
%TO.C,D_S2*%
X182204761Y-124852380D02*
X182204761Y-123852380D01*
X182442857Y-123852380D01*
X182585714Y-123900000D01*
X182680952Y-123995238D01*
X182728571Y-124090476D01*
X182776190Y-124280952D01*
X182776190Y-124423809D01*
X182728571Y-124614285D01*
X182680952Y-124709523D01*
X182585714Y-124804761D01*
X182442857Y-124852380D01*
X182204761Y-124852380D01*
X182966666Y-124947619D02*
X183728571Y-124947619D01*
X183919047Y-124804761D02*
X184061904Y-124852380D01*
X184300000Y-124852380D01*
X184395238Y-124804761D01*
X184442857Y-124757142D01*
X184490476Y-124661904D01*
X184490476Y-124566666D01*
X184442857Y-124471428D01*
X184395238Y-124423809D01*
X184300000Y-124376190D01*
X184109523Y-124328571D01*
X184014285Y-124280952D01*
X183966666Y-124233333D01*
X183919047Y-124138095D01*
X183919047Y-124042857D01*
X183966666Y-123947619D01*
X184014285Y-123900000D01*
X184109523Y-123852380D01*
X184347619Y-123852380D01*
X184490476Y-123900000D01*
X184871428Y-123947619D02*
X184919047Y-123900000D01*
X185014285Y-123852380D01*
X185252380Y-123852380D01*
X185347619Y-123900000D01*
X185395238Y-123947619D01*
X185442857Y-124042857D01*
X185442857Y-124138095D01*
X185395238Y-124280952D01*
X184823809Y-124852380D01*
X185442857Y-124852380D01*
X184007904Y-123096666D02*
X184484095Y-123096666D01*
X183912666Y-123382380D02*
X184246000Y-122382380D01*
X184579333Y-123382380D01*
D12*
%TO.C,J_Lector_2*%
X184194000Y-55445500D02*
X184194000Y-52025500D01*
X195684000Y-56445500D02*
X195844000Y-56445500D01*
X189834000Y-55445500D02*
X189514000Y-55445500D01*
X179404000Y-51445500D02*
X180624000Y-51445500D01*
X194834000Y-55445500D02*
X194514000Y-55445500D01*
X202124000Y-50225500D02*
X202124000Y-58645500D01*
X187334000Y-52025500D02*
X187334000Y-55445500D01*
X200904000Y-51445500D02*
X200904000Y-56445500D01*
X199194000Y-52025500D02*
X199514000Y-51945500D01*
X194194000Y-52025500D02*
X194514000Y-51945500D01*
X199514000Y-55445500D02*
X199194000Y-55445500D01*
X181714000Y-59135500D02*
X182314000Y-59135500D01*
X184514000Y-51945500D02*
X184834000Y-52025500D01*
X180624000Y-58645500D02*
X179404000Y-58645500D01*
X181694000Y-52025500D02*
X182014000Y-51945500D01*
X184514000Y-55445500D02*
X184194000Y-55445500D01*
X197014000Y-51945500D02*
X197334000Y-52025500D01*
X180624000Y-56445500D02*
X179404000Y-56445500D01*
X186694000Y-52025500D02*
X187014000Y-51945500D01*
X189194000Y-52025500D02*
X189514000Y-51945500D01*
X202124000Y-51445500D02*
X200904000Y-51445500D01*
X188184000Y-56445500D02*
X188344000Y-56445500D01*
X199834000Y-52025500D02*
X199834000Y-55445500D01*
X189514000Y-55445500D02*
X189194000Y-55445500D01*
X180624000Y-55445500D02*
X200904000Y-55445500D01*
X194194000Y-55445500D02*
X194194000Y-52025500D01*
X194514000Y-55445500D02*
X194194000Y-55445500D01*
X199194000Y-55445500D02*
X199194000Y-52025500D01*
X189514000Y-51945500D02*
X189834000Y-52025500D01*
X187014000Y-55445500D02*
X186694000Y-55445500D01*
X184834000Y-55445500D02*
X184514000Y-55445500D01*
X199834000Y-55445500D02*
X199514000Y-55445500D01*
X182014000Y-51945500D02*
X182334000Y-52025500D01*
X179404000Y-50225500D02*
X202124000Y-50225500D01*
X199514000Y-51945500D02*
X199834000Y-52025500D01*
X194834000Y-52025500D02*
X194834000Y-55445500D01*
X181694000Y-55445500D02*
X181694000Y-52025500D01*
X182014000Y-58535500D02*
X181714000Y-59135500D01*
X186694000Y-55445500D02*
X186694000Y-52025500D01*
X193184000Y-56445500D02*
X193344000Y-56445500D01*
X180624000Y-51445500D02*
X180624000Y-56445500D01*
X192334000Y-55445500D02*
X192014000Y-55445500D01*
X184834000Y-52025500D02*
X184834000Y-55445500D01*
X184194000Y-52025500D02*
X184514000Y-51945500D01*
X194514000Y-51945500D02*
X194834000Y-52025500D01*
X187334000Y-55445500D02*
X187014000Y-55445500D01*
X192334000Y-52025500D02*
X192334000Y-55445500D01*
X200904000Y-56445500D02*
X202124000Y-56445500D01*
X189194000Y-55445500D02*
X189194000Y-52025500D01*
X196694000Y-52025500D02*
X197014000Y-51945500D01*
X200904000Y-58645500D02*
X200904000Y-56445500D01*
X182334000Y-52025500D02*
X182334000Y-55445500D01*
X187014000Y-51945500D02*
X187334000Y-52025500D01*
X180624000Y-56445500D02*
X180624000Y-58645500D01*
X197014000Y-55445500D02*
X196694000Y-55445500D01*
X189834000Y-52025500D02*
X189834000Y-55445500D01*
X202124000Y-58645500D02*
X200904000Y-58645500D01*
X192014000Y-51945500D02*
X192334000Y-52025500D01*
X182014000Y-55445500D02*
X181694000Y-55445500D01*
X183184000Y-56445500D02*
X183344000Y-56445500D01*
X179404000Y-58645500D02*
X179404000Y-50225500D01*
X197334000Y-55445500D02*
X197014000Y-55445500D01*
X192014000Y-55445500D02*
X191694000Y-55445500D01*
X190684000Y-56445500D02*
X190844000Y-56445500D01*
X185684000Y-56445500D02*
X185844000Y-56445500D01*
X182334000Y-55445500D02*
X182014000Y-55445500D01*
X196694000Y-55445500D02*
X196694000Y-52025500D01*
X197334000Y-52025500D02*
X197334000Y-55445500D01*
X198184000Y-56445500D02*
X198344000Y-56445500D01*
X182314000Y-59135500D02*
X182014000Y-58535500D01*
X191694000Y-52025500D02*
X192014000Y-51945500D01*
X191694000Y-55445500D02*
X191694000Y-52025500D01*
%TO.C,FB1*%
X196388148Y-126825000D02*
X199160652Y-126825000D01*
X196388148Y-123405000D02*
X199160652Y-123405000D01*
%TO.C,D1*%
X137387600Y-105252200D02*
X136677600Y-105252200D01*
X142927600Y-105252200D02*
G75*
G03*
X142927600Y-105252200I-2770000J0D01*
G01*
%TO.C,C1*%
X135375000Y-82221248D02*
X135375000Y-82743752D01*
X133905000Y-82221248D02*
X133905000Y-82743752D01*
%TO.C,CB4*%
X142496748Y-95116000D02*
X143019252Y-95116000D01*
X142496748Y-93646000D02*
X143019252Y-93646000D01*
%TO.C,CB1*%
X111326252Y-87880000D02*
X110803748Y-87880000D01*
X111326252Y-86410000D02*
X110803748Y-86410000D01*
%TO.C,J_Lector_1*%
X161085000Y-55407500D02*
X160765000Y-55407500D01*
X175445000Y-51987500D02*
X175765000Y-51907500D01*
X167945000Y-51987500D02*
X168265000Y-51907500D01*
X167945000Y-55407500D02*
X167945000Y-51987500D01*
X176085000Y-55407500D02*
X175765000Y-55407500D01*
X168585000Y-55407500D02*
X168265000Y-55407500D01*
X161085000Y-51987500D02*
X161085000Y-55407500D01*
X175445000Y-55407500D02*
X175445000Y-51987500D01*
X173265000Y-55407500D02*
X172945000Y-55407500D01*
X166085000Y-51987500D02*
X166085000Y-55407500D01*
X158265000Y-55407500D02*
X157945000Y-55407500D01*
X176085000Y-51987500D02*
X176085000Y-55407500D01*
X163265000Y-51907500D02*
X163585000Y-51987500D01*
X165765000Y-55407500D02*
X165445000Y-55407500D01*
X159435000Y-56407500D02*
X159595000Y-56407500D01*
X170765000Y-51907500D02*
X171085000Y-51987500D01*
X172945000Y-55407500D02*
X172945000Y-51987500D01*
X163585000Y-55407500D02*
X163265000Y-55407500D01*
X173265000Y-51907500D02*
X173585000Y-51987500D01*
X169435000Y-56407500D02*
X169595000Y-56407500D01*
X156875000Y-55407500D02*
X177155000Y-55407500D01*
X156875000Y-58607500D02*
X155655000Y-58607500D01*
X177155000Y-51407500D02*
X177155000Y-56407500D01*
X157965000Y-59097500D02*
X158565000Y-59097500D01*
X168265000Y-55407500D02*
X167945000Y-55407500D01*
X158585000Y-55407500D02*
X158265000Y-55407500D01*
X158565000Y-59097500D02*
X158265000Y-58497500D01*
X165765000Y-51907500D02*
X166085000Y-51987500D01*
X165445000Y-51987500D02*
X165765000Y-51907500D01*
X158265000Y-51907500D02*
X158585000Y-51987500D01*
X171935000Y-56407500D02*
X172095000Y-56407500D01*
X155655000Y-58607500D02*
X155655000Y-50187500D01*
X157945000Y-55407500D02*
X157945000Y-51987500D01*
X175765000Y-55407500D02*
X175445000Y-55407500D01*
X156875000Y-51407500D02*
X156875000Y-56407500D01*
X166085000Y-55407500D02*
X165765000Y-55407500D01*
X170445000Y-55407500D02*
X170445000Y-51987500D01*
X164435000Y-56407500D02*
X164595000Y-56407500D01*
X166935000Y-56407500D02*
X167095000Y-56407500D01*
X163265000Y-55407500D02*
X162945000Y-55407500D01*
X155655000Y-51407500D02*
X156875000Y-51407500D01*
X158585000Y-51987500D02*
X158585000Y-55407500D01*
X165445000Y-55407500D02*
X165445000Y-51987500D01*
X158265000Y-58497500D02*
X157965000Y-59097500D01*
X157945000Y-51987500D02*
X158265000Y-51907500D01*
X178375000Y-50187500D02*
X178375000Y-58607500D01*
X160765000Y-55407500D02*
X160445000Y-55407500D01*
X170765000Y-55407500D02*
X170445000Y-55407500D01*
X160445000Y-51987500D02*
X160765000Y-51907500D01*
X168265000Y-51907500D02*
X168585000Y-51987500D01*
X173585000Y-55407500D02*
X173265000Y-55407500D01*
X172945000Y-51987500D02*
X173265000Y-51907500D01*
X170445000Y-51987500D02*
X170765000Y-51907500D01*
X174435000Y-56407500D02*
X174595000Y-56407500D01*
X175765000Y-51907500D02*
X176085000Y-51987500D01*
X178375000Y-58607500D02*
X177155000Y-58607500D01*
X177155000Y-56407500D02*
X178375000Y-56407500D01*
X156875000Y-56407500D02*
X156875000Y-58607500D01*
X155655000Y-50187500D02*
X178375000Y-50187500D01*
X156875000Y-56407500D02*
X155655000Y-56407500D01*
X160445000Y-55407500D02*
X160445000Y-51987500D01*
X163585000Y-51987500D02*
X163585000Y-55407500D01*
X161935000Y-56407500D02*
X162095000Y-56407500D01*
X178375000Y-51407500D02*
X177155000Y-51407500D01*
X162945000Y-55407500D02*
X162945000Y-51987500D01*
X171085000Y-51987500D02*
X171085000Y-55407500D01*
X173585000Y-51987500D02*
X173585000Y-55407500D01*
X168585000Y-51987500D02*
X168585000Y-55407500D01*
X160765000Y-51907500D02*
X161085000Y-51987500D01*
X171085000Y-55407500D02*
X170765000Y-55407500D01*
X162945000Y-51987500D02*
X163265000Y-51907500D01*
X177155000Y-58607500D02*
X177155000Y-56407500D01*
%TO.C,DFly1*%
X189927200Y-137408600D02*
X190637200Y-137408600D01*
X189927200Y-137408600D02*
G75*
G03*
X189927200Y-137408600I-2770000J0D01*
G01*
%TO.C,Ra1*%
X196124936Y-104415600D02*
X196579064Y-104415600D01*
X196124936Y-105885600D02*
X196579064Y-105885600D01*
%TO.C,CBy3*%
X150504400Y-117995400D02*
X150504400Y-109760400D01*
X145984400Y-109760400D02*
X145984400Y-117995400D01*
X150504400Y-109760400D02*
X145984400Y-109760400D01*
%TO.C,C3*%
X133830000Y-68256252D02*
X133830000Y-67733748D01*
X135300000Y-68256252D02*
X135300000Y-67733748D01*
D13*
%TO.C,J_gnd1*%
X191424400Y-125515000D02*
X188884400Y-125515000D01*
X191424400Y-124715000D02*
X188884400Y-124715000D01*
X186404400Y-125515000D02*
X186404400Y-124715000D01*
X193904400Y-125515000D02*
X193904400Y-124715000D01*
D12*
%TO.C,LB3*%
X103255000Y-110005000D02*
X103255000Y-124945000D01*
X117241000Y-110005000D02*
X128895000Y-110005000D01*
X103255000Y-110005000D02*
X114909000Y-110005000D01*
X128895000Y-110005000D02*
X128895000Y-124945000D01*
X117241000Y-124945000D02*
X128895000Y-124945000D01*
X103255000Y-124945000D02*
X114909000Y-124945000D01*
%TO.C,Lb1*%
X128654000Y-126793000D02*
X128654000Y-141733000D01*
X103014000Y-126793000D02*
X103014000Y-141733000D01*
X117000000Y-141733000D02*
X128654000Y-141733000D01*
X103014000Y-141733000D02*
X114668000Y-141733000D01*
X117000000Y-126793000D02*
X128654000Y-126793000D01*
X103014000Y-126793000D02*
X114668000Y-126793000D01*
%TO.C,D3*%
X123220000Y-104175000D02*
X123220000Y-104885000D01*
X125990000Y-101405000D02*
G75*
G03*
X125990000Y-101405000I-2770000J0D01*
G01*
%TO.C,J_Lector_3*%
X142016000Y-51945500D02*
X142336000Y-52025500D01*
X152336000Y-52025500D02*
X152336000Y-55445500D01*
X134816000Y-59135500D02*
X134516000Y-58535500D01*
X149516000Y-51945500D02*
X149836000Y-52025500D01*
X138186000Y-56445500D02*
X138346000Y-56445500D01*
X152336000Y-55445500D02*
X152016000Y-55445500D01*
X144836000Y-52025500D02*
X144836000Y-55445500D01*
X147336000Y-52025500D02*
X147336000Y-55445500D01*
X153406000Y-58645500D02*
X153406000Y-56445500D01*
X139836000Y-55445500D02*
X139516000Y-55445500D01*
X149836000Y-55445500D02*
X149516000Y-55445500D01*
X136696000Y-55445500D02*
X136696000Y-52025500D01*
X137016000Y-55445500D02*
X136696000Y-55445500D01*
X134516000Y-58535500D02*
X134216000Y-59135500D01*
X146696000Y-55445500D02*
X146696000Y-52025500D01*
X145686000Y-56445500D02*
X145846000Y-56445500D01*
X142336000Y-52025500D02*
X142336000Y-55445500D01*
X142016000Y-55445500D02*
X141696000Y-55445500D01*
X134196000Y-55445500D02*
X134196000Y-52025500D01*
X144196000Y-52025500D02*
X144516000Y-51945500D01*
X154626000Y-51445500D02*
X153406000Y-51445500D01*
X136696000Y-52025500D02*
X137016000Y-51945500D01*
X137016000Y-51945500D02*
X137336000Y-52025500D01*
X134516000Y-51945500D02*
X134836000Y-52025500D01*
X152016000Y-55445500D02*
X151696000Y-55445500D01*
X151696000Y-52025500D02*
X152016000Y-51945500D01*
X133126000Y-58645500D02*
X131906000Y-58645500D01*
X131906000Y-58645500D02*
X131906000Y-50225500D01*
X133126000Y-55445500D02*
X153406000Y-55445500D01*
X147336000Y-55445500D02*
X147016000Y-55445500D01*
X134216000Y-59135500D02*
X134816000Y-59135500D01*
X133126000Y-56445500D02*
X133126000Y-58645500D01*
X134196000Y-52025500D02*
X134516000Y-51945500D01*
X151696000Y-55445500D02*
X151696000Y-52025500D01*
X131906000Y-50225500D02*
X154626000Y-50225500D01*
X141696000Y-55445500D02*
X141696000Y-52025500D01*
X144516000Y-51945500D02*
X144836000Y-52025500D01*
X146696000Y-52025500D02*
X147016000Y-51945500D01*
X154626000Y-50225500D02*
X154626000Y-58645500D01*
X147016000Y-51945500D02*
X147336000Y-52025500D01*
X152016000Y-51945500D02*
X152336000Y-52025500D01*
X144196000Y-55445500D02*
X144196000Y-52025500D01*
X141696000Y-52025500D02*
X142016000Y-51945500D01*
X153406000Y-51445500D02*
X153406000Y-56445500D01*
X139196000Y-52025500D02*
X139516000Y-51945500D01*
X144516000Y-55445500D02*
X144196000Y-55445500D01*
X139836000Y-52025500D02*
X139836000Y-55445500D01*
X147016000Y-55445500D02*
X146696000Y-55445500D01*
X143186000Y-56445500D02*
X143346000Y-56445500D01*
X149196000Y-55445500D02*
X149196000Y-52025500D01*
X134516000Y-55445500D02*
X134196000Y-55445500D01*
X149836000Y-52025500D02*
X149836000Y-55445500D01*
X139516000Y-55445500D02*
X139196000Y-55445500D01*
X144836000Y-55445500D02*
X144516000Y-55445500D01*
X134836000Y-52025500D02*
X134836000Y-55445500D01*
X149196000Y-52025500D02*
X149516000Y-51945500D01*
X139516000Y-51945500D02*
X139836000Y-52025500D01*
X131906000Y-51445500D02*
X133126000Y-51445500D01*
X133126000Y-56445500D02*
X131906000Y-56445500D01*
X140686000Y-56445500D02*
X140846000Y-56445500D01*
X150686000Y-56445500D02*
X150846000Y-56445500D01*
X133126000Y-51445500D02*
X133126000Y-56445500D01*
X137336000Y-55445500D02*
X137016000Y-55445500D01*
X137336000Y-52025500D02*
X137336000Y-55445500D01*
X142336000Y-55445500D02*
X142016000Y-55445500D01*
X154626000Y-58645500D02*
X153406000Y-58645500D01*
X135686000Y-56445500D02*
X135846000Y-56445500D01*
X134836000Y-55445500D02*
X134516000Y-55445500D01*
X148186000Y-56445500D02*
X148346000Y-56445500D01*
X153406000Y-56445500D02*
X154626000Y-56445500D01*
X149516000Y-55445500D02*
X149196000Y-55445500D01*
X139196000Y-55445500D02*
X139196000Y-52025500D01*
%TO.C,RI2C1*%
X186419000Y-95725664D02*
X186419000Y-95271536D01*
X184949000Y-95725664D02*
X184949000Y-95271536D01*
%TO.C,CB2*%
X127459948Y-93544400D02*
X127982452Y-93544400D01*
X127459948Y-95014400D02*
X127982452Y-95014400D01*
D13*
%TO.C,B1_1*%
X120050400Y-90209000D02*
X122590400Y-90209000D01*
X117570400Y-89409000D02*
X117570400Y-90209000D01*
X125070400Y-89409000D02*
X125070400Y-90209000D01*
X120050400Y-89409000D02*
X122590400Y-89409000D01*
D12*
%TO.C,R6*%
X147105000Y-80947064D02*
X147105000Y-80492936D01*
X148575000Y-80947064D02*
X148575000Y-80492936D01*
%TO.C,R_RED1*%
X170064600Y-102535936D02*
X170064600Y-102990064D01*
X171534600Y-102535936D02*
X171534600Y-102990064D01*
%TO.C,J_Display1*%
X198847500Y-66890000D02*
X198847500Y-66570000D01*
X198847500Y-81890000D02*
X198847500Y-81570000D01*
X198847500Y-66570000D02*
X198847500Y-66250000D01*
X195647500Y-62680000D02*
X195647500Y-61460000D01*
X198847500Y-62680000D02*
X198847500Y-85460000D01*
X202347500Y-84070000D02*
X202267500Y-84390000D01*
X204067500Y-86680000D02*
X195647500Y-86680000D01*
X198847500Y-69390000D02*
X198847500Y-69070000D01*
X202847500Y-86680000D02*
X202847500Y-85460000D01*
X202267500Y-79390000D02*
X198847500Y-79390000D01*
X198847500Y-81570000D02*
X198847500Y-81250000D01*
X197847500Y-77740000D02*
X197847500Y-77900000D01*
X198847500Y-84390000D02*
X198847500Y-84070000D01*
X197847500Y-62680000D02*
X197847500Y-61460000D01*
X198847500Y-76890000D02*
X198847500Y-76570000D01*
X202347500Y-71570000D02*
X202267500Y-71890000D01*
X198847500Y-71890000D02*
X198847500Y-71570000D01*
X198847500Y-64070000D02*
X198847500Y-63750000D01*
X202267500Y-84390000D02*
X198847500Y-84390000D01*
X197847500Y-65240000D02*
X197847500Y-65400000D01*
X202347500Y-69070000D02*
X202267500Y-69390000D01*
X197847500Y-72740000D02*
X197847500Y-72900000D01*
X202847500Y-61460000D02*
X202847500Y-62680000D01*
X202267500Y-66890000D02*
X198847500Y-66890000D01*
X202347500Y-79070000D02*
X202267500Y-79390000D01*
X202847500Y-62680000D02*
X197847500Y-62680000D01*
X197847500Y-82740000D02*
X197847500Y-82900000D01*
X202267500Y-74390000D02*
X198847500Y-74390000D01*
X198847500Y-69070000D02*
X198847500Y-68750000D01*
X198847500Y-79070000D02*
X198847500Y-78750000D01*
X202347500Y-64070000D02*
X202267500Y-64390000D01*
X202267500Y-68750000D02*
X202347500Y-69070000D01*
X198847500Y-68750000D02*
X202267500Y-68750000D01*
X202347500Y-74070000D02*
X202267500Y-74390000D01*
X197847500Y-75240000D02*
X197847500Y-75400000D01*
X198847500Y-71250000D02*
X202267500Y-71250000D01*
X198847500Y-63750000D02*
X202267500Y-63750000D01*
X202267500Y-63750000D02*
X202347500Y-64070000D01*
X195647500Y-86680000D02*
X195647500Y-85460000D01*
X198847500Y-81250000D02*
X202267500Y-81250000D01*
X198847500Y-83750000D02*
X202267500Y-83750000D01*
X202267500Y-69390000D02*
X198847500Y-69390000D01*
X197847500Y-70240000D02*
X197847500Y-70400000D01*
X204067500Y-61460000D02*
X204067500Y-86680000D01*
X195757500Y-64070000D02*
X195157500Y-63770000D01*
X202267500Y-64390000D02*
X198847500Y-64390000D01*
X197847500Y-85460000D02*
X197847500Y-86680000D01*
X195647500Y-61460000D02*
X204067500Y-61460000D01*
X198847500Y-76250000D02*
X202267500Y-76250000D01*
X195157500Y-64370000D02*
X195757500Y-64070000D01*
X202847500Y-85460000D02*
X197847500Y-85460000D01*
X197847500Y-67740000D02*
X197847500Y-67900000D01*
X202267500Y-66250000D02*
X202347500Y-66570000D01*
X198847500Y-64390000D02*
X198847500Y-64070000D01*
X198847500Y-79390000D02*
X198847500Y-79070000D01*
X202347500Y-81570000D02*
X202267500Y-81890000D01*
X202267500Y-78750000D02*
X202347500Y-79070000D01*
X195157500Y-63770000D02*
X195157500Y-64370000D01*
X198847500Y-71570000D02*
X198847500Y-71250000D01*
X202267500Y-73750000D02*
X202347500Y-74070000D01*
X202267500Y-71250000D02*
X202347500Y-71570000D01*
X202347500Y-76570000D02*
X202267500Y-76890000D01*
X198847500Y-84070000D02*
X198847500Y-83750000D01*
X198847500Y-74390000D02*
X198847500Y-74070000D01*
X202347500Y-66570000D02*
X202267500Y-66890000D01*
X202267500Y-83750000D02*
X202347500Y-84070000D01*
X197847500Y-80240000D02*
X197847500Y-80400000D01*
X195647500Y-85460000D02*
X197847500Y-85460000D01*
X202267500Y-81890000D02*
X198847500Y-81890000D01*
X198847500Y-73750000D02*
X202267500Y-73750000D01*
X198847500Y-66250000D02*
X202267500Y-66250000D01*
X202267500Y-76250000D02*
X202347500Y-76570000D01*
X202267500Y-71890000D02*
X198847500Y-71890000D01*
X198847500Y-78750000D02*
X202267500Y-78750000D01*
X202267500Y-76890000D02*
X198847500Y-76890000D01*
X202267500Y-81250000D02*
X202347500Y-81570000D01*
X197847500Y-62680000D02*
X195647500Y-62680000D01*
X198847500Y-74070000D02*
X198847500Y-73750000D01*
X198847500Y-76570000D02*
X198847500Y-76250000D01*
%TO.C,R5*%
X147255000Y-66042936D02*
X147255000Y-66497064D01*
X148725000Y-66042936D02*
X148725000Y-66497064D01*
%TO.C,CBat1*%
X179632400Y-80303000D02*
X179632400Y-82653000D01*
X186452400Y-86058563D02*
X185387963Y-87123000D01*
X186452400Y-86058563D02*
X186452400Y-84773000D01*
X185387963Y-80303000D02*
X179632400Y-80303000D01*
X186452400Y-81367437D02*
X185387963Y-80303000D01*
X187086150Y-85954250D02*
X187086150Y-85166750D01*
X187479900Y-85560500D02*
X186692400Y-85560500D01*
X185387963Y-87123000D02*
X179632400Y-87123000D01*
X179632400Y-87123000D02*
X179632400Y-84773000D01*
X186452400Y-81367437D02*
X186452400Y-82653000D01*
D13*
%TO.C,U_ChargeControler1*%
X179507400Y-98943000D02*
X175507400Y-98943000D01*
X179507400Y-104043000D02*
X175507400Y-104043000D01*
D14*
X182052400Y-103998000D02*
G75*
G03*
X182052400Y-103998000I-100000J0D01*
G01*
D12*
%TO.C,U_555*%
X191921000Y-111653600D02*
X189971000Y-111653600D01*
X191921000Y-106533600D02*
X188471000Y-106533600D01*
X191921000Y-106533600D02*
X193871000Y-106533600D01*
X191921000Y-111653600D02*
X193871000Y-111653600D01*
%TO.C,D_RED1*%
X169650800Y-98846200D02*
X172510800Y-98846200D01*
X169650800Y-96926200D02*
X169650800Y-98846200D01*
X172510800Y-96926200D02*
X169650800Y-96926200D01*
%TO.C,CByBa1*%
X176582037Y-109411400D02*
X182337600Y-109411400D01*
X176582037Y-116231400D02*
X182337600Y-116231400D01*
X182337600Y-109411400D02*
X182337600Y-111761400D01*
X175517600Y-110475837D02*
X175517600Y-111761400D01*
X174883850Y-110580150D02*
X174883850Y-111367650D01*
X175517600Y-115166963D02*
X176582037Y-116231400D01*
X175517600Y-110475837D02*
X176582037Y-109411400D01*
X175517600Y-115166963D02*
X175517600Y-113881400D01*
X174490100Y-110973900D02*
X175277600Y-110973900D01*
X182337600Y-116231400D02*
X182337600Y-113881400D01*
D13*
%TO.C,J_Tap_1*%
X193324000Y-131033000D02*
X190784000Y-131033000D01*
X195804000Y-131033000D02*
X195804000Y-130233000D01*
X193324000Y-130233000D02*
X190784000Y-130233000D01*
X188304000Y-131033000D02*
X188304000Y-130233000D01*
D12*
%TO.C,L_p1*%
X135575000Y-73845000D02*
X135575000Y-70985000D01*
X135575000Y-70985000D02*
X133655000Y-70985000D01*
X133655000Y-70985000D02*
X133655000Y-73845000D01*
%TO.C,R_Prog10*%
X186259800Y-102896936D02*
X186259800Y-103351064D01*
X187729800Y-102896936D02*
X187729800Y-103351064D01*
D13*
%TO.C,B2_1*%
X134823200Y-89922400D02*
X137363200Y-89922400D01*
X139843200Y-89922400D02*
X139843200Y-90722400D01*
X134823200Y-90722400D02*
X137363200Y-90722400D01*
X132343200Y-89922400D02*
X132343200Y-90722400D01*
%TO.C,B2*%
X134782400Y-93777800D02*
X137322400Y-93777800D01*
X132302400Y-93777800D02*
X132302400Y-94577800D01*
X134782400Y-94577800D02*
X137322400Y-94577800D01*
X139802400Y-93777800D02*
X139802400Y-94577800D01*
D12*
%TO.C,U1*%
X108776600Y-83841400D02*
X108776600Y-84221400D01*
X102356600Y-65601400D02*
X108776600Y-65601400D01*
X102356600Y-83841400D02*
X102356600Y-65601400D01*
X127321600Y-65601400D02*
X128101600Y-65601400D01*
X128101600Y-65601400D02*
X128101600Y-66601400D01*
X102356600Y-83841400D02*
X108776600Y-83841400D01*
X128101600Y-83841400D02*
X128101600Y-82841400D01*
X127321600Y-83841400D02*
X128101600Y-83841400D01*
%TO.C,QBoo1*%
X138033600Y-100970200D02*
X139708600Y-100970200D01*
X138033600Y-97850200D02*
X138683600Y-97850200D01*
X138033600Y-97850200D02*
X137383600Y-97850200D01*
X138033600Y-100970200D02*
X137383600Y-100970200D01*
%TO.C,DBoo1*%
X117124000Y-102375000D02*
X117124000Y-101665000D01*
X119894000Y-105145000D02*
G75*
G03*
X119894000Y-105145000I-2770000J0D01*
G01*
%TO.C,C_cv1*%
X193311252Y-112797600D02*
X192788748Y-112797600D01*
X193311252Y-114267600D02*
X192788748Y-114267600D01*
%TO.C,D2*%
X166146000Y-110779000D02*
X166146000Y-111489000D01*
X168916000Y-108009000D02*
G75*
G03*
X168916000Y-108009000I-2770000J0D01*
G01*
%TO.C,D_GREEN1*%
X177384000Y-98236600D02*
X177384000Y-96316600D01*
X177384000Y-96316600D02*
X174524000Y-96316600D01*
X174524000Y-98236600D02*
X177384000Y-98236600D01*
%TO.C,UB3v3*%
X151300000Y-98325000D02*
X151300000Y-99275000D01*
X152800000Y-108725000D02*
X151300000Y-108725000D01*
X151300000Y-99275000D02*
X146175000Y-99275000D01*
X151300000Y-108725000D02*
X151300000Y-107775000D01*
X151300000Y-107775000D02*
X150200000Y-107775000D01*
X152800000Y-98325000D02*
X151300000Y-98325000D01*
%TO.C,LB5*%
X144995600Y-116155800D02*
X130055600Y-116155800D01*
X144995600Y-116155800D02*
X144995600Y-127809800D01*
X144995600Y-130141800D02*
X144995600Y-141795800D01*
X130055600Y-130141800D02*
X130055600Y-141795800D01*
X144995600Y-141795800D02*
X130055600Y-141795800D01*
X130055600Y-116155800D02*
X130055600Y-127809800D01*
%TO.C,Crec1*%
X178494000Y-138662621D02*
X176532000Y-138662621D01*
X178494000Y-138542621D02*
X176487000Y-138542621D01*
X178494000Y-137941621D02*
X176339000Y-137941621D01*
X178494000Y-138382621D02*
X176436000Y-138382621D01*
X178494000Y-138502621D02*
X176473000Y-138502621D01*
X178494000Y-137701621D02*
X176312000Y-137701621D01*
X182346000Y-139062621D02*
X180574000Y-139062621D01*
X178494000Y-137781621D02*
X176319000Y-137781621D01*
X178494000Y-139742621D02*
X177229000Y-139742621D01*
X182486000Y-138782621D02*
X180574000Y-138782621D01*
X178494000Y-138622621D02*
X176516000Y-138622621D01*
X182224000Y-139262621D02*
X180574000Y-139262621D01*
X182762000Y-137581621D02*
X176306000Y-137581621D01*
X182752000Y-137741621D02*
X180574000Y-137741621D01*
X182018000Y-139542621D02*
X180574000Y-139542621D01*
X182665000Y-138262621D02*
X180574000Y-138262621D01*
X178494000Y-139382621D02*
X176927000Y-139382621D01*
X180699000Y-140502621D02*
X178369000Y-140502621D01*
X182764000Y-137461621D02*
X176304000Y-137461621D01*
X181716000Y-139862621D02*
X177352000Y-139862621D01*
X178494000Y-138702621D02*
X176548000Y-138702621D01*
X178494000Y-139422621D02*
X176956000Y-139422621D01*
X178494000Y-138982621D02*
X176678000Y-138982621D01*
X182430000Y-138902621D02*
X180574000Y-138902621D01*
X178494000Y-138302621D02*
X176413000Y-138302621D01*
X178494000Y-137741621D02*
X176316000Y-137741621D01*
X178494000Y-138141621D02*
X176375000Y-138141621D01*
X182608000Y-138462621D02*
X180574000Y-138462621D01*
X182723000Y-137981621D02*
X180574000Y-137981621D01*
X181529000Y-140022621D02*
X177539000Y-140022621D01*
X178494000Y-138942621D02*
X176658000Y-138942621D01*
X180593000Y-140542621D02*
X178475000Y-140542621D01*
X181248000Y-140222621D02*
X177820000Y-140222621D01*
X178494000Y-139662621D02*
X177154000Y-139662621D01*
X182644000Y-138342621D02*
X180574000Y-138342621D01*
X178494000Y-138462621D02*
X176460000Y-138462621D01*
X178494000Y-139102621D02*
X176744000Y-139102621D01*
X181950000Y-139622621D02*
X180574000Y-139622621D01*
X180336000Y-140622621D02*
X178732000Y-140622621D01*
X182684000Y-138182621D02*
X180574000Y-138182621D01*
X178494000Y-139182621D02*
X176792000Y-139182621D01*
X178494000Y-139262621D02*
X176844000Y-139262621D01*
X181688000Y-134276380D02*
X181058000Y-134276380D01*
X182112000Y-139422621D02*
X180574000Y-139422621D01*
X181914000Y-139662621D02*
X180574000Y-139662621D01*
X182468000Y-138822621D02*
X180574000Y-138822621D01*
X182716000Y-138021621D02*
X180574000Y-138021621D01*
X178494000Y-137821621D02*
X176323000Y-137821621D01*
X178494000Y-139302621D02*
X176870000Y-139302621D01*
X182729000Y-137941621D02*
X180574000Y-137941621D01*
X181368000Y-140142621D02*
X177700000Y-140142621D01*
X182745000Y-137821621D02*
X180574000Y-137821621D01*
X178494000Y-139502621D02*
X177018000Y-139502621D01*
X182300000Y-139142621D02*
X180574000Y-139142621D01*
X182552000Y-138622621D02*
X180574000Y-138622621D01*
X182632000Y-138382621D02*
X180574000Y-138382621D01*
X178494000Y-138582621D02*
X176501000Y-138582621D01*
X182758000Y-137661621D02*
X176310000Y-137661621D01*
X181984000Y-139582621D02*
X180574000Y-139582621D01*
X178494000Y-138061621D02*
X176359000Y-138061621D01*
X181478000Y-140062621D02*
X177590000Y-140062621D01*
X180474000Y-140582621D02*
X178594000Y-140582621D01*
X182764000Y-137501621D02*
X176304000Y-137501621D01*
X178494000Y-138101621D02*
X176367000Y-138101621D01*
X178494000Y-138342621D02*
X176424000Y-138342621D01*
X178494000Y-138021621D02*
X176352000Y-138021621D01*
X182709000Y-138061621D02*
X180574000Y-138061621D01*
X182082000Y-139462621D02*
X180574000Y-139462621D01*
X182170000Y-139342621D02*
X180574000Y-139342621D01*
X180884000Y-140422621D02*
X178184000Y-140422621D01*
X178494000Y-138182621D02*
X176384000Y-138182621D01*
X182764000Y-137541621D02*
X176304000Y-137541621D01*
X182368000Y-139022621D02*
X180574000Y-139022621D01*
X181758000Y-139822621D02*
X177310000Y-139822621D01*
X181115000Y-140302621D02*
X177953000Y-140302621D01*
X182620000Y-138422621D02*
X180574000Y-138422621D01*
X178494000Y-139342621D02*
X176898000Y-139342621D01*
X182410000Y-138942621D02*
X180574000Y-138942621D01*
X178494000Y-138822621D02*
X176600000Y-138822621D01*
X182050000Y-139502621D02*
X180574000Y-139502621D01*
X178494000Y-139462621D02*
X176986000Y-139462621D01*
X182450000Y-138862621D02*
X180574000Y-138862621D01*
X181043000Y-140342621D02*
X178025000Y-140342621D01*
X178494000Y-138902621D02*
X176638000Y-138902621D01*
X181184000Y-140262621D02*
X177884000Y-140262621D01*
X182693000Y-138141621D02*
X180574000Y-138141621D01*
X178494000Y-138742621D02*
X176564000Y-138742621D01*
X178494000Y-139222621D02*
X176818000Y-139222621D01*
X182520000Y-138702621D02*
X180574000Y-138702621D01*
X178494000Y-138262621D02*
X176403000Y-138262621D01*
X180167000Y-140662621D02*
X178901000Y-140662621D01*
X181671000Y-139902621D02*
X177397000Y-139902621D01*
X182390000Y-138982621D02*
X180574000Y-138982621D01*
X182701000Y-138101621D02*
X180574000Y-138101621D01*
X182595000Y-138502621D02*
X180574000Y-138502621D01*
X182141000Y-139382621D02*
X180574000Y-139382621D01*
X182581000Y-138542621D02*
X180574000Y-138542621D01*
X178494000Y-139062621D02*
X176722000Y-139062621D01*
X182735000Y-137901621D02*
X180574000Y-137901621D01*
X178494000Y-137901621D02*
X176333000Y-137901621D01*
X181373000Y-133961380D02*
X181373000Y-134591380D01*
X182567000Y-138582621D02*
X180574000Y-138582621D01*
X178494000Y-138862621D02*
X176618000Y-138862621D01*
X181839000Y-139742621D02*
X180574000Y-139742621D01*
X178494000Y-138782621D02*
X176582000Y-138782621D01*
X180796000Y-140462621D02*
X178272000Y-140462621D01*
X180966000Y-140382621D02*
X178102000Y-140382621D01*
X182761000Y-137621621D02*
X176307000Y-137621621D01*
X178494000Y-139542621D02*
X177050000Y-139542621D01*
X182198000Y-139302621D02*
X180574000Y-139302621D01*
X178494000Y-139142621D02*
X176768000Y-139142621D01*
X182504000Y-138742621D02*
X180574000Y-138742621D01*
X182655000Y-138302621D02*
X180574000Y-138302621D01*
X181799000Y-139782621D02*
X177269000Y-139782621D01*
X178494000Y-137861621D02*
X176328000Y-137861621D01*
X178494000Y-137981621D02*
X176345000Y-137981621D01*
X181424000Y-140102621D02*
X177644000Y-140102621D01*
X178494000Y-138222621D02*
X176393000Y-138222621D01*
X178494000Y-138422621D02*
X176448000Y-138422621D01*
X178494000Y-139702621D02*
X177191000Y-139702621D01*
X182749000Y-137781621D02*
X180574000Y-137781621D01*
X182324000Y-139102621D02*
X180574000Y-139102621D01*
X182740000Y-137861621D02*
X180574000Y-137861621D01*
X182536000Y-138662621D02*
X180574000Y-138662621D01*
X182250000Y-139222621D02*
X180574000Y-139222621D01*
X178494000Y-139622621D02*
X177118000Y-139622621D01*
X178494000Y-139582621D02*
X177084000Y-139582621D01*
X182756000Y-137701621D02*
X180574000Y-137701621D01*
X182675000Y-138222621D02*
X180574000Y-138222621D01*
X181310000Y-140182621D02*
X177758000Y-140182621D01*
X181626000Y-139942621D02*
X177442000Y-139942621D01*
X178494000Y-139022621D02*
X176700000Y-139022621D01*
X181578000Y-139982621D02*
X177490000Y-139982621D01*
X181877000Y-139702621D02*
X180574000Y-139702621D01*
X179936000Y-140702621D02*
X179132000Y-140702621D01*
X182276000Y-139182621D02*
X180574000Y-139182621D01*
X182804000Y-137461621D02*
G75*
G03*
X182804000Y-137461621I-3270000J0D01*
G01*
%TO.C,D_S1*%
X181958000Y-129520000D02*
X182668000Y-129520000D01*
X181958000Y-129520000D02*
G75*
G03*
X181958000Y-129520000I-2770000J0D01*
G01*
%TO.C,RI2C2*%
X188352600Y-95725664D02*
X188352600Y-95271536D01*
X189822600Y-95725664D02*
X189822600Y-95271536D01*
%TO.C,R4*%
X152525000Y-73667936D02*
X152525000Y-74122064D01*
X151055000Y-73667936D02*
X151055000Y-74122064D01*
%TO.C,R_p1*%
X135300000Y-77092936D02*
X135300000Y-77547064D01*
X133830000Y-77092936D02*
X133830000Y-77547064D01*
D13*
%TO.C,B1*%
X117570400Y-93777800D02*
X117570400Y-94577800D01*
X120050400Y-93777800D02*
X122590400Y-93777800D01*
X125070400Y-93777800D02*
X125070400Y-94577800D01*
X120050400Y-94577800D02*
X122590400Y-94577800D01*
D12*
%TO.C,Cby2*%
X196633000Y-112509348D02*
X196633000Y-113031852D01*
X198103000Y-112509348D02*
X198103000Y-113031852D01*
%TO.C,R_GREEN1*%
X179259336Y-98011600D02*
X179713464Y-98011600D01*
X179259336Y-96541600D02*
X179713464Y-96541600D01*
%TO.C,UB5v0*%
X146448000Y-133215400D02*
X146448000Y-131715400D01*
X146448000Y-131715400D02*
X147398000Y-131715400D01*
X156848000Y-131715400D02*
X155898000Y-131715400D01*
X147398000Y-131715400D02*
X147398000Y-130615400D01*
X155898000Y-131715400D02*
X155898000Y-126590400D01*
X156848000Y-133215400D02*
X156848000Y-131715400D01*
%TO.C,Ro1*%
X186673000Y-108679664D02*
X186673000Y-108225536D01*
X185203000Y-108679664D02*
X185203000Y-108225536D01*
%TO.C,J_M2*%
X104455000Y-93085000D02*
X107875000Y-93085000D01*
X107875000Y-93405000D02*
X107875000Y-93725000D01*
X103875000Y-101015000D02*
X103875000Y-99795000D01*
X111565000Y-98705000D02*
X111565000Y-98105000D01*
X111075000Y-99795000D02*
X111075000Y-101015000D01*
X104455000Y-98085000D02*
X107875000Y-98085000D01*
X108875000Y-99795000D02*
X108875000Y-101015000D01*
X107875000Y-93725000D02*
X104455000Y-93725000D01*
X104375000Y-95905000D02*
X104455000Y-95585000D01*
X104375000Y-98405000D02*
X104455000Y-98085000D01*
X104455000Y-98725000D02*
X104375000Y-98405000D01*
X107875000Y-98405000D02*
X107875000Y-98725000D01*
X111075000Y-92015000D02*
X108875000Y-92015000D01*
X110965000Y-98405000D02*
X111565000Y-98705000D01*
X107875000Y-98085000D02*
X107875000Y-98405000D01*
X111075000Y-90795000D02*
X111075000Y-92015000D01*
X104455000Y-93725000D02*
X104375000Y-93405000D01*
X103875000Y-90795000D02*
X103875000Y-92015000D01*
X103875000Y-99795000D02*
X108875000Y-99795000D01*
X107875000Y-98725000D02*
X104455000Y-98725000D01*
X111565000Y-98105000D02*
X110965000Y-98405000D01*
X104455000Y-96225000D02*
X104375000Y-95905000D01*
X102655000Y-90795000D02*
X111075000Y-90795000D01*
X107875000Y-95905000D02*
X107875000Y-96225000D01*
X108875000Y-99795000D02*
X111075000Y-99795000D01*
X108875000Y-94735000D02*
X108875000Y-94575000D01*
X103875000Y-92015000D02*
X108875000Y-92015000D01*
X107875000Y-96225000D02*
X104455000Y-96225000D01*
X108875000Y-97235000D02*
X108875000Y-97075000D01*
X111075000Y-101015000D02*
X102655000Y-101015000D01*
X104375000Y-93405000D02*
X104455000Y-93085000D01*
X107875000Y-95585000D02*
X107875000Y-95905000D01*
X104455000Y-95585000D02*
X107875000Y-95585000D01*
X107875000Y-99795000D02*
X107875000Y-92015000D01*
X108875000Y-92015000D02*
X108875000Y-90795000D01*
X107875000Y-93085000D02*
X107875000Y-93405000D01*
X102655000Y-101015000D02*
X102655000Y-90795000D01*
%TO.C,C_by1*%
X186673000Y-112777852D02*
X186673000Y-112255348D01*
X185203000Y-112777852D02*
X185203000Y-112255348D01*
%TO.C,J_I2C1*%
X193666000Y-92221000D02*
X193256000Y-92221000D01*
X202296000Y-99628145D02*
X193666000Y-99628145D01*
X193666000Y-89681000D02*
X193256000Y-89681000D01*
X193666000Y-97301000D02*
X193256000Y-97301000D01*
X202296000Y-98447195D02*
X193666000Y-98447195D01*
X202296000Y-99273860D02*
X193666000Y-99273860D01*
X202296000Y-98919575D02*
X193666000Y-98919575D01*
X193666000Y-100811000D02*
X193666000Y-87991000D01*
X202296000Y-99510050D02*
X193666000Y-99510050D01*
X202296000Y-90591000D02*
X193666000Y-90591000D01*
X193666000Y-99841000D02*
X193316000Y-99841000D01*
X202296000Y-100218620D02*
X193666000Y-100218620D01*
X193666000Y-94041000D02*
X193256000Y-94041000D01*
X202296000Y-87991000D02*
X193666000Y-87991000D01*
X202296000Y-99864335D02*
X193666000Y-99864335D01*
X193666000Y-99121000D02*
X193316000Y-99121000D01*
X202296000Y-98329100D02*
X193666000Y-98329100D01*
X202296000Y-98801480D02*
X193666000Y-98801480D01*
X202296000Y-99982430D02*
X193666000Y-99982430D01*
X202296000Y-99037670D02*
X193666000Y-99037670D01*
X202296000Y-99746240D02*
X193666000Y-99746240D01*
X202296000Y-99155765D02*
X193666000Y-99155765D01*
X192206000Y-100811000D02*
X191096000Y-100811000D01*
X202296000Y-98565290D02*
X193666000Y-98565290D01*
X193666000Y-96581000D02*
X193256000Y-96581000D01*
X202296000Y-99391955D02*
X193666000Y-99391955D01*
X202296000Y-100100525D02*
X193666000Y-100100525D01*
X202296000Y-100811000D02*
X193666000Y-100811000D01*
X202296000Y-100572905D02*
X193666000Y-100572905D01*
X202296000Y-100336715D02*
X193666000Y-100336715D01*
X202296000Y-100454810D02*
X193666000Y-100454810D01*
X191096000Y-100811000D02*
X191096000Y-99481000D01*
X193666000Y-88961000D02*
X193256000Y-88961000D01*
X202296000Y-98211000D02*
X193666000Y-98211000D01*
X202296000Y-93131000D02*
X193666000Y-93131000D01*
X193666000Y-94761000D02*
X193256000Y-94761000D01*
X202296000Y-98683385D02*
X193666000Y-98683385D01*
X193666000Y-91501000D02*
X193256000Y-91501000D01*
X202296000Y-100691000D02*
X193666000Y-100691000D01*
X202296000Y-95671000D02*
X193666000Y-95671000D01*
X202296000Y-100811000D02*
X202296000Y-87991000D01*
%TO.C,RMISO1*%
X148625000Y-70567936D02*
X148625000Y-71022064D01*
X147155000Y-70567936D02*
X147155000Y-71022064D01*
%TO.C,J_M1*%
X106796000Y-51771500D02*
X106796000Y-55191500D01*
X114086000Y-51191500D02*
X112866000Y-51191500D01*
X111796000Y-51771500D02*
X111796000Y-55191500D01*
X105086000Y-55191500D02*
X112866000Y-55191500D01*
X108976000Y-51691500D02*
X109296000Y-51771500D01*
X111476000Y-55191500D02*
X111156000Y-55191500D01*
X110146000Y-56191500D02*
X110306000Y-56191500D01*
X103866000Y-58391500D02*
X103866000Y-49971500D01*
X105086000Y-51191500D02*
X105086000Y-56191500D01*
X106796000Y-55191500D02*
X106476000Y-55191500D01*
X105086000Y-58391500D02*
X103866000Y-58391500D01*
X105086000Y-56191500D02*
X105086000Y-58391500D01*
X114086000Y-49971500D02*
X114086000Y-58391500D01*
X108656000Y-55191500D02*
X108656000Y-51771500D01*
X103866000Y-51191500D02*
X105086000Y-51191500D01*
X106476000Y-51691500D02*
X106796000Y-51771500D01*
X105086000Y-56191500D02*
X103866000Y-56191500D01*
X109296000Y-55191500D02*
X108976000Y-55191500D01*
X106176000Y-58881500D02*
X106776000Y-58881500D01*
X106476000Y-58281500D02*
X106176000Y-58881500D01*
X106776000Y-58881500D02*
X106476000Y-58281500D01*
X112866000Y-56191500D02*
X114086000Y-56191500D01*
X107646000Y-56191500D02*
X107806000Y-56191500D01*
X106476000Y-55191500D02*
X106156000Y-55191500D01*
X111476000Y-51691500D02*
X111796000Y-51771500D01*
X109296000Y-51771500D02*
X109296000Y-55191500D01*
X114086000Y-58391500D02*
X112866000Y-58391500D01*
X108976000Y-55191500D02*
X108656000Y-55191500D01*
X108656000Y-51771500D02*
X108976000Y-51691500D01*
X103866000Y-49971500D02*
X114086000Y-49971500D01*
X112866000Y-51191500D02*
X112866000Y-56191500D01*
X112866000Y-58391500D02*
X112866000Y-56191500D01*
X106156000Y-55191500D02*
X106156000Y-51771500D01*
X111156000Y-55191500D02*
X111156000Y-51771500D01*
X111156000Y-51771500D02*
X111476000Y-51691500D01*
X106156000Y-51771500D02*
X106476000Y-51691500D01*
X111796000Y-55191500D02*
X111476000Y-55191500D01*
%TO.C,J_prog1*%
X126376000Y-50302000D02*
X127136000Y-50302000D01*
X115266000Y-58962000D02*
X130626000Y-58962000D01*
X116216000Y-56302000D02*
X116216000Y-50302000D01*
X116976000Y-59292000D02*
X116976000Y-58962000D01*
X130626000Y-58962000D02*
X130626000Y-56302000D01*
X121296000Y-56302000D02*
X121296000Y-50302000D01*
X128916000Y-56302000D02*
X128916000Y-50302000D01*
X119516000Y-50302000D02*
X119516000Y-56302000D01*
X116976000Y-50302000D02*
X116976000Y-56302000D01*
X118756000Y-56302000D02*
X118756000Y-50302000D01*
X124596000Y-59359071D02*
X124596000Y-58962000D01*
X116876000Y-56302000D02*
X116876000Y-50302000D01*
X116596000Y-61672000D02*
X115326000Y-61672000D01*
X117866000Y-58962000D02*
X117866000Y-56302000D01*
X125486000Y-58962000D02*
X125486000Y-56302000D01*
X116276000Y-56302000D02*
X116276000Y-50302000D01*
X116216000Y-50302000D02*
X116976000Y-50302000D01*
X121296000Y-50302000D02*
X122056000Y-50302000D01*
X128916000Y-50302000D02*
X129676000Y-50302000D01*
X122056000Y-59359071D02*
X122056000Y-58962000D01*
X120406000Y-58962000D02*
X120406000Y-56302000D01*
X123836000Y-50302000D02*
X124596000Y-50302000D01*
X116516000Y-56302000D02*
X116516000Y-50302000D01*
X128026000Y-58962000D02*
X128026000Y-56302000D01*
X129676000Y-59359071D02*
X129676000Y-58962000D01*
X124596000Y-50302000D02*
X124596000Y-56302000D01*
X126376000Y-56302000D02*
X126376000Y-50302000D01*
X128916000Y-59359071D02*
X128916000Y-58962000D01*
X122946000Y-58962000D02*
X122946000Y-56302000D01*
X126376000Y-59359071D02*
X126376000Y-58962000D01*
X121296000Y-59359071D02*
X121296000Y-58962000D01*
X118756000Y-59359071D02*
X118756000Y-58962000D01*
X122056000Y-50302000D02*
X122056000Y-56302000D01*
X118756000Y-50302000D02*
X119516000Y-50302000D01*
X116756000Y-56302000D02*
X116756000Y-50302000D01*
X127136000Y-59359071D02*
X127136000Y-58962000D01*
X123836000Y-59359071D02*
X123836000Y-58962000D01*
X116636000Y-56302000D02*
X116636000Y-50302000D01*
X119516000Y-59359071D02*
X119516000Y-58962000D01*
X115326000Y-61672000D02*
X115326000Y-60402000D01*
X116396000Y-56302000D02*
X116396000Y-50302000D01*
X129676000Y-50302000D02*
X129676000Y-56302000D01*
X115266000Y-56302000D02*
X115266000Y-58962000D01*
X123836000Y-56302000D02*
X123836000Y-50302000D01*
X116216000Y-59292000D02*
X116216000Y-58962000D01*
X127136000Y-50302000D02*
X127136000Y-56302000D01*
X130626000Y-56302000D02*
X115266000Y-56302000D01*
%TO.C,RBtn2*%
X144472936Y-89340000D02*
X144927064Y-89340000D01*
X144472936Y-90810000D02*
X144927064Y-90810000D01*
%TO.C,DB3*%
X140559200Y-112262600D02*
X141269200Y-112262600D01*
X140559200Y-112262600D02*
G75*
G03*
X140559200Y-112262600I-2770000J0D01*
G01*
%TO.C,RBtn1*%
X128411464Y-91311400D02*
X127957336Y-91311400D01*
X128411464Y-89841400D02*
X127957336Y-89841400D01*
%TO.C,R1*%
X147205000Y-76392936D02*
X147205000Y-76847064D01*
X148675000Y-76392936D02*
X148675000Y-76847064D01*
%TO.C,Rb1*%
X196582200Y-108276336D02*
X196582200Y-108730464D01*
X198052200Y-108276336D02*
X198052200Y-108730464D01*
%TO.C,DB5*%
X157221600Y-112669000D02*
X157931600Y-112669000D01*
X157221600Y-112669000D02*
G75*
G03*
X157221600Y-112669000I-2770000J0D01*
G01*
%TO.C,Lrec1*%
X174760000Y-116222000D02*
X159820000Y-116222000D01*
X174760000Y-141862000D02*
X159820000Y-141862000D01*
X159820000Y-116222000D02*
X159820000Y-127876000D01*
X159820000Y-130208000D02*
X159820000Y-141862000D01*
X174760000Y-130208000D02*
X174760000Y-141862000D01*
X174760000Y-116222000D02*
X174760000Y-127876000D01*
%TO.C,D4*%
X130332000Y-104175000D02*
X130332000Y-104885000D01*
X133102000Y-101405000D02*
G75*
G03*
X133102000Y-101405000I-2770000J0D01*
G01*
%TO.C,CBy5*%
X154468000Y-125636000D02*
X158988000Y-125636000D01*
X154468000Y-117401000D02*
X154468000Y-125636000D01*
X158988000Y-125636000D02*
X158988000Y-117401000D01*
D13*
%TO.C,J_Tap_2*%
X188812000Y-119733000D02*
X188812000Y-118933000D01*
X193832000Y-119733000D02*
X191292000Y-119733000D01*
X196312000Y-119733000D02*
X196312000Y-118933000D01*
X193832000Y-118933000D02*
X191292000Y-118933000D01*
D12*
%TO.C,D_S2*%
X181936000Y-120630000D02*
X182646000Y-120630000D01*
X181936000Y-120630000D02*
G75*
G03*
X181936000Y-120630000I-2770000J0D01*
G01*
%TD*%
%LPC*%
D15*
%TO.C,J_Lector_2*%
X182014000Y-57035500D03*
D16*
X184514000Y-57035500D03*
X187014000Y-57035500D03*
X189514000Y-57035500D03*
X192014000Y-57035500D03*
X194514000Y-57035500D03*
X197014000Y-57035500D03*
X199514000Y-57035500D03*
%TD*%
D17*
%TO.C,FB1*%
X195549400Y-125115000D03*
X199999400Y-125115000D03*
%TD*%
D18*
%TO.C,D1*%
X140157600Y-105252200D03*
D19*
X135077600Y-105252200D03*
%TD*%
D20*
%TO.C,C1*%
X134640000Y-81445000D03*
X134640000Y-83520000D03*
%TD*%
D21*
%TO.C,REF\u002A\u002A*%
X198130000Y-137002200D03*
%TD*%
D22*
%TO.C,CB4*%
X141720500Y-94381000D03*
X143795500Y-94381000D03*
%TD*%
D23*
%TO.C,CB1*%
X112102500Y-87145000D03*
X110027500Y-87145000D03*
%TD*%
D15*
%TO.C,J_Lector_1*%
X158265000Y-56997500D03*
D16*
X160765000Y-56997500D03*
X163265000Y-56997500D03*
X165765000Y-56997500D03*
X168265000Y-56997500D03*
X170765000Y-56997500D03*
X173265000Y-56997500D03*
X175765000Y-56997500D03*
%TD*%
D18*
%TO.C,DFly1*%
X187157200Y-137408600D03*
D19*
X192237200Y-137408600D03*
%TD*%
D24*
%TO.C,Ra1*%
X195352000Y-105150600D03*
X197352000Y-105150600D03*
%TD*%
D25*
%TO.C,CBy3*%
X148244400Y-111145400D03*
X148244400Y-117545400D03*
%TD*%
D26*
%TO.C,C3*%
X134565000Y-69032500D03*
X134565000Y-66957500D03*
%TD*%
D27*
%TO.C,J_gnd1*%
X192694400Y-125115000D03*
X187614400Y-125115000D03*
%TD*%
D28*
%TO.C,LB3*%
X116075000Y-111375000D03*
X116075000Y-123575000D03*
%TD*%
%TO.C,Lb1*%
X115834000Y-128163000D03*
X115834000Y-140363000D03*
%TD*%
D18*
%TO.C,D3*%
X123220000Y-101405000D03*
D19*
X123220000Y-106485000D03*
%TD*%
D15*
%TO.C,J_Lector_3*%
X134516000Y-57035500D03*
D16*
X137016000Y-57035500D03*
X139516000Y-57035500D03*
X142016000Y-57035500D03*
X144516000Y-57035500D03*
X147016000Y-57035500D03*
X149516000Y-57035500D03*
X152016000Y-57035500D03*
%TD*%
D29*
%TO.C,RI2C1*%
X185684000Y-96498600D03*
X185684000Y-94498600D03*
%TD*%
D22*
%TO.C,CB2*%
X126683700Y-94279400D03*
X128758700Y-94279400D03*
%TD*%
D27*
%TO.C,B1_1*%
X118780400Y-89809000D03*
X123860400Y-89809000D03*
%TD*%
D29*
%TO.C,R6*%
X147840000Y-81720000D03*
X147840000Y-79720000D03*
%TD*%
D30*
%TO.C,R_RED1*%
X170799600Y-101763000D03*
X170799600Y-103763000D03*
%TD*%
D31*
%TO.C,J_Display1*%
X197257500Y-64070000D03*
D32*
X197257500Y-66570000D03*
X197257500Y-69070000D03*
X197257500Y-71570000D03*
X197257500Y-74070000D03*
X197257500Y-76570000D03*
X197257500Y-79070000D03*
X197257500Y-81570000D03*
X197257500Y-84070000D03*
%TD*%
D30*
%TO.C,R5*%
X147990000Y-65270000D03*
X147990000Y-67270000D03*
%TD*%
D33*
%TO.C,CBat1*%
X185742400Y-83713000D03*
X180342400Y-83713000D03*
%TD*%
D34*
%TO.C,U_ChargeControler1*%
X179982400Y-103398000D03*
X179982400Y-102128000D03*
X179982400Y-100858000D03*
X179982400Y-99588000D03*
X175032400Y-99588000D03*
X175032400Y-100858000D03*
X175032400Y-102128000D03*
X175032400Y-103398000D03*
D35*
X177507400Y-101493000D03*
%TD*%
D36*
%TO.C,U_555*%
X189446000Y-107188600D03*
X189446000Y-108458600D03*
X189446000Y-109728600D03*
X189446000Y-110998600D03*
X194396000Y-110998600D03*
X194396000Y-109728600D03*
X194396000Y-108458600D03*
X194396000Y-107188600D03*
%TD*%
D37*
%TO.C,D_RED1*%
X170485800Y-97886200D03*
X172535800Y-97886200D03*
%TD*%
D38*
%TO.C,CByBa1*%
X176227600Y-112821400D03*
X181627600Y-112821400D03*
%TD*%
D27*
%TO.C,J_Tap_1*%
X194594000Y-130633000D03*
X189514000Y-130633000D03*
%TD*%
D39*
%TO.C,L_p1*%
X134615000Y-71820000D03*
X134615000Y-73870000D03*
%TD*%
D21*
%TO.C,REF\u002A\u002A*%
X177962400Y-63600000D03*
%TD*%
D30*
%TO.C,R_Prog10*%
X186994800Y-102124000D03*
X186994800Y-104124000D03*
%TD*%
D27*
%TO.C,B2_1*%
X133553200Y-90322400D03*
X138633200Y-90322400D03*
%TD*%
%TO.C,B2*%
X133512400Y-94177800D03*
X138592400Y-94177800D03*
%TD*%
D40*
%TO.C,U1*%
X109966600Y-83221400D03*
X111236600Y-83221400D03*
X112506600Y-83221400D03*
X113776600Y-83221400D03*
X115046600Y-83221400D03*
X116316600Y-83221400D03*
X117586600Y-83221400D03*
X118856600Y-83221400D03*
X120126600Y-83221400D03*
X121396600Y-83221400D03*
X122666600Y-83221400D03*
X123936600Y-83221400D03*
X125206600Y-83221400D03*
X126476600Y-83221400D03*
D41*
X127476600Y-80436400D03*
X127476600Y-79166400D03*
X127476600Y-77896400D03*
X127476600Y-76626400D03*
X127476600Y-75356400D03*
X127476600Y-74086400D03*
X127476600Y-72816400D03*
X127476600Y-71546400D03*
X127476600Y-70276400D03*
X127476600Y-69006400D03*
D40*
X126476600Y-66221400D03*
X125206600Y-66221400D03*
X123936600Y-66221400D03*
X122666600Y-66221400D03*
X121396600Y-66221400D03*
X120126600Y-66221400D03*
X118856600Y-66221400D03*
X117586600Y-66221400D03*
X116316600Y-66221400D03*
X115046600Y-66221400D03*
X113776600Y-66221400D03*
X112506600Y-66221400D03*
X111236600Y-66221400D03*
X109966600Y-66221400D03*
D42*
X117466600Y-75721400D03*
%TD*%
D43*
%TO.C,QBoo1*%
X138971100Y-100360200D03*
X138971100Y-98460200D03*
X137096100Y-99410200D03*
%TD*%
D18*
%TO.C,DBoo1*%
X117124000Y-105145000D03*
D19*
X117124000Y-100065000D03*
%TD*%
D23*
%TO.C,C_cv1*%
X194087500Y-113532600D03*
X192012500Y-113532600D03*
%TD*%
D18*
%TO.C,D2*%
X166146000Y-108009000D03*
D19*
X166146000Y-113089000D03*
%TD*%
D44*
%TO.C,D_GREEN1*%
X176549000Y-97276600D03*
X174499000Y-97276600D03*
%TD*%
D45*
%TO.C,UB3v3*%
X148475000Y-100125000D03*
X148475000Y-101825000D03*
D46*
X157625000Y-103525000D03*
D45*
X148475000Y-103525000D03*
X148475000Y-105225000D03*
X148475000Y-106925000D03*
%TD*%
D28*
%TO.C,LB5*%
X143625600Y-128975800D03*
X131425600Y-128975800D03*
%TD*%
D21*
%TO.C,REF\u002A\u002A*%
X106893200Y-105201400D03*
%TD*%
D47*
%TO.C,Crec1*%
X179534000Y-136211621D03*
D48*
X179534000Y-138711621D03*
%TD*%
D18*
%TO.C,D_S1*%
X179188000Y-129520000D03*
D19*
X184268000Y-129520000D03*
%TD*%
D29*
%TO.C,RI2C2*%
X189087600Y-96498600D03*
X189087600Y-94498600D03*
%TD*%
D30*
%TO.C,R4*%
X151790000Y-72895000D03*
X151790000Y-74895000D03*
%TD*%
%TO.C,R_p1*%
X134565000Y-76320000D03*
X134565000Y-78320000D03*
%TD*%
D27*
%TO.C,B1*%
X118780400Y-94177800D03*
X123860400Y-94177800D03*
%TD*%
D20*
%TO.C,Cby2*%
X197368000Y-111733100D03*
X197368000Y-113808100D03*
%TD*%
D24*
%TO.C,R_GREEN1*%
X178486400Y-97276600D03*
X180486400Y-97276600D03*
%TD*%
D49*
%TO.C,UB5v0*%
X155048000Y-128890400D03*
X153348000Y-128890400D03*
D50*
X151648000Y-138040400D03*
D49*
X151648000Y-128890400D03*
X149948000Y-128890400D03*
X148248000Y-128890400D03*
%TD*%
D29*
%TO.C,Ro1*%
X185938000Y-109452600D03*
X185938000Y-107452600D03*
%TD*%
D51*
%TO.C,J_M2*%
X109465000Y-98405000D03*
D32*
X109465000Y-95905000D03*
X109465000Y-93405000D03*
%TD*%
D26*
%TO.C,C_by1*%
X185938000Y-113554100D03*
X185938000Y-111479100D03*
%TD*%
D52*
%TO.C,J_I2C1*%
X192206000Y-99481000D03*
D53*
X192206000Y-96941000D03*
X192206000Y-94401000D03*
X192206000Y-91861000D03*
X192206000Y-89321000D03*
%TD*%
D30*
%TO.C,RMISO1*%
X147890000Y-69795000D03*
X147890000Y-71795000D03*
%TD*%
D15*
%TO.C,J_M1*%
X106476000Y-56781500D03*
D16*
X108976000Y-56781500D03*
X111476000Y-56781500D03*
%TD*%
D52*
%TO.C,J_prog1*%
X116596000Y-60402000D03*
D53*
X119136000Y-60402000D03*
X121676000Y-60402000D03*
X124216000Y-60402000D03*
X126756000Y-60402000D03*
X129296000Y-60402000D03*
%TD*%
D24*
%TO.C,RBtn2*%
X143700000Y-90075000D03*
X145700000Y-90075000D03*
%TD*%
D18*
%TO.C,DB3*%
X137789200Y-112262600D03*
D19*
X142869200Y-112262600D03*
%TD*%
D54*
%TO.C,RBtn1*%
X129184400Y-90576400D03*
X127184400Y-90576400D03*
%TD*%
D30*
%TO.C,R1*%
X147940000Y-75620000D03*
X147940000Y-77620000D03*
%TD*%
%TO.C,Rb1*%
X197317200Y-107503400D03*
X197317200Y-109503400D03*
%TD*%
D18*
%TO.C,DB5*%
X154451600Y-112669000D03*
D19*
X159531600Y-112669000D03*
%TD*%
D28*
%TO.C,Lrec1*%
X173390000Y-129042000D03*
X161190000Y-129042000D03*
%TD*%
D18*
%TO.C,D4*%
X130332000Y-101405000D03*
D19*
X130332000Y-106485000D03*
%TD*%
D55*
%TO.C,CBy5*%
X156728000Y-124251000D03*
X156728000Y-117851000D03*
%TD*%
D27*
%TO.C,J_Tap_2*%
X195102000Y-119333000D03*
X190022000Y-119333000D03*
%TD*%
D18*
%TO.C,D_S2*%
X179166000Y-120630000D03*
D19*
X184246000Y-120630000D03*
%TD*%
M02*
