M48
; DRILL file {KiCad 6.0.5-a6ca702e91~116~ubuntu20.04.1} date vie 20 may 2022 12:07:02
; FORMAT={-:-/ absolute / inch / decimal}
; #@! TF.CreationDate,2022-05-20T12:07:02-05:00
; #@! TF.GenerationSoftware,Kicad,Pcbnew,6.0.5-a6ca702e91~116~ubuntu20.04.1
; #@! TF.FileFunction,Plated,1,2,PTH
FMAT,2
INCH
; #@! TA.AperFunction,Plated,PTH,ViaDrill
T1C0.0157
; #@! TA.AperFunction,Plated,PTH,ComponentDrill
T2C0.0315
; #@! TA.AperFunction,Plated,PTH,ComponentDrill
T3C0.0374
; #@! TA.AperFunction,Plated,PTH,ViaDrill
T4C0.0394
; #@! TA.AperFunction,Plated,PTH,ComponentDrill
T5C0.0394
; #@! TA.AperFunction,Plated,PTH,ComponentDrill
T6C0.0512
; #@! TA.AperFunction,Plated,PTH,ComponentDrill
T7C0.0563
; #@! TA.AperFunction,Plated,PTH,ComponentDrill
T8C0.0591
%
G90
G05
T1
X4.0945Y-2.0492
X4.0945Y-2.1112
X4.1535Y-2.0492
X4.1545Y-2.1122
X4.1555Y-5.2746
X4.1555Y-5.3327
X4.1565Y-5.2136
X4.1575Y-5.1535
X4.1585Y-4.6585
X4.1585Y-4.7165
X4.1594Y-4.5974
X4.1604Y-4.5374
X4.2146Y-2.1132
X4.2156Y-2.0502
X4.2234Y-5.2736
X4.2234Y-5.3317
X4.2244Y-5.2136
X4.2254Y-5.1535
X4.2264Y-4.6575
X4.2264Y-4.7156
X4.2274Y-4.5974
X4.2283Y-4.5374
X4.2864Y-5.2746
X4.2864Y-5.3327
X4.2874Y-5.1535
X4.2874Y-5.2126
X4.2894Y-4.6585
X4.2894Y-4.7165
X4.2904Y-4.5374
X4.2904Y-4.5965
X4.3228Y-2.8031
X4.3228Y-2.8425
X4.3622Y-2.8031
X4.3622Y-2.8425
X4.3743Y-2.7137
X4.4016Y-2.8425
X4.4301Y-2.3401
X4.4731Y-2.3431
X4.5104Y-2.7338
X4.5824Y-3.5115
X4.5827Y-3.4646
X4.5827Y-3.5591
X4.6324Y-3.3598
X4.7306Y-3.2116
X4.7874Y-2.8504
X4.7874Y-2.8898
X4.798Y-2.542
X4.812Y-3.182
X4.824Y-3.093
X4.8346Y-2.8504
X4.8346Y-2.8898
X4.885Y-2.996
X4.9228Y-2.7041
X4.9306Y-2.5296
X5.1001Y-2.7161
X5.1024Y-2.7678
X5.126Y-2.5748
X5.1417Y-2.8346
X5.1417Y-2.8898
X5.1486Y-3.5571
X5.1496Y-3.6998
X5.1732Y-2.5748
X5.1811Y-2.8346
X5.1811Y-2.8898
X5.1929Y-3.6211
X5.2076Y-3.2926
X5.2992Y-2.378
X5.3238Y-5.2923
X5.3238Y-5.3543
X5.3238Y-5.4222
X5.3386Y-2.378
X5.378Y-2.378
X5.378Y-3.0335
X5.378Y-3.0955
X5.3829Y-5.2923
X5.3839Y-5.3553
X5.3839Y-5.4232
X5.437Y-3.0335
X5.438Y-3.0965
X5.4439Y-5.3563
X5.4449Y-5.2933
X5.4449Y-5.4242
X5.498Y-3.0974
X5.499Y-3.0344
X5.502Y-5.3563
X5.503Y-5.2933
X5.503Y-5.4242
X5.5561Y-3.0974
X5.5571Y-3.0344
X5.5591Y-2.3937
X5.6161Y-4.6476
X5.6161Y-4.7067
X5.6171Y-4.5276
X5.6171Y-4.5856
X5.665Y-3.637
X5.6781Y-4.7067
X5.6791Y-4.6467
X5.6801Y-4.5285
X5.6801Y-4.5866
X5.8031Y-4.2835
X5.8224Y-3.2978
X5.8425Y-4.2835
X5.8789Y-5.3612
X5.8789Y-5.4232
X5.8789Y-5.4911
X5.8819Y-4.2835
X5.8924Y-3.2718
X5.938Y-5.3612
X5.939Y-5.4242
X5.939Y-5.4921
X5.9444Y-4.3458
X5.9604Y-2.6058
X5.999Y-5.4252
X6.0Y-5.3622
X6.0Y-5.4931
X6.0059Y-3.2687
X6.0059Y-3.3307
X6.0059Y-3.3986
X6.0571Y-5.4252
X6.0581Y-5.3622
X6.0581Y-5.4931
X6.065Y-3.2687
X6.0659Y-3.3317
X6.0659Y-3.3996
X6.106Y-2.232
X6.106Y-2.27
X6.126Y-3.3327
X6.127Y-3.2697
X6.127Y-3.4006
X6.1309Y-4.0758
X6.1309Y-4.1339
X6.1319Y-4.0148
X6.1329Y-3.9547
X6.142Y-2.232
X6.142Y-2.27
X6.1841Y-3.3327
X6.185Y-3.2697
X6.185Y-3.4006
X6.1884Y-2.6058
X6.1988Y-4.0748
X6.1988Y-4.1329
X6.1998Y-4.0148
X6.2008Y-3.9547
X6.209Y-2.431
X6.2618Y-4.0758
X6.2618Y-4.1339
X6.2628Y-3.9547
X6.2628Y-4.0138
X6.3369Y-3.2342
X6.3465Y-2.4331
X6.358Y-2.624
X6.394Y-2.672
X6.408Y-2.624
X6.4444Y-2.4016
X6.448Y-2.672
X6.4646Y-4.0157
X6.4646Y-4.0551
X6.4682Y-2.7678
X6.5039Y-4.0157
X6.5039Y-4.0551
X6.534Y-2.326
X6.5758Y-3.0325
X6.5758Y-3.0945
X6.5787Y-2.8346
X6.5787Y-2.8967
X6.5827Y-3.2687
X6.5827Y-3.3307
X6.5827Y-3.3986
X6.5964Y-2.4016
X6.6129Y-4.9279
X6.6142Y-2.7087
X6.6142Y-4.8898
X6.6142Y-5.5197
X6.6142Y-5.5591
X6.6348Y-3.0325
X6.6358Y-3.0955
X6.6378Y-2.8346
X6.6388Y-2.8976
X6.6417Y-3.2687
X6.6427Y-3.3317
X6.6427Y-3.3996
X6.6535Y-4.8898
X6.6535Y-4.9291
X6.6535Y-5.5197
X6.6535Y-5.5591
X6.6929Y-4.8898
X6.6929Y-4.9291
X6.6929Y-5.5197
X6.6929Y-5.5591
X6.6959Y-3.0965
X6.6969Y-3.0335
X6.6988Y-2.8986
X6.6998Y-2.8356
X6.7028Y-3.3327
X6.7037Y-3.2697
X6.7037Y-3.4006
X6.7539Y-3.0965
X6.7549Y-3.0335
X6.7569Y-2.8986
X6.7579Y-2.8356
X6.76Y-2.564
X6.76Y-2.606
X6.7608Y-3.3327
X6.7618Y-3.2697
X6.7618Y-3.4006
X6.7716Y-2.3396
X6.8Y-2.564
X6.8004Y-3.9896
X6.802Y-2.606
X6.844Y-2.564
X6.844Y-2.606
X6.8898Y-2.4016
X7.0551Y-2.2835
X7.061Y-2.8327
X7.061Y-2.8947
X7.061Y-3.0354
X7.061Y-3.0974
X7.0866Y-2.252
X7.1201Y-2.8327
X7.1201Y-3.0354
X7.1211Y-2.8957
X7.1211Y-3.0984
X7.169Y-3.847
X7.1811Y-2.8967
X7.1811Y-3.0994
X7.1821Y-2.8337
X7.1821Y-3.0364
X7.2392Y-2.8967
X7.2392Y-3.0994
X7.2402Y-2.8337
X7.2402Y-3.0364
X7.268Y-2.77
X7.315Y-3.1758
X7.3564Y-3.1458
X7.3604Y-3.5018
X7.3701Y-4.5591
X7.3701Y-4.5984
X7.3704Y-2.9518
X7.381Y-2.996
X7.4094Y-4.5591
X7.4094Y-4.5984
X7.4488Y-4.5591
X7.4488Y-4.5984
X7.4783Y-4.0797
X7.4793Y-4.0167
X7.4793Y-4.1476
X7.5364Y-4.0797
X7.5374Y-4.0167
X7.594Y-4.018
X7.6693Y-3.2283
X7.6929Y-2.3543
X7.6929Y-2.3937
X7.7323Y-2.3543
X7.7323Y-2.3937
X7.7451Y-3.7156
X7.7451Y-3.7736
X7.7461Y-3.6545
X7.747Y-3.5945
X7.813Y-3.7146
X7.813Y-3.7726
X7.814Y-3.6545
X7.815Y-3.5945
X7.876Y-3.7156
X7.876Y-3.7736
X7.877Y-3.5945
X7.877Y-3.6535
T2
X7.0683Y-5.3627
X7.0683Y-5.4611
T3
X4.192Y-2.2355
X4.2904Y-2.2355
X4.3096Y-3.6774
X4.3096Y-3.7758
X4.3096Y-3.8742
X4.3888Y-2.2355
X5.2959Y-2.2455
X5.3943Y-2.2455
X5.4928Y-2.2455
X5.5912Y-2.2455
X5.6896Y-2.2455
X5.788Y-2.2455
X5.8865Y-2.2455
X5.9849Y-2.2455
X6.2309Y-2.244
X6.3293Y-2.244
X6.4278Y-2.244
X6.5262Y-2.244
X6.6246Y-2.244
X6.723Y-2.244
X6.8215Y-2.244
X6.9199Y-2.244
X7.1659Y-2.2455
X7.2643Y-2.2455
X7.3628Y-2.2455
X7.4612Y-2.2455
X7.5596Y-2.2455
X7.658Y-2.2455
X7.7565Y-2.2455
X7.766Y-2.5224
X7.766Y-2.6209
X7.766Y-2.7193
X7.766Y-2.8177
X7.766Y-2.9161
X7.766Y-3.0146
X7.766Y-3.113
X7.766Y-3.2114
X7.766Y-3.3098
X7.8549Y-2.2455
T4
X4.9644Y-4.7458
X5.0444Y-4.2878
X5.2144Y-4.5158
X5.6115Y-3.7975
X5.636Y-4.146
X5.707Y-4.013
X5.8944Y-4.7798
X5.9035Y-4.9369
X6.0373Y-4.9267
X6.464Y-3.7118
X6.6542Y-3.676
X6.6864Y-4.7058
X6.7564Y-3.9218
X6.8904Y-4.1306
X6.914Y-4.25
X7.1973Y-3.9217
T5
X4.5904Y-2.378
X4.6904Y-2.378
X4.7904Y-2.378
X4.8904Y-2.378
X4.9904Y-2.378
X5.0904Y-2.378
X7.5672Y-3.5166
X7.5672Y-3.6166
X7.5672Y-3.7166
X7.5672Y-3.8166
X7.5672Y-3.9166
T6
X4.6112Y-3.9396
X4.6112Y-4.1396
X4.8512Y-3.9923
X4.8512Y-4.1923
X5.1312Y-3.9923
X5.1312Y-4.1923
X5.318Y-4.1438
X5.4248Y-4.4198
X5.518Y-4.1438
X5.6248Y-4.4198
X6.0808Y-4.4358
X6.2808Y-4.4358
X6.5412Y-4.2523
X6.5412Y-4.4523
X7.0538Y-4.7492
X7.0546Y-5.0992
X7.2538Y-4.7492
X7.2546Y-5.0992
X7.3684Y-5.4098
X7.5684Y-5.4098
T7
X4.6764Y-3.5358
X4.6764Y-3.7078
X4.8764Y-3.5358
X4.8764Y-3.7078
X5.2564Y-3.5298
X5.2564Y-3.7078
X5.4564Y-3.5298
X5.4564Y-3.7078
X7.3864Y-4.9258
X7.4612Y-5.143
X7.4812Y-4.6981
X7.5864Y-4.9258
X7.6612Y-5.143
X7.6812Y-4.6981
T8
X4.5604Y-5.0458
X4.5604Y-5.5261
X4.5699Y-4.3848
X4.5699Y-4.8652
X5.1742Y-5.0778
X5.6546Y-5.0778
X6.3461Y-5.0804
X6.8264Y-5.0804
T0
M30
